<?xml version="1.0" standalone="no"?>
<!DOCTYPE svg PUBLIC "-//W3C//DTD SVG 20010904//EN"
 "http://www.w3.org/TR/2001/REC-SVG-20010904/DTD/svg10.dtd">
<svg version="1.0" xmlns="http://www.w3.org/2000/svg"
 width="3000.000000pt" height="4000.000000pt" viewBox="0 0 3000.000000 4000.000000"
 preserveAspectRatio="xMidYMid meet">
<metadata>
Created by potrace 1.16, written by Peter Selinger 2001-2019
</metadata>
<g transform="translate(0.000000,4000.000000) scale(0.100000,-0.100000)"
fill="#000000" stroke="none">
<path d="M14980 37317 c-68 -17 -147 -25 -294 -32 -83 -4 -166 -13 -186 -20
-19 -7 -87 -13 -150 -14 -86 -2 -121 -6 -140 -18 -16 -11 -56 -18 -122 -21
-54 -3 -95 -8 -92 -13 8 -13 -32 -29 -75 -29 -27 0 -40 -4 -38 -12 1 -7 -12
-17 -28 -23 -17 -5 -41 -18 -55 -27 -13 -10 -35 -18 -47 -18 -13 0 -32 -9 -43
-20 -11 -11 -33 -20 -50 -20 -20 0 -30 -5 -30 -15 0 -9 -12 -18 -30 -21 -16
-4 -30 -13 -30 -20 0 -8 -5 -14 -12 -14 -15 0 -90 -50 -101 -67 -4 -7 -17 -13
-28 -13 -12 0 -23 -8 -26 -20 -3 -11 -12 -20 -19 -20 -8 0 -14 -5 -14 -11 0
-14 -55 -69 -69 -69 -6 0 -10 -3 -9 -7 5 -15 -127 -150 -154 -159 -10 -3 -18
-9 -18 -14 0 -4 -16 -11 -35 -14 -20 -4 -33 -11 -30 -17 4 -5 -6 -14 -21 -19
-15 -6 -32 -18 -38 -26 -6 -8 -21 -16 -33 -17 -12 0 -24 -9 -26 -19 -3 -10
-14 -18 -25 -18 -12 0 -27 -9 -35 -20 -7 -11 -24 -21 -37 -23 -15 -2 -30 -17
-41 -38 -10 -19 -22 -39 -27 -45 -5 -6 -13 -25 -17 -42 -3 -18 -10 -32 -15
-32 -4 0 -10 -22 -14 -50 -4 -27 -11 -50 -16 -50 -5 0 -12 -22 -16 -50 -4 -27
-10 -48 -14 -45 -3 2 -7 -1 -7 -8 -2 -29 -15 -82 -22 -87 -5 -3 -7 -12 -6 -22
3 -19 -42 -118 -54 -118 -5 0 -11 -10 -14 -21 -4 -16 -11 -20 -24 -15 -14 6
-15 4 -6 -5 12 -12 7 -36 -14 -57 -7 -7 -13 -24 -13 -38 0 -13 -4 -24 -10 -24
-5 0 -12 -11 -16 -25 -3 -13 -12 -29 -20 -36 -8 -6 -14 -24 -14 -39 0 -16 -4
-30 -9 -32 -6 -1 -13 -25 -16 -53 -4 -27 -11 -54 -15 -60 -4 -5 -11 -34 -14
-64 -4 -30 -10 -59 -15 -65 -5 -6 -11 -37 -15 -69 -3 -32 -10 -66 -15 -75 -8
-15 -17 -70 -20 -120 -1 -7 -6 -10 -12 -6 -8 4 -8 0 0 -15 7 -11 8 -21 3 -21
-5 0 -9 -6 -9 -12 -1 -70 -16 -215 -24 -224 -12 -15 -10 -225 3 -241 5 -6 12
-69 15 -140 3 -70 8 -130 12 -133 3 -3 7 -14 8 -25 8 -84 13 -110 23 -113 5
-2 10 -14 10 -27 0 -39 12 -85 21 -79 5 3 10 -10 11 -28 2 -51 3 -54 15 -69 6
-8 14 -41 16 -74 3 -33 12 -79 20 -102 9 -22 12 -45 9 -49 -4 -4 -2 -4 4 -1
12 7 24 -13 24 -40 0 -8 7 -30 16 -48 13 -28 13 -37 3 -57 -7 -13 -12 -26 -11
-29 0 -4 -22 -31 -51 -60 -29 -29 -45 -49 -37 -45 8 5 2 -3 -15 -18 -16 -14
-27 -25 -23 -26 4 0 -6 -14 -21 -31 -27 -29 -29 -36 -36 -172 -9 -168 -9 -134
-1 -287 7 -127 8 -143 19 -170 3 -8 8 -35 10 -59 3 -24 9 -46 15 -50 6 -3 13
-24 17 -46 4 -22 11 -44 15 -50 8 -10 19 -73 20 -113 0 -13 4 -20 10 -17 9 5
15 -33 13 -82 -1 -7 6 -13 14 -13 13 0 13 -2 2 -17 -10 -11 -10 -14 -1 -9 8 5
12 -1 13 -21 1 -15 1 -31 0 -35 0 -4 7 -4 16 -1 9 4 14 2 10 -3 -8 -13 13 -94
24 -94 5 0 9 -5 9 -11 0 -5 -6 -7 -12 -3 -10 6 -10 4 -2 -7 7 -8 15 -29 19
-46 3 -18 12 -33 18 -33 8 0 7 -3 -2 -9 -9 -6 -10 -11 -3 -15 6 -4 9 -13 6
-20 -3 -8 0 -17 7 -22 8 -5 10 -3 4 6 -5 9 -4 11 4 6 9 -6 9 -11 -1 -24 -10
-12 -10 -14 0 -8 8 5 14 -2 18 -23 4 -18 11 -28 17 -24 5 3 7 1 3 -5 -3 -6 -2
-13 3 -16 5 -4 8 -14 6 -24 -1 -9 6 -39 16 -67 10 -27 19 -79 19 -115 2 -105
4 -119 12 -114 7 5 12 -18 9 -38 0 -5 6 -8 14 -8 8 0 15 -9 15 -19 0 -11 6
-26 13 -33 13 -15 18 -28 23 -72 2 -16 8 -34 13 -40 9 -11 24 -96 23 -129 0
-9 3 -15 8 -12 4 3 11 -12 15 -33 4 -20 12 -43 18 -51 10 -12 9 -13 -3 -6 -10
6 -9 2 3 -12 10 -11 19 -30 20 -41 0 -11 5 -18 9 -16 7 5 12 -18 9 -38 0 -5 3
-8 8 -8 5 0 15 -17 22 -37 6 -21 15 -42 19 -48 4 -5 10 -29 14 -52 6 -41 61
-143 77 -143 5 0 9 -6 9 -14 0 -7 7 -19 15 -26 8 -7 15 -21 15 -31 0 -9 6 -24
13 -31 7 -7 16 -21 20 -30 3 -10 11 -18 17 -18 5 0 10 -6 10 -13 0 -8 9 -22
20 -32 11 -10 17 -21 15 -25 -3 -4 2 -10 10 -14 8 -3 15 -12 15 -21 0 -8 5
-15 10 -15 6 0 10 -5 10 -12 0 -7 12 -23 28 -36 15 -13 21 -20 13 -16 -9 5
-12 3 -7 -4 4 -7 14 -12 22 -12 8 0 14 -7 14 -15 0 -9 7 -18 15 -21 8 -4 15
-13 15 -20 0 -8 7 -17 15 -20 8 -4 15 -12 15 -18 0 -7 11 -18 25 -24 14 -6 25
-18 25 -27 0 -8 7 -15 15 -15 8 0 15 -6 15 -12 0 -7 31 -47 69 -88 38 -41 67
-79 64 -85 -4 -5 -3 -7 2 -3 9 8 28 -10 38 -35 4 -10 11 -15 17 -12 5 3 10 -1
10 -9 0 -8 9 -20 20 -26 11 -6 20 -17 20 -25 0 -8 7 -15 15 -15 8 0 15 -6 15
-14 0 -8 8 -17 18 -21 26 -8 42 -47 36 -87 -3 -18 -1 -44 4 -58 10 -27 -2 -75
-25 -98 -7 -7 -13 -20 -13 -28 0 -8 -4 -13 -9 -10 -10 7 -21 -17 -21 -45 0
-10 -3 -19 -7 -19 -5 0 -19 -25 -32 -55 -14 -30 -28 -55 -33 -55 -4 0 -8 -6
-8 -14 0 -8 -6 -21 -14 -28 -7 -8 -17 -29 -21 -46 -3 -18 -11 -32 -16 -32 -5
0 -9 -13 -9 -28 0 -16 -7 -37 -15 -48 -8 -10 -15 -27 -15 -37 0 -10 -7 -20
-15 -23 -8 -4 -15 -14 -15 -24 0 -10 -7 -23 -15 -30 -8 -7 -15 -17 -15 -22 0
-12 -59 -68 -71 -68 -5 0 -14 -9 -21 -20 -7 -11 -20 -20 -29 -20 -9 0 -28 -9
-42 -20 -14 -11 -34 -20 -44 -20 -10 0 -26 -9 -36 -20 -10 -12 -29 -20 -47
-20 -20 0 -30 -5 -30 -15 0 -8 -12 -18 -26 -21 -15 -4 -35 -15 -45 -25 -11
-11 -30 -19 -44 -19 -14 0 -25 -4 -25 -8 0 -12 -46 -32 -71 -32 -11 0 -22 -7
-25 -15 -3 -8 -21 -17 -40 -21 -19 -3 -34 -12 -34 -19 0 -12 -54 -32 -73 -27
-4 1 -6 -3 -5 -9 2 -6 -10 -16 -27 -22 -16 -5 -34 -16 -38 -23 -4 -8 -26 -17
-47 -20 -22 -4 -38 -11 -37 -16 1 -6 -11 -15 -28 -21 -16 -5 -34 -16 -38 -23
-4 -8 -18 -14 -30 -14 -12 0 -28 -9 -35 -20 -7 -11 -20 -20 -31 -20 -10 0 -28
-9 -41 -20 -13 -11 -31 -20 -41 -20 -11 0 -24 -9 -31 -20 -7 -11 -23 -20 -35
-20 -13 0 -32 -9 -43 -20 -11 -11 -29 -20 -40 -20 -11 0 -23 -7 -26 -15 -3 -8
-21 -17 -40 -21 -19 -3 -41 -13 -49 -21 -13 -12 -34 -18 -78 -22 -4 -1 -6 -6
-5 -13 2 -6 -14 -16 -34 -22 -20 -6 -36 -15 -35 -20 1 -6 -14 -14 -32 -19 -19
-5 -40 -15 -45 -23 -11 -14 -40 -22 -84 -23 -13 -1 -20 -5 -17 -11 3 -5 -7
-12 -22 -16 -47 -10 -54 -13 -49 -23 7 -11 -17 -21 -51 -21 -14 0 -32 -9 -41
-19 -10 -11 -32 -21 -52 -22 -19 -2 -43 -11 -53 -21 -15 -15 -74 -25 -110 -19
-5 1 -6 -3 -3 -8 8 -13 -50 -31 -101 -31 -27 0 -42 -4 -38 -10 8 -14 -38 -30
-86 -30 -21 0 -39 -4 -39 -10 0 -12 -65 -30 -107 -30 -21 0 -33 -5 -33 -14 0
-13 -48 -26 -102 -26 -14 0 -28 -5 -30 -11 -2 -7 -30 -15 -62 -20 -32 -4 -63
-14 -69 -22 -10 -13 -33 -19 -95 -27 -2 0 -1 -4 3 -9 4 -8 -63 -29 -72 -23 -2
1 -12 -7 -24 -19 -11 -11 -27 -18 -35 -15 -8 3 -14 1 -14 -5 0 -6 -5 -7 -10
-4 -6 4 -9 1 -8 -7 2 -7 -3 -12 -10 -10 -8 1 -11 -1 -9 -5 8 -13 -12 -55 -23
-48 -6 4 -10 3 -9 -2 4 -15 -13 -43 -22 -37 -5 3 -9 2 -9 -3 0 -15 -47 -63
-54 -55 -4 4 -7 2 -6 -3 6 -26 -3 -44 -35 -78 -19 -20 -33 -37 -30 -37 3 0 0
-6 -7 -14 -7 -8 -16 -12 -20 -9 -4 2 -5 -3 -2 -11 3 -9 1 -16 -6 -16 -6 0 -9
-4 -5 -9 3 -5 1 -12 -5 -16 -6 -4 -8 -10 -5 -15 3 -4 -2 -10 -10 -14 -8 -3
-15 -12 -15 -20 0 -7 -7 -16 -15 -20 -8 -3 -15 -12 -15 -20 0 -8 -4 -16 -10
-18 -5 -1 -11 -13 -13 -25 -1 -11 -9 -29 -17 -39 -13 -16 -13 -17 0 -9 9 5 8
0 -4 -13 -11 -12 -16 -22 -11 -22 4 0 2 -6 -4 -13 -6 -8 -8 -17 -4 -20 3 -4 1
-7 -6 -7 -7 0 -10 -4 -7 -9 4 -5 1 -11 -4 -13 -6 -2 -13 -12 -14 -23 -2 -11
-8 -19 -13 -18 -5 1 -10 -5 -11 -13 -1 -7 -3 -21 -4 -29 -1 -8 -5 -15 -10 -15
-5 0 -6 -4 -3 -10 3 -5 1 -10 -6 -10 -7 0 -9 -3 -6 -7 4 -3 0 -17 -9 -31 -11
-17 -12 -22 -3 -16 12 6 12 5 0 -9 -7 -9 -15 -40 -17 -68 -2 -27 -7 -56 -11
-62 -4 -7 -8 -16 -9 -22 -5 -29 -10 -41 -20 -50 -7 -5 -15 -23 -18 -38 -4 -15
-11 -25 -16 -22 -5 3 -7 -4 -5 -15 2 -11 0 -20 -6 -20 -5 0 -8 -3 -8 -7 5 -29
-2 -53 -13 -47 -10 5 -10 4 -1 -6 9 -10 8 -18 -7 -38 -11 -13 -17 -29 -13 -35
4 -6 0 -8 -10 -4 -11 4 -14 2 -11 -8 3 -8 1 -22 -5 -32 -8 -13 -11 -14 -9 -3
2 9 -1 15 -7 15 -5 0 -9 -5 -7 -12 1 -6 -3 -15 -9 -19 -8 -5 -9 -3 -4 6 5 9 4
11 -4 6 -9 -6 -9 -11 1 -24 10 -12 10 -14 1 -8 -7 4 -13 2 -13 -3 0 -6 6 -11
13 -11 9 0 8 -3 -2 -9 -11 -7 -11 -9 0 -14 10 -4 10 -6 2 -6 -7 -1 -13 -9 -13
-18 0 -15 2 -16 10 -3 6 9 10 10 10 3 0 -6 -5 -15 -11 -19 -8 -4 -7 -9 2 -15
10 -6 11 -9 2 -9 -7 0 -13 -5 -13 -11 0 -5 4 -8 9 -5 4 3 8 -4 7 -15 0 -11 -7
-23 -14 -28 -8 -5 -14 -12 -15 -17 -1 -5 -5 -8 -8 -7 -3 1 -6 -3 -7 -10 0 -7
-3 -21 -5 -32 -3 -11 -7 -27 -9 -35 -1 -8 -7 -18 -13 -22 -6 -5 -4 -8 5 -8 11
0 12 -2 3 -8 -7 -5 -14 -20 -15 -34 -1 -15 -6 -24 -10 -22 -5 3 -6 9 -4 13 3
4 -1 8 -9 8 -11 0 -12 -4 -4 -13 7 -8 7 -14 -1 -19 -6 -4 -9 -12 -7 -18 2 -7
0 -20 -5 -31 -8 -14 -7 -17 3 -11 8 6 10 4 3 -6 -13 -21 -14 -41 -20 -369 -3
-168 -6 -340 -7 -382 -1 -46 -6 -78 -12 -78 -5 0 -3 -5 5 -10 8 -5 10 -10 4
-10 -7 0 -10 -13 -9 -30 1 -16 -2 -30 -7 -30 -7 0 -6 -5 1 -13 6 -8 8 -17 4
-21 -4 -4 -9 -21 -10 -39 -6 -71 -9 -93 -16 -104 -4 -6 -3 -13 3 -15 6 -2 2
-19 -10 -43 -11 -21 -20 -44 -20 -51 0 -6 -8 -18 -17 -25 -15 -11 -16 -11 -5
1 6 8 12 21 12 29 0 10 -6 6 -14 -9 -9 -18 -10 -29 -2 -39 8 -11 8 -13 -1 -7
-7 4 -13 2 -13 -3 0 -6 5 -11 12 -11 6 0 1 -9 -11 -19 -12 -11 -22 -22 -22
-25 3 -20 -1 -26 -15 -26 -10 0 -14 -7 -12 -22 2 -17 -1 -22 -15 -20 -9 2 -17
-1 -16 -5 4 -21 -2 -33 -17 -33 -8 0 -13 -4 -9 -9 3 -5 1 -12 -5 -16 -6 -4 -8
-11 -5 -16 3 -5 -1 -6 -9 -3 -10 4 -16 1 -16 -8 0 -8 -10 -23 -22 -34 -12 -10
-18 -13 -14 -6 10 18 1 15 -15 -5 -10 -11 -10 -14 -1 -9 16 10 15 -2 -2 -20
-19 -19 -27 -18 -20 4 5 14 4 15 -5 2 -15 -21 -14 -43 2 -34 7 4 9 3 4 -2 -5
-5 -14 -9 -20 -9 -7 -1 -11 -7 -9 -14 1 -7 -2 -10 -8 -6 -6 3 -8 10 -5 15 3 5
0 12 -6 16 -7 4 -9 3 -5 -4 3 -6 2 -13 -4 -17 -6 -4 -8 -11 -5 -16 4 -5 -1
-19 -9 -31 -9 -12 -16 -18 -16 -12 0 5 6 16 13 24 10 12 9 12 -5 2 -11 -9 -18
-10 -23 -2 -3 5 -12 10 -18 10 -7 0 -6 -4 3 -10 8 -5 16 -18 16 -29 1 -11 -2
-18 -7 -16 -4 3 -11 0 -14 -6 -4 -5 -14 -8 -22 -4 -14 5 -14 3 -2 -12 9 -11
10 -14 2 -9 -8 4 -13 1 -13 -8 0 -9 -4 -16 -9 -16 -6 0 -8 9 -6 20 2 11 0 18
-5 15 -10 -6 -8 -24 4 -44 7 -10 6 -12 -4 -6 -10 6 -12 4 -6 -10 5 -15 4 -16
-9 -5 -8 7 -12 17 -8 24 3 6 2 7 -2 3 -12 -10 -15 -38 -4 -31 5 3 9 -2 9 -11
0 -10 -5 -13 -12 -9 -8 5 -7 0 2 -11 12 -15 12 -17 1 -10 -11 6 -13 4 -7 -10
5 -14 4 -16 -7 -7 -18 15 -30 3 -15 -15 9 -11 7 -15 -12 -20 -22 -6 -23 -7 -4
-14 19 -7 19 -8 -1 -8 -17 -1 -18 -3 -5 -12 12 -8 10 -10 -10 -5 -24 5 -24 4
-6 -9 11 -8 14 -15 7 -15 -7 0 -9 -5 -5 -12 5 -7 2 -9 -8 -5 -15 5 -18 -9 -8
-48 1 -5 1 -26 0 -45 l-2 -35 -8 30 c-8 28 -8 27 -7 -10 0 -23 -3 -47 -8 -55
-6 -9 -4 -11 5 -5 10 6 11 4 4 -6 -5 -8 -10 -25 -12 -39 -6 -50 -8 -55 -16
-69 -7 -10 -5 -12 5 -7 8 4 5 0 -5 -8 -15 -12 -16 -16 -5 -16 8 0 10 -3 4 -8
-5 -4 -12 -16 -13 -27 -2 -11 -8 -24 -13 -30 -5 -5 -9 -14 -9 -20 0 -5 5 -3
10 5 8 11 9 7 4 -15 -3 -16 -8 -37 -11 -45 -9 -22 -8 -19 -17 -94 -5 -46 -11
-64 -17 -55 -6 10 -9 5 -9 -18 0 -39 -9 -65 -21 -57 -5 3 -9 -6 -9 -20 0 -13
-3 -32 -6 -41 -5 -13 -8 -14 -15 -3 -6 9 -9 2 -9 -19 0 -17 -6 -38 -12 -45
-14 -15 -17 -25 -20 -66 -1 -15 -8 -33 -15 -40 -7 -7 -13 -24 -13 -36 0 -13
-7 -29 -15 -36 -8 -7 -15 -18 -14 -24 4 -31 -2 -67 -10 -62 -12 8 -21 -18 -21
-59 0 -19 -4 -36 -9 -40 -6 -3 -13 -27 -17 -53 -4 -26 -11 -50 -17 -53 -5 -4
-11 -22 -13 -40 -2 -19 -8 -43 -13 -54 -5 -11 -12 -33 -16 -48 -3 -15 -10 -25
-15 -22 -5 3 -12 -10 -16 -30 -3 -19 -10 -35 -15 -35 -5 0 -9 -11 -9 -24 0
-14 -6 -31 -12 -38 -18 -19 -36 -48 -48 -76 -5 -13 -14 -20 -20 -17 -5 3 -10
-3 -10 -13 0 -11 -7 -25 -15 -32 -8 -7 -15 -22 -15 -34 0 -11 -7 -30 -15 -40
-8 -11 -15 -26 -15 -34 0 -7 -7 -20 -15 -28 -8 -9 -15 -28 -15 -43 0 -16 -7
-34 -15 -41 -9 -8 -15 -30 -15 -60 0 -30 -6 -52 -15 -60 -8 -7 -15 -19 -15
-27 0 -24 -83 -163 -102 -171 -5 -2 -8 -10 -8 -18 0 -8 -7 -17 -15 -20 -8 -4
-15 -13 -15 -20 0 -8 -7 -17 -15 -20 -8 -4 -15 -14 -15 -24 0 -10 -8 -26 -17
-36 -18 -18 -19 -21 -22 -50 0 -8 -5 -12 -11 -9 -6 4 -10 -6 -10 -24 0 -37 -9
-62 -21 -55 -5 3 -9 -13 -9 -36 0 -27 -5 -43 -15 -46 -10 -4 -15 -20 -15 -44
0 -21 -3 -46 -7 -56 -6 -16 -7 -16 -14 2 -5 12 -8 -7 -8 -48 -1 -38 0 -69 2
-71 1 -2 -5 -14 -14 -27 -8 -14 -17 -50 -18 -80 -2 -30 -8 -61 -13 -68 -6 -7
-13 -38 -15 -70 -2 -31 -8 -61 -12 -67 -5 -5 -12 -29 -16 -52 -4 -24 -10 -45
-15 -48 -4 -3 -11 -29 -15 -60 -3 -30 -10 -57 -15 -60 -5 -3 -12 -27 -16 -53
-3 -26 -10 -51 -14 -57 -4 -5 -10 -32 -14 -59 -3 -27 -10 -54 -15 -60 -5 -6
-12 -40 -15 -76 -4 -35 -12 -70 -18 -78 -7 -7 -13 -35 -13 -60 -8 -193 -4
-278 12 -275 6 1 14 -20 18 -50 4 -29 11 -57 16 -62 4 -6 11 -26 14 -45 3 -19
10 -39 16 -45 5 -5 9 -17 9 -27 0 -9 6 -37 14 -60 8 -24 16 -55 18 -69 2 -15
8 -33 14 -40 22 -29 53 -103 47 -112 -3 -6 -1 -7 4 -4 6 4 16 -7 23 -23 7 -17
16 -30 21 -30 5 0 9 -9 9 -20 0 -23 29 -60 47 -60 7 0 13 -7 13 -15 0 -8 5
-15 11 -15 12 0 69 -58 69 -70 0 -4 9 -10 20 -13 11 -3 20 -12 20 -20 0 -8 11
-18 25 -21 14 -4 25 -13 25 -21 0 -8 9 -15 20 -15 10 0 24 -9 30 -20 6 -11 17
-20 26 -20 8 0 31 -18 51 -40 21 -22 45 -40 55 -40 10 0 21 -7 24 -15 3 -8 21
-17 40 -21 19 -3 34 -12 34 -20 0 -8 9 -14 20 -14 10 0 27 -8 37 -19 10 -10
28 -22 40 -25 13 -4 22 -12 20 -18 -1 -6 13 -16 31 -21 17 -5 32 -16 32 -23 0
-9 11 -14 30 -14 19 0 34 -7 42 -20 7 -11 18 -20 25 -20 7 0 18 -9 25 -20 7
-11 18 -20 25 -20 7 0 13 -9 13 -20 0 -13 7 -20 20 -20 11 0 20 -5 20 -11 0
-5 5 -7 10 -4 6 3 10 -1 10 -9 0 -11 10 -16 30 -16 18 0 33 -6 36 -15 3 -8 24
-20 45 -25 23 -6 39 -17 39 -25 0 -10 11 -15 32 -15 18 0 41 -9 52 -19 15 -14
41 -21 86 -25 60 -4 105 -12 105 -17 0 -3 37 -7 155 -14 63 -4 123 -12 134
-17 10 -6 35 -12 55 -13 20 -2 77 -7 126 -11 50 -5 151 -8 225 -7 74 1 192 3
263 4 70 1 127 5 127 9 0 9 42 6 59 -4 10 -6 12 -5 7 2 -8 13 26 17 38 4 4 -4
13 -7 19 -7 7 0 13 -6 13 -12 4 -37 4 -38 14 -23 8 11 9 9 6 -10 -3 -14 -5
-29 -5 -33 -1 -5 -7 -5 -13 -1 -7 4 -10 4 -7 0 4 -4 -2 -30 -12 -59 -10 -28
-19 -59 -19 -69 0 -9 -7 -23 -15 -32 -8 -8 -15 -25 -15 -37 0 -21 -1 -21 -19
-5 -17 15 -19 15 -25 1 -4 -11 -2 -14 7 -9 6 4 5 -1 -3 -12 -9 -10 -17 -32
-19 -49 -2 -16 -8 -33 -15 -37 -6 -4 -11 -11 -11 -15 0 -4 -10 -22 -22 -39
-12 -17 -20 -34 -17 -37 3 -3 -4 -3 -15 0 -15 4 -21 1 -19 -8 2 -8 -2 -13 -8
-12 -6 1 -11 -5 -12 -13 -1 -8 -3 -21 -4 -29 -1 -10 -7 -14 -16 -10 -12 4 -12
3 -3 -9 8 -10 9 -16 1 -21 -5 -3 -10 -15 -10 -26 0 -11 -4 -18 -9 -14 -6 3 -8
-4 -6 -15 2 -11 -1 -20 -6 -20 -6 0 -7 -4 -4 -10 3 -5 1 -18 -4 -27 -6 -11
-11 -13 -11 -5 0 17 -40 -3 -40 -20 0 -6 -17 -27 -37 -46 -21 -20 -32 -32 -25
-28 6 4 12 5 12 2 0 -3 -10 -10 -21 -17 -15 -7 -19 -8 -15 0 5 7 1 9 -9 5 -11
-5 -13 -10 -5 -19 8 -10 4 -18 -15 -33 -14 -11 -25 -25 -25 -32 0 -6 -5 -8
-11 -4 -7 4 -10 1 -7 -7 3 -8 -2 -20 -11 -27 -12 -10 -13 -12 -1 -6 13 7 13 5
1 -9 -7 -9 -18 -14 -25 -10 -6 4 -5 -1 3 -10 12 -15 12 -17 -3 -11 -9 4 -16 3
-15 -2 3 -20 -2 -35 -10 -30 -5 4 -15 -7 -22 -23 -7 -16 -17 -27 -23 -24 -5 3
-6 1 -3 -5 9 -14 -3 -43 -14 -36 -5 3 -6 -3 -2 -12 4 -12 3 -15 -6 -10 -6 4
-11 4 -10 -1 4 -23 -3 -43 -26 -67 -13 -14 -21 -26 -18 -26 3 0 -4 -8 -15 -19
-12 -10 -18 -22 -14 -26 4 -5 -2 -5 -12 -1 -16 5 -17 4 -6 -9 9 -11 9 -15 1
-15 -7 0 -9 -4 -6 -10 3 -5 1 -10 -5 -10 -6 0 -9 -4 -6 -9 3 -5 -1 -14 -9 -21
-8 -7 -12 -16 -9 -21 3 -5 1 -9 -5 -9 -5 0 -12 -14 -16 -30 -4 -19 -11 -28
-18 -23 -7 4 -5 -2 3 -12 9 -11 10 -16 3 -11 -9 5 -13 1 -13 -13 0 -11 -13
-40 -30 -64 -16 -25 -30 -49 -30 -55 0 -5 -7 -15 -15 -22 -8 -7 -15 -21 -15
-30 0 -10 -8 -33 -17 -52 -9 -18 -22 -45 -30 -60 -7 -14 -13 -35 -13 -46 0
-11 -4 -22 -9 -24 -5 -1 -12 -21 -15 -42 -4 -22 -12 -46 -18 -54 -15 -18 -16
-233 -1 -265 6 -12 21 -55 33 -94 12 -40 26 -73 31 -73 5 0 9 -11 9 -25 0 -15
6 -38 14 -53 8 -15 17 -58 20 -97 4 -38 7 -75 8 -82 1 -7 5 -10 10 -7 4 3 8 1
8 -4 0 -5 21 -15 46 -21 34 -9 44 -16 40 -26 -4 -12 4 -15 34 -15 21 0 41 -4
45 -10 3 -5 13 -6 22 -3 12 5 14 3 8 -8 -5 -8 -4 -11 0 -6 13 11 15 69 4 83
-7 8 -6 14 1 19 5 3 10 14 10 24 0 10 7 24 15 31 8 7 15 22 16 34 0 12 7 1 14
-24 15 -46 10 -124 -6 -114 -5 3 -9 2 -7 -3 4 -18 -14 -93 -23 -88 -5 3 -12
-12 -15 -35 -4 -22 -11 -43 -15 -46 -5 -3 -9 -23 -9 -44 0 -21 -5 -51 -11 -67
-14 -36 -15 -44 -24 -128 -6 -50 -10 -64 -16 -50 -5 13 -8 -3 -8 -45 -1 -74
-9 -112 -22 -104 -5 3 -9 -28 -9 -68 0 -45 -6 -84 -15 -102 -9 -16 -15 -55
-15 -91 0 -38 -5 -69 -13 -77 -7 -7 -14 -44 -16 -83 -1 -38 -9 -83 -16 -100
-7 -16 -13 -52 -14 -80 -2 -58 -9 -87 -20 -80 -4 2 -9 -28 -10 -67 -1 -39 -7
-80 -13 -91 -6 -11 -13 -55 -15 -96 -3 -42 -10 -82 -16 -89 -5 -7 -12 -47 -15
-90 -2 -42 -8 -82 -13 -88 -5 -6 -11 -55 -13 -108 -3 -58 -10 -104 -18 -114
-11 -13 -11 -14 2 -7 12 7 13 6 3 -6 -8 -9 -14 -68 -17 -157 -3 -77 -9 -149
-14 -159 -5 -10 -12 -72 -16 -138 -3 -66 -11 -121 -16 -123 -6 -2 -10 -27 -10
-56 0 -69 -11 -147 -20 -141 -3 2 -8 -22 -9 -53 -3 -82 -11 -145 -20 -157 -5
-5 -11 -67 -14 -138 -3 -85 -9 -133 -18 -144 -12 -14 -12 -16 1 -8 12 7 13 6
4 -6 -7 -8 -14 -84 -17 -187 -4 -94 -10 -180 -15 -190 -12 -25 -16 -372 -4
-372 10 0 19 -41 24 -110 1 -19 7 -38 11 -41 5 -4 12 -28 14 -55 3 -27 9 -53
13 -59 14 -17 50 -133 50 -160 0 -14 4 -25 9 -25 5 0 12 -19 16 -42 4 -24 10
-47 13 -53 7 -11 10 -24 15 -68 2 -15 9 -33 15 -39 7 -7 12 -19 12 -28 0 -8 8
-26 17 -39 12 -18 13 -22 2 -16 -11 7 -12 6 -2 -6 6 -8 13 -23 15 -34 1 -11 8
-24 15 -30 6 -5 13 -21 15 -35 2 -14 9 -29 15 -35 7 -5 14 -24 15 -42 1 -17 6
-29 10 -27 4 3 12 -6 17 -19 6 -14 15 -28 20 -32 6 -3 11 -15 11 -26 0 -10 7
-19 15 -19 8 0 15 -8 15 -17 0 -10 7 -27 15 -37 8 -11 15 -28 15 -38 0 -10 5
-18 12 -18 6 0 8 -3 5 -7 -4 -3 4 -21 18 -39 14 -18 25 -39 25 -47 0 -8 7 -18
16 -21 8 -3 13 -10 10 -15 -4 -5 1 -16 9 -25 8 -8 18 -29 21 -45 4 -17 10 -31
13 -31 4 0 18 -19 30 -42 13 -24 33 -61 46 -83 13 -22 24 -48 24 -57 1 -9 7
-23 15 -30 10 -11 15 -56 20 -169 6 -173 7 -179 16 -179 4 0 8 -32 9 -71 1
-39 8 -87 16 -105 7 -18 15 -75 16 -126 2 -51 6 -98 10 -103 15 -21 19 -73 20
-285 1 -118 5 -204 8 -190 7 24 8 23 13 -10 3 -19 6 -90 7 -157 1 -85 6 -131
16 -150 10 -18 15 -59 15 -113 0 -54 5 -95 14 -112 8 -16 16 -62 17 -105 1
-43 6 -81 12 -84 5 -4 12 -44 14 -90 3 -46 8 -88 13 -94 4 -5 11 -30 15 -55 4
-25 13 -52 19 -60 7 -8 14 -33 15 -55 2 -22 7 -43 13 -46 5 -3 11 -32 13 -63
2 -32 8 -63 14 -70 6 -7 13 -46 16 -86 2 -40 9 -78 14 -84 5 -6 12 -46 16 -88
4 -43 10 -78 14 -78 5 0 11 -33 14 -74 3 -41 10 -82 15 -93 5 -10 12 -58 15
-106 3 -48 10 -94 16 -100 5 -7 11 -71 12 -142 0 -80 5 -136 13 -144 9 -12 8
-13 -4 -7 -11 6 -11 4 1 -6 12 -10 17 -34 18 -98 1 -47 7 -91 14 -99 10 -12 9
-13 -3 -6 -13 7 -13 6 -2 -7 16 -20 20 -43 23 -123 1 -36 5 -65 9 -65 11 0 19
-54 21 -137 1 -40 6 -73 11 -73 4 0 8 -5 8 -11 0 -5 -5 -7 -11 -3 -6 3 -4 -4
5 -17 11 -18 16 -54 17 -144 1 -66 6 -131 11 -145 6 -14 14 -68 18 -120 7 -82
15 -135 20 -135 1 0 3 -20 6 -45 6 -66 12 -112 18 -138 13 -50 15 -66 17 -142
1 -44 6 -77 10 -74 5 3 9 -10 10 -28 0 -18 2 -41 4 -52 2 -10 5 -62 7 -116 1
-54 6 -96 10 -94 5 3 9 -7 9 -23 5 -99 8 -122 17 -140 6 -10 14 -55 17 -99 4
-43 10 -81 13 -84 4 -3 8 -16 10 -30 6 -56 20 -157 27 -184 3 -16 8 -61 10
-99 1 -38 7 -72 13 -76 5 -3 12 -44 14 -89 3 -46 9 -87 15 -90 5 -4 11 -29 12
-57 4 -77 9 -105 18 -118 5 -7 10 -30 11 -52 3 -59 13 -119 23 -131 5 -6 9
-52 10 -104 1 -57 4 -87 10 -79 6 10 9 7 10 -11 0 -14 2 -34 4 -45 2 -11 5
-41 6 -67 2 -26 6 -45 10 -43 10 7 19 -34 19 -93 0 -35 5 -54 13 -58 9 -3 15
-26 16 -66 1 -34 9 -74 17 -89 8 -15 14 -53 14 -84 0 -35 4 -54 10 -50 5 3 10
0 11 -7 3 -61 25 -203 34 -218 2 -3 5 -45 6 -92 2 -48 6 -85 10 -82 4 2 10
-35 13 -83 8 -103 12 -150 25 -253 6 -41 10 -112 11 -157 0 -45 4 -93 9 -107
6 -13 12 -84 16 -158 3 -73 7 -140 9 -148 1 -8 6 -26 9 -40 3 -14 9 -56 12
-94 3 -38 9 -74 14 -80 5 -6 11 -40 12 -76 2 -36 7 -68 12 -71 10 -7 16 -42
19 -106 2 -28 6 -49 10 -47 8 5 23 -66 22 -98 -1 -10 2 -15 6 -13 12 7 20 -21
20 -68 0 -23 7 -51 15 -61 8 -11 15 -36 15 -57 0 -20 7 -50 15 -65 8 -16 14
-52 14 -80 -1 -28 4 -61 12 -75 7 -13 13 -29 14 -35 0 -6 8 -18 18 -28 9 -10
17 -24 17 -32 0 -8 5 -14 12 -14 6 0 9 -3 5 -6 -3 -3 3 -21 13 -40 11 -18 17
-41 14 -49 -4 -8 -2 -15 3 -15 5 0 8 -13 7 -30 -1 -16 2 -30 7 -30 5 0 15 -16
23 -35 l15 -35 4405 0 4406 0 0 31 c0 16 -4 28 -9 25 -10 -6 -21 40 -21 88 0
17 -7 40 -15 50 -8 11 -15 30 -15 43 0 13 -4 23 -9 23 -5 0 -12 19 -16 41 -4
23 -14 57 -21 75 -8 18 -14 46 -14 61 0 21 -3 24 -9 14 -7 -10 -12 0 -17 35
-5 27 -8 59 -7 72 1 12 -2 20 -7 17 -18 -11 -16 170 2 192 12 14 9 282 -3 305
-6 12 -6 18 1 18 5 0 10 12 9 28 l-1 27 -8 -25 c-6 -17 -8 1 -7 57 1 44 -1 79
-5 77 -7 -5 -15 140 -10 199 2 20 6 35 10 33 4 -2 7 42 7 99 0 57 -3 101 -7
99 -5 -3 -3 26 2 34 2 1 3 6 4 11 0 5 4 13 8 17 4 4 2 14 -5 22 -10 13 -9 15
4 10 9 -4 16 -1 16 7 0 7 -6 11 -12 9 -6 -3 -12 2 -12 11 0 9 6 14 12 11 6 -2
12 2 12 9 0 7 -6 11 -12 9 -8 -3 -11 10 -8 43 4 67 5 70 20 70 9 0 10 -4 2
-13 -6 -7 -6 -14 -1 -18 6 -3 13 6 17 22 11 39 13 72 4 66 -4 -2 -11 1 -15 8
-4 7 -4 10 1 6 11 -10 36 12 29 24 -17 27 -13 274 4 264 4 -2 8 24 9 57 2 95
13 200 22 212 4 5 8 48 9 95 3 146 14 283 22 270 4 -7 10 33 12 89 2 60 8 105
14 109 6 4 13 42 16 86 3 43 10 81 15 85 6 3 11 54 12 114 1 60 7 121 12 135
6 15 14 140 19 278 4 139 11 258 15 265 5 7 12 56 15 108 4 53 10 107 14 121
3 14 9 66 13 117 3 51 9 91 12 88 8 -4 9 -2 18 170 5 77 11 145 15 150 3 6 9
69 13 140 4 72 11 137 15 145 4 8 10 57 13 108 4 51 10 98 13 104 4 6 11 51
15 101 5 49 14 96 20 103 6 8 14 33 16 57 2 23 8 53 13 67 4 14 11 50 14 80 3
30 10 56 16 58 5 2 10 27 10 55 0 63 10 104 20 87 4 -7 8 19 9 57 2 84 10 135
22 127 5 -3 9 36 9 88 0 51 5 111 11 133 6 22 14 77 18 123 4 45 13 88 19 94
7 7 12 39 12 73 0 33 6 69 13 80 7 11 14 36 16 55 2 19 8 44 14 55 5 11 12 38
14 60 2 22 8 51 13 65 5 14 14 50 19 80 18 99 33 165 41 181 5 9 11 41 15 72
4 31 11 54 16 51 5 -3 9 -2 7 3 -4 20 15 184 23 189 5 3 9 22 9 42 0 20 5 55
11 77 6 22 15 75 20 119 5 43 13 84 18 90 4 6 11 40 14 75 3 35 10 68 16 74 6
6 11 42 11 80 0 37 5 78 12 90 7 12 15 60 18 106 4 51 11 86 18 89 8 2 12 31
12 82 0 84 7 120 20 100 4 -7 8 24 9 69 2 84 8 114 21 106 4 -3 8 45 9 107 1
74 7 120 16 139 8 15 15 38 15 51 0 13 7 32 15 42 8 11 15 28 15 38 0 9 9 22
20 28 11 6 18 15 15 19 -2 5 2 14 10 21 8 7 15 19 15 27 0 8 5 11 10 8 6 -4 9
-3 8 2 -5 18 14 87 28 100 8 8 14 25 14 38 0 13 7 28 16 33 9 5 15 12 15 15
-3 24 0 37 9 32 6 -4 9 -3 8 2 -5 18 13 133 21 133 5 0 10 36 13 79 3 44 9 86
15 93 5 7 11 33 12 58 3 63 11 104 20 110 4 3 11 17 14 32 4 15 13 33 20 40 8
7 12 24 11 36 -3 14 1 22 11 22 8 0 15 7 15 15 0 9 11 20 24 26 13 6 27 20 29
31 4 12 10 17 17 13 7 -4 14 2 17 14 3 12 12 21 19 21 8 0 14 6 14 14 0 7 18
28 40 47 22 19 40 40 40 47 0 6 6 12 14 12 7 0 16 9 19 20 3 11 12 20 21 20 9
0 16 7 16 15 0 8 4 15 8 15 5 0 23 20 42 45 19 25 40 45 47 45 7 0 13 7 13 15
0 9 7 18 16 22 20 7 64 51 64 63 0 5 9 12 20 15 11 3 20 12 20 20 0 7 11 16
25 19 14 4 25 13 25 21 0 13 12 19 32 16 4 0 5 6 1 15 -4 10 2 17 16 21 11 3
21 9 21 13 0 12 59 70 71 70 5 0 9 5 9 11 0 6 17 27 38 48 51 51 102 111 102
121 0 5 9 12 20 15 11 3 20 12 20 20 0 7 7 15 15 19 8 3 15 12 15 21 0 8 7 15
15 15 8 0 15 5 15 10 0 6 20 30 45 54 25 25 45 49 45 56 0 6 5 8 10 5 6 -4 9
-2 8 4 -4 15 35 71 50 71 6 0 12 7 12 15 0 9 7 18 15 21 8 4 15 10 15 14 0 12
98 110 110 110 6 0 10 6 10 14 0 16 27 29 41 21 5 -4 6 1 3 9 -3 9 3 19 16 26
20 10 31 20 81 65 9 8 20 15 26 15 5 0 20 9 33 20 20 17 47 25 72 21 5 0 7 4
5 11 -1 6 7 16 19 22 11 6 28 19 38 29 10 9 24 17 32 17 8 0 14 7 14 15 0 8
12 18 28 21 15 4 32 14 37 21 6 8 24 15 41 17 30 2 40 9 113 79 22 20 45 37
53 37 7 0 19 9 26 20 7 11 17 20 23 20 14 0 53 41 62 65 4 9 11 13 17 10 6 -4
10 5 10 19 0 14 4 26 9 26 15 0 34 68 27 95 -3 14 -7 54 -7 91 -1 37 -5 61 -9
54 -8 -13 -20 19 -20 56 0 12 -7 24 -15 28 -9 3 -15 18 -15 38 0 18 -7 42 -15
52 -8 11 -15 37 -15 58 0 21 -4 38 -9 38 -6 0 -13 20 -17 45 -3 25 -10 45 -14
45 -5 0 -11 18 -15 40 -4 22 -11 38 -16 34 -5 -3 -9 5 -9 16 0 12 -6 36 -13
53 -20 47 -37 97 -51 145 -6 24 -15 40 -19 36 -4 -4 -7 1 -7 12 0 10 -7 32
-15 48 -9 16 -17 46 -18 67 -1 20 -5 35 -9 33 -4 -2 -9 4 -12 13 -9 31 -20 98
-18 106 1 5 -2 6 -8 2 -6 -4 -10 6 -10 24 0 20 -5 30 -12 28 -8 -1 -14 12 -16
35 -2 20 -10 42 -18 48 -8 7 -14 23 -14 35 0 12 -7 39 -15 58 -8 20 -15 49
-15 65 0 15 -6 34 -12 41 -9 10 -9 12 -1 7 7 -4 6 4 -3 24 -8 16 -16 39 -17
50 -1 11 -5 20 -9 20 -10 0 -48 88 -48 111 0 11 -4 19 -9 19 -5 0 -13 25 -16
55 -4 30 -11 55 -16 55 -4 0 -11 16 -15 35 -3 19 -10 35 -15 35 -5 0 -9 8 -9
18 0 9 -7 26 -15 36 -8 11 -15 29 -15 41 0 11 -6 29 -14 40 -7 11 -16 36 -19
56 -2 19 -9 45 -16 56 -6 12 -11 30 -11 41 0 11 -7 25 -15 32 -8 7 -15 24 -15
39 0 14 -7 35 -15 45 -8 11 -15 34 -15 50 -1 17 -7 42 -15 56 -8 14 -15 43
-15 65 0 22 -7 49 -15 59 -8 11 -15 33 -15 49 0 15 -7 35 -15 43 -8 9 -15 33
-15 55 0 23 -7 47 -15 55 -8 9 -15 27 -15 42 -1 15 -7 38 -15 52 -8 14 -14 51
-15 83 0 35 -4 56 -10 52 -5 -3 -12 7 -15 22 -4 15 -10 35 -14 43 -5 9 -12 31
-15 50 -4 19 -14 49 -21 66 -8 17 -16 45 -17 62 -1 17 -5 29 -9 26 -3 -2 -10
15 -13 39 -8 51 -38 141 -48 145 -5 2 -8 14 -8 26 0 12 -6 31 -14 42 -8 11
-17 37 -21 57 -4 21 -11 40 -16 43 -5 3 -9 15 -9 27 0 13 -9 47 -19 77 -11 30
-17 59 -14 64 4 5 1 6 -5 2 -7 -4 -14 4 -18 21 -3 15 -12 42 -19 58 -39 91
-45 109 -45 141 0 20 -7 42 -15 50 -8 9 -15 32 -15 52 0 26 -3 33 -9 23 -7
-11 -11 -5 -17 24 -4 21 -13 50 -20 64 -8 14 -14 36 -14 49 0 12 -4 22 -9 22
-5 0 -12 19 -16 42 -8 43 -10 50 -38 106 -9 19 -17 39 -17 47 0 7 -7 18 -15
25 -8 7 -17 27 -21 46 -3 19 -10 37 -15 40 -5 3 -9 15 -9 27 0 12 -7 35 -15
51 -8 15 -15 35 -15 44 0 8 -7 23 -15 32 -8 9 -16 28 -17 43 -1 15 -8 29 -15
31 -7 3 -13 14 -13 24 0 10 -7 27 -15 38 -8 10 -15 31 -15 46 0 35 -10 59 -21
52 -5 -3 -9 9 -9 26 0 17 -4 29 -9 26 -10 -7 -21 17 -21 45 0 11 -4 18 -9 15
-10 -7 -21 16 -21 44 0 9 -7 23 -15 30 -9 7 -15 29 -15 52 0 21 -4 37 -9 34
-11 -7 -23 52 -14 68 3 6 3 8 -2 4 -16 -15 -35 15 -35 54 0 21 -4 37 -9 34 -5
-4 -12 8 -16 25 -4 17 -13 42 -21 57 -8 15 -14 32 -14 38 0 20 -36 85 -43 78
-4 -4 -7 -1 -7 7 0 8 -6 25 -13 39 -22 44 -47 114 -49 142 -1 15 -4 25 -6 23
-3 -2 -19 17 -36 43 -17 26 -34 49 -38 50 -5 2 -8 10 -8 18 0 8 -7 17 -15 20
-8 4 -15 14 -15 24 0 10 -5 20 -10 22 -6 2 -3 19 9 43 11 22 21 36 21 30 1 -5
5 0 10 12 8 20 15 21 157 23 192 2 222 5 258 24 17 9 48 16 71 16 27 0 49 7
64 20 13 12 37 20 57 20 19 0 46 9 61 20 17 12 46 20 79 21 29 2 50 6 47 10
-8 14 34 29 81 29 26 0 44 4 40 9 -7 12 4 19 40 25 16 3 33 12 37 21 5 8 15
15 22 15 7 0 25 11 40 25 15 14 31 23 36 20 5 -3 14 3 19 14 6 11 20 23 32 26
27 9 50 28 120 98 32 31 62 57 67 57 6 0 21 17 33 38 13 20 27 39 31 40 4 2 8
9 8 15 0 15 47 67 61 67 6 0 8 4 4 9 -3 5 -1 12 4 15 4 3 21 30 36 59 15 30
37 65 49 78 36 40 56 77 56 103 0 14 4 27 9 30 5 4 28 43 52 89 23 45 49 89
58 97 9 8 16 20 17 25 2 27 18 76 25 81 5 3 9 14 9 25 0 10 5 19 10 19 6 0 10
9 10 20 0 11 5 20 10 20 6 0 10 8 10 18 0 21 26 108 40 134 5 9 13 35 16 58 4
22 11 43 15 46 5 3 9 15 9 27 0 12 6 34 14 49 8 14 17 45 21 67 4 23 11 43 16
47 5 3 9 33 9 67 0 36 6 71 14 82 7 11 16 58 19 104 4 47 11 87 15 90 5 3 12
37 15 76 3 38 10 71 16 73 6 2 11 14 11 26 0 12 6 28 13 35 9 11 9 13 0 7 -7
-4 -13 -3 -13 1 0 5 6 15 13 22 6 8 7 11 1 8 -7 -4 -8 8 -3 41 23 136 35 256
34 334 -1 48 1 86 4 84 3 -2 8 91 9 208 2 116 6 274 9 351 8 206 9 624 2 619
-5 -3 -21 261 -23 388 -1 25 -4 44 -7 42 -4 -2 -9 69 -12 159 -3 89 -8 180
-11 202 -3 22 -8 84 -12 138 -3 54 -10 95 -15 91 -5 -3 -9 7 -10 23 0 15 -2
39 -4 53 -2 14 -6 57 -8 96 -3 39 -10 81 -16 92 -6 11 -11 58 -11 104 0 49 -5
89 -11 95 -6 6 -15 60 -20 120 -10 122 -35 316 -39 293 -4 -27 -19 64 -19 120
-1 31 -6 61 -12 67 -6 6 -13 51 -16 100 -3 48 -9 93 -14 99 -5 6 -11 42 -15
80 -4 38 -10 77 -15 86 -5 9 -9 34 -9 55 0 21 -7 52 -16 68 -15 29 -25 71 -44
188 -6 32 -14 67 -20 77 -5 10 -10 35 -10 55 0 19 -7 52 -15 72 -8 19 -15 61
-15 92 0 34 -4 51 -9 43 -11 -18 -21 7 -21 51 0 18 -7 41 -15 51 -8 11 -15 41
-15 67 0 25 -7 63 -15 82 -8 20 -15 65 -15 100 0 36 -7 81 -15 100 -8 20 -15
49 -15 65 0 16 -7 35 -15 42 -8 7 -15 25 -15 40 0 16 -7 30 -15 34 -8 3 -15
14 -15 24 0 11 -7 36 -15 55 -8 20 -15 52 -15 71 0 19 -4 36 -10 38 -5 2 -11
31 -12 64 -2 35 -7 59 -12 56 -5 -3 -6 2 -3 12 4 9 3 15 -2 11 -9 -5 -28 79
-23 98 1 5 -2 6 -8 2 -6 -3 -10 4 -11 17 -3 69 3 494 8 501 2 4 -1 33 -8 65
-6 31 -12 62 -12 69 0 7 -4 10 -9 7 -7 -4 -12 31 -11 73 0 7 -4 11 -11 10 -6
-1 -11 8 -10 20 0 12 -4 21 -10 20 -5 -1 -16 12 -24 28 -8 17 -19 33 -25 36
-5 4 -4 27 3 61 7 32 10 85 7 129 -12 155 -25 257 -36 277 -6 11 -11 46 -11
77 0 53 -19 153 -42 220 -6 17 -13 48 -17 70 -4 22 -13 50 -19 62 -7 12 -12
34 -12 50 0 15 -7 37 -15 47 -8 11 -15 34 -15 50 0 17 -7 40 -15 50 -8 11 -15
32 -15 48 0 15 -4 28 -9 28 -10 0 -34 38 -47 73 -3 9 -10 17 -15 17 -5 0 -9
12 -9 26 0 15 -4 23 -11 19 -6 -4 -13 2 -16 13 -2 11 -13 22 -24 25 -10 3 -19
12 -19 21 0 9 -7 16 -15 16 -8 0 -15 7 -15 15 0 8 -5 15 -10 15 -6 0 -15 11
-20 25 -5 14 -16 28 -25 31 -8 3 -12 10 -9 15 3 5 2 9 -3 8 -16 -4 -43 13 -43
27 0 8 -6 14 -14 14 -8 0 -21 9 -29 20 -7 10 -26 24 -41 30 -15 5 -24 14 -21
20 3 5 -2 10 -12 11 -38 1 -66 10 -77 23 -6 8 -36 16 -68 19 -31 3 -67 12 -80
20 -12 8 -53 17 -91 20 -37 2 -75 11 -84 18 -10 9 -57 16 -132 20 -125 7 -146
10 -158 24 -4 4 -1 5 7 0 10 -5 12 -5 5 2 -5 6 -63 13 -128 15 -65 2 -122 9
-125 14 -11 15 -29 17 -203 23 -109 4 -171 10 -181 18 -8 7 -46 16 -84 21 -45
5 -68 12 -66 20 1 7 -1 11 -5 10 -16 -4 -119 13 -133 22 -8 5 -10 10 -5 10 23
1 -22 20 -47 20 -37 0 -59 10 -51 24 4 6 -1 5 -10 -3 -9 -7 -17 -9 -17 -4 0 5
-6 10 -12 11 -7 1 -47 5 -88 8 -41 4 -84 13 -95 19 -11 7 -44 15 -74 19 -30 3
-61 12 -71 21 -9 8 -26 15 -38 15 -24 0 -72 20 -72 30 0 4 -6 7 -12 7 -82 6
-145 16 -158 26 -8 7 -44 14 -80 16 -67 3 -110 14 -110 29 0 4 -21 9 -47 11
-26 1 -62 11 -79 22 -17 10 -46 19 -64 19 -19 0 -42 7 -51 16 -12 11 -44 18
-91 21 -40 3 -83 12 -96 19 -12 8 -52 18 -88 21 -36 3 -71 12 -79 19 -7 7 -36
16 -65 20 -28 4 -54 12 -57 19 -2 7 -25 16 -49 20 -25 3 -54 15 -65 26 -12 12
-33 19 -58 19 -22 0 -46 6 -53 14 -8 7 -34 16 -59 20 -24 3 -49 13 -55 21 -6
8 -21 15 -32 15 -34 0 -74 19 -66 32 4 6 3 8 -3 5 -16 -10 -83 12 -83 27 0 8
-17 16 -40 20 -26 4 -40 11 -40 21 0 10 -10 15 -29 15 -15 0 -40 9 -54 20 -14
11 -35 20 -47 20 -13 0 -24 8 -27 18 -3 11 -15 19 -35 20 -37 3 -50 10 -43 23
4 5 -5 13 -19 19 -15 5 -25 15 -24 21 2 6 -8 12 -23 14 -30 4 -119 85 -119
109 0 9 -4 15 -8 12 -12 -7 -102 80 -102 98 0 9 -7 16 -15 16 -8 0 -15 6 -15
13 0 7 -8 19 -17 28 -10 8 -36 37 -58 63 -22 27 -50 60 -63 75 -26 29 -82 107
-82 114 0 2 -16 22 -35 43 -19 21 -35 44 -35 51 0 7 -4 13 -8 13 -11 0 -78 99
-87 128 -3 12 -11 22 -16 22 -5 0 -9 7 -9 15 0 8 -7 15 -15 15 -8 0 -15 7 -15
15 0 8 -17 32 -37 53 -72 73 -104 112 -99 121 3 5 -5 12 -19 15 -16 4 -25 13
-25 26 0 11 -3 19 -7 18 -14 -4 -53 13 -53 23 0 5 -8 9 -18 9 -10 0 -29 12
-43 28 -21 23 -24 36 -22 92 2 46 7 68 18 76 9 7 16 15 16 18 -5 39 1 186 7
183 4 -3 8 7 9 21 7 111 15 199 20 212 8 21 11 43 17 130 4 41 9 85 11 97 5
22 49 73 63 73 7 0 45 37 79 76 24 27 53 82 53 99 0 7 6 18 14 24 10 9 16 39
18 101 2 48 0 86 -3 84 -4 -2 -12 18 -18 44 -7 26 -17 61 -23 77 -19 54 -21
94 -5 119 13 20 16 69 17 308 0 156 4 306 8 333 9 53 8 102 -2 199 -6 57 -17
97 -52 201 -8 23 -14 53 -14 68 0 15 -4 27 -9 27 -5 0 -15 26 -21 58 -7 31
-18 61 -26 65 -8 4 -14 12 -14 17 0 12 -44 56 -64 63 -9 4 -16 13 -16 21 0 8
-13 17 -30 21 -17 4 -28 10 -25 15 3 4 -5 10 -18 14 -32 8 -31 7 -44 25 -7 9
-13 12 -13 6 0 -5 -9 10 -20 33 -18 40 -19 99 -1 88 3 -2 7 6 7 17 2 21 10 59
14 65 5 6 7 28 14 224 5 115 12 205 17 202 5 -3 9 11 9 31 0 25 -4 34 -12 29
-7 -4 -8 -3 -4 5 10 15 15 462 6 481 -4 8 -11 47 -14 86 -4 39 -9 81 -11 93
-3 11 -7 31 -10 44 -2 12 -8 36 -11 52 -4 17 -6 48 -5 70 1 30 -1 36 -8 25 -7
-9 -11 -10 -11 -3 0 6 5 15 11 19 8 4 7 9 -2 15 -10 6 -11 9 -1 9 7 0 12 14
12 36 0 25 -4 33 -12 28 -10 -6 -10 -4 0 7 6 7 12 22 11 34 0 19 -1 19 -8 0
-6 -14 -10 -3 -15 39 -3 31 -3 62 0 68 4 6 2 8 -3 5 -6 -4 -14 4 -17 16 -3 13
-19 39 -36 58 -16 19 -32 42 -36 52 -3 9 -9 15 -13 12 -5 -2 -19 15 -32 39
-13 25 -26 43 -30 40 -6 -3 -10 6 -18 38 0 5 -10 23 -20 41 -10 18 -21 55 -25
82 -8 61 -37 146 -47 140 -7 -5 -22 33 -20 48 1 5 -2 6 -6 4 -5 -3 -23 15 -40
39 -19 24 -29 46 -23 49 6 3 10 12 10 18 0 9 -2 9 -8 0 -6 -9 -11 -6 -21 8
-10 17 -10 20 1 14 7 -3 4 1 -6 9 -11 9 -16 16 -10 16 5 0 -5 8 -21 19 -27 16
-74 71 -61 71 3 0 -5 11 -17 24 -39 42 -46 54 -39 62 4 4 2 4 -4 1 -12 -7 -46
28 -36 38 4 4 1 5 -7 3 -8 -2 -24 11 -35 29 -20 31 -44 47 -31 21 4 -7 -1 -4
-10 7 -9 11 -19 19 -23 19 -15 -3 -51 19 -46 27 3 5 -2 9 -11 9 -9 0 -28 12
-42 28 -15 15 -23 21 -19 14 7 -11 4 -11 -12 -1 -12 7 -19 16 -17 19 2 3 -6
12 -18 20 -21 12 -21 12 -7 -6 9 -12 4 -10 -13 5 -15 14 -27 20 -27 15 0 -5
-5 -1 -11 9 -5 9 -15 17 -20 17 -6 0 -7 -6 -3 -12 4 -7 -3 -3 -15 10 -12 12
-26 20 -32 17 -5 -4 -9 0 -9 8 0 8 -14 17 -32 21 -18 4 -43 18 -55 32 -13 16
-28 24 -37 21 -9 -4 -18 -1 -22 5 -4 7 -3 8 4 4 7 -4 10 -2 7 6 -3 7 -18 13
-34 14 -16 1 -37 8 -46 18 -9 9 -22 17 -28 17 -41 4 -77 18 -77 30 0 5 -9 9
-20 9 -11 0 -23 6 -26 14 -3 9 -12 12 -21 9 -11 -4 -14 -2 -9 5 5 8 -3 12 -23
12 -17 0 -31 5 -31 11 0 5 -5 7 -12 3 -6 -4 -16 0 -22 8 -8 10 -35 17 -85 20
-40 3 -76 10 -80 15 -3 6 -23 16 -43 22 -20 7 -38 17 -40 23 -2 5 -24 12 -48
15 -58 7 -90 19 -90 35 0 9 -3 8 -10 -2 -5 -8 -10 -10 -10 -5 0 13 -131 15
-180 2z m615 -915 c-3 -8 0 -10 7 -6 7 5 9 2 5 -8 -4 -12 -1 -14 14 -11 10 3
19 1 19 -4 0 -5 9 -19 20 -31 12 -12 18 -22 14 -22 -3 0 -1 -7 6 -15 7 -8 10
-22 6 -30 -3 -9 -2 -13 4 -10 6 3 23 -3 38 -13 19 -14 32 -18 44 -11 11 6 19
5 23 -1 5 -8 11 -8 20 0 9 7 15 7 19 1 4 -6 20 -5 45 4 22 7 48 12 58 10 10
-2 21 -4 24 -4 17 -3 81 -70 75 -80 -4 -6 -2 -12 3 -12 6 -1 16 -2 21 -3 6 0
25 -13 43 -27 17 -14 49 -31 70 -38 26 -9 46 -25 63 -52 14 -22 56 -70 94
-107 39 -37 70 -71 70 -74 0 -4 22 -39 48 -80 27 -40 56 -98 66 -128 10 -30
27 -75 38 -100 11 -25 30 -67 43 -95 12 -27 31 -70 41 -95 10 -25 26 -56 36
-69 10 -12 20 -39 23 -60 9 -50 24 -78 47 -84 15 -4 17 -9 10 -24 -6 -10 -12
-36 -13 -58 -4 -35 -1 -40 18 -43 15 -2 25 -12 29 -30 9 -43 13 -52 21 -51 25
4 33 -4 33 -35 0 -42 -25 -52 -57 -23 -22 20 -23 20 -23 1 0 -22 7 -32 39 -59
16 -13 22 -15 17 -5 -4 8 0 6 8 -4 15 -18 21 -13 17 16 0 3 7 5 15 4 22 -3 35
-28 22 -43 -6 -7 -7 -13 -3 -13 4 0 2 -6 -4 -14 -10 -12 -8 -19 8 -35 12 -12
21 -25 21 -31 0 -5 11 -10 24 -10 34 0 39 -24 10 -49 -28 -24 -30 -41 -9 -82
9 -16 14 -33 11 -38 -3 -4 2 -20 10 -35 16 -33 17 -39 5 -31 -6 3 -8 -4 -5
-17 3 -13 6 -29 6 -35 1 -7 5 -13 10 -13 5 0 6 -4 3 -10 -3 -5 0 -10 7 -10 9
0 9 -3 -2 -10 -13 -9 -13 -10 0 -10 13 0 13 -2 1 -9 -12 -8 -13 -14 -3 -36 7
-14 16 -24 20 -21 4 2 8 -11 8 -29 0 -18 -5 -33 -10 -32 -14 3 -23 -44 -15
-78 7 -29 4 -194 -4 -225 -6 -23 -16 -67 -22 -94 -3 -13 -13 -26 -23 -28 -12
-3 -22 -18 -26 -39 -3 -18 -13 -40 -22 -50 -11 -12 -14 -34 -12 -82 l3 -66 33
27 c36 30 77 129 61 148 -5 6 -7 18 -3 25 10 23 72 70 94 72 11 1 20 8 21 17
0 11 2 12 6 1 3 -8 8 -9 12 -3 11 18 100 -13 135 -47 41 -40 81 -116 102 -196
69 -263 67 -246 66 -555 -2 -336 -9 -483 -28 -577 -18 -92 -18 -150 0 -160 16
-9 46 -103 46 -145 0 -77 -137 -263 -198 -270 -39 -4 -62 -56 -62 -139 0 -36
-4 -79 -9 -95 -5 -16 -14 -76 -21 -134 -16 -149 -16 -149 -40 -143 -24 6 -26
-5 -3 -22 15 -12 15 -17 0 -80 -9 -37 -24 -73 -32 -79 -22 -16 -65 -78 -65
-93 0 -8 12 -13 28 -13 31 0 72 -25 72 -43 0 -7 -5 -4 -11 6 -5 9 -15 17 -22
17 -8 0 -9 -3 -1 -8 15 -10 25 -70 29 -190 3 -56 9 -119 14 -140 18 -70 33
-256 27 -320 -5 -46 -19 -90 -48 -151 -38 -79 -71 -131 -212 -336 -71 -103
-233 -285 -253 -285 -5 0 -18 -10 -30 -22 -30 -34 -93 -89 -93 -82 0 4 -8 0
-17 -7 -14 -12 -16 -12 -9 1 4 8 0 6 -8 -4 -12 -15 -16 -16 -17 -5 0 10 -2 10
-6 2 -2 -7 -15 -13 -27 -13 -12 0 -28 -6 -35 -12 -8 -7 -11 -8 -8 -2 3 6 0 11
-8 11 -8 0 -12 -4 -9 -8 6 -11 -28 -28 -43 -22 -7 3 -13 9 -13 14 0 6 5 7 10
4 6 -3 10 1 10 10 0 9 4 14 9 10 5 -3 13 0 17 6 4 8 3 9 -4 5 -7 -4 -12 -1
-12 8 0 13 -4 14 -25 4 -14 -6 -25 -15 -25 -20 0 -4 -7 -8 -16 -8 -9 0 -46
-15 -83 -34 -36 -19 -91 -40 -121 -47 -30 -6 -84 -21 -120 -31 -36 -11 -103
-30 -150 -42 -47 -12 -95 -28 -107 -34 -12 -7 -35 -12 -51 -12 -16 0 -32 -3
-36 -7 -9 -9 -42 -15 -88 -17 -21 0 -38 -5 -38 -9 0 -5 -4 -6 -9 -2 -5 3 -13
0 -17 -6 -4 -8 -9 -7 -15 2 -7 12 -9 12 -9 0 0 -9 -4 -10 -12 -4 -7 5 -20 9
-28 8 -8 -1 -23 3 -32 7 -12 6 -18 5 -19 -4 0 -7 -3 -8 -5 -3 -2 6 -19 9 -38
7 -18 -2 -36 0 -39 5 -8 13 32 73 49 73 23 0 231 96 240 111 3 5 20 9 39 9 23
0 46 11 77 35 44 35 93 72 161 122 21 15 35 33 33 40 -9 23 24 77 64 105 l38
27 6 -25 c8 -31 41 -32 67 -1 25 30 24 52 -7 105 -18 30 -23 47 -16 54 8 8 13
3 18 -16 3 -14 10 -26 14 -26 4 0 10 -9 13 -20 5 -20 37 -29 37 -11 0 19 32
41 61 41 20 0 42 12 71 40 24 22 47 40 52 40 7 0 25 14 108 84 9 8 29 23 45
33 15 10 36 26 45 36 10 9 22 17 27 17 5 0 14 14 21 30 10 25 10 33 -1 47 -13
15 -11 16 14 11 22 -4 32 0 44 19 16 23 15 26 0 35 -24 13 -21 27 8 38 14 5
25 14 25 20 0 5 8 19 18 29 42 47 43 49 22 56 -11 4 -29 3 -40 0 -11 -4 -20
-2 -20 4 0 17 -30 13 -36 -4 -9 -22 -29 -18 -48 8 -15 22 -16 22 -31 3 -8 -11
-15 -28 -15 -38 0 -15 -6 -17 -37 -13 -33 5 -41 2 -57 -21 -19 -27 -19 -27 5
-44 20 -16 21 -20 10 -34 -8 -9 -22 -14 -31 -11 -23 7 -42 -12 -70 -70 -27
-56 -33 -59 -55 -35 -14 16 -16 23 -7 32 7 7 12 25 12 42 l0 29 -24 -22 c-14
-13 -28 -39 -33 -59 -5 -19 -14 -37 -22 -40 -9 -3 -11 2 -7 15 3 10 0 28 -8
38 -13 18 -14 18 -21 -4 -4 -13 -2 -28 4 -34 17 -17 14 -22 -23 -51 l-34 -26
1 59 c2 47 -3 66 -19 88 -26 34 -48 36 -52 4 -5 -31 -31 -72 -46 -70 -31 4
-36 -3 -36 -47 0 -37 -4 -47 -19 -51 -11 -3 -22 -12 -24 -22 -2 -9 -3 -2 -2
16 3 43 -2 46 -33 17 -25 -22 -42 -30 -42 -19 0 12 24 55 31 55 5 0 15 14 24
30 12 24 13 35 4 52 -12 22 -12 22 -41 -12 -24 -30 -31 -33 -47 -23 -20 12
-19 13 -36 -49 -6 -22 -8 -20 -14 11 -8 48 -23 48 -51 1 -18 -29 -30 -39 -43
-36 -11 3 -31 -7 -49 -25 -36 -34 -70 -37 -116 -9 -44 27 -55 25 -92 -12 l-32
-31 -33 18 c-34 18 -34 18 -66 -9 -24 -20 -34 -24 -45 -15 -8 6 -22 8 -36 3
-50 -17 -107 -6 -92 17 3 5 -1 9 -8 9 -10 0 -9 3 2 10 12 7 10 13 -12 33 -15
14 -29 22 -32 19 -3 -3 -6 0 -6 6 0 7 5 12 12 12 18 0 3 10 -31 20 -20 6 -33
5 -37 -2 -4 -6 -2 -8 3 -5 6 4 14 -1 17 -10 5 -12 9 -14 14 -6 5 7 11 3 19
-12 8 -19 8 -27 -3 -36 -11 -9 -14 -9 -14 0 0 7 -4 9 -10 6 -5 -3 -10 1 -10
10 0 10 5 13 13 9 7 -5 6 -1 -3 10 -8 11 -16 14 -18 7 -9 -26 -18 -8 -17 35 0
33 -4 48 -17 55 -10 6 -19 5 -23 -1 -4 -6 -11 -7 -17 -4 -7 4 -8 2 -4 -4 3 -6
-2 -16 -13 -21 -26 -14 -38 4 -35 51 1 28 -2 37 -16 41 -11 3 -23 21 -31 46
-6 22 -16 38 -20 35 -5 -3 -9 0 -9 6 0 6 -5 8 -10 5 -6 -4 -10 -3 -9 2 3 20
-2 27 -11 13 -9 -13 -10 -13 -10 0 0 13 -1 13 -10 0 -8 -13 -10 -12 -10 3 0
15 10 21 31 19 3 0 11 8 18 20 7 11 8 17 2 13 -15 -9 -14 8 2 24 8 10 8 12 0
7 -6 -3 -14 -2 -18 4 -3 5 -1 10 6 10 7 0 9 3 5 7 -4 5 -14 0 -21 -10 -13 -17
-14 -17 -21 5 -11 32 -10 29 -19 68 -7 29 -9 31 -17 15 -6 -16 -7 -14 -3 7 4
20 -2 34 -26 57 -25 25 -29 34 -19 46 13 16 4 39 -12 29 -7 -4 -8 -2 -4 5 4 6
11 9 16 6 5 -3 13 2 18 11 8 15 10 15 15 0 4 -10 3 -15 -1 -12 -4 2 -8 -4 -9
-14 -1 -10 6 -21 15 -25 13 -5 14 -4 5 6 -19 19 4 44 25 27 13 -11 14 -11 8 0
-5 9 -1 15 14 19 13 3 17 9 11 13 -8 4 -4 18 12 41 20 29 27 34 57 31 19 -2
42 -9 50 -15 13 -11 13 -10 0 7 -14 18 -13 19 5 13 20 -7 20 -7 1 8 -15 11
-16 15 -5 15 8 0 21 -6 29 -12 8 -7 6 -3 -4 9 -11 13 -16 32 -13 50 l4 28 2
-30 c0 -18 9 -35 21 -43 16 -10 20 -10 18 0 -2 7 3 12 10 10 8 -1 11 2 8 7 -3
5 9 16 27 25 19 9 25 16 15 16 -11 0 -18 8 -18 18 0 10 -3 22 -7 26 -4 3 -8
12 -9 19 -2 7 -5 24 -9 39 -3 15 -14 42 -25 60 -22 39 -32 85 -20 93 5 3 6 13
3 22 -4 10 -2 14 4 10 21 -13 9 30 -18 60 -33 38 -32 68 2 69 13 0 29 -2 34
-5 18 -10 35 -10 29 0 -3 5 -10 6 -16 3 -7 -4 -8 -2 -4 5 4 6 12 8 18 5 6 -4
18 3 28 16 15 20 15 26 4 50 -13 25 -18 26 -76 26 -65 -1 -93 -10 -83 -27 4
-5 1 -9 -4 -9 -6 0 -11 -5 -11 -11 0 -8 5 -8 15 1 8 7 13 16 10 20 -3 5 3 7
12 5 10 -1 23 2 30 7 8 6 10 4 8 -9 -2 -10 -4 -20 -5 -23 -1 -3 -1 -9 0 -15 1
-5 -2 -6 -7 -2 -4 5 -9 13 -9 18 -3 19 -4 20 -14 14 -7 -4 -6 -14 1 -28 9 -20
9 -21 -4 -4 -9 11 -18 14 -21 8 -4 -6 -14 -7 -23 -4 -12 5 -14 3 -8 -8 7 -11
5 -11 -11 1 -30 23 -34 33 -21 50 11 13 10 13 -7 0 -18 -14 -18 -13 -12 10 6
21 5 22 -4 7 -9 -14 -9 -22 1 -33 9 -12 10 -17 0 -27 -10 -9 -11 -8 -5 8 7 18
6 19 -12 5 -10 -8 -16 -10 -12 -6 4 5 3 15 -4 23 -8 10 -8 17 0 25 7 7 12 9
12 5 0 -4 9 2 19 12 15 15 34 19 88 20 87 1 130 9 150 27 7 7 29 15 49 19 21
3 56 15 78 25 23 10 58 24 78 31 21 7 35 15 32 18 -11 11 -109 9 -123 -3 -12
-9 -13 -8 -6 3 6 10 -3 8 -26 -6 -46 -27 -149 -32 -173 -7 -10 9 -15 23 -12
31 22 56 20 62 -30 84 -27 11 -64 22 -84 24 -19 2 -61 7 -92 10 -32 4 -60 10
-63 15 -3 5 10 34 30 65 19 30 35 63 35 72 0 9 11 31 25 48 13 18 21 36 17 41
-4 5 0 3 9 -4 23 -17 27 -7 18 44 -5 26 -7 50 -4 54 3 5 0 10 -6 12 -14 5 -2
89 12 85 15 -3 43 49 36 67 -4 9 -17 20 -31 26 -13 5 -31 19 -40 32 -17 24
-22 53 -7 44 20 -12 19 45 0 115 -12 41 -22 97 -24 124 -1 28 -8 70 -16 94
-10 35 -14 40 -20 25 -7 -17 -8 -17 -8 -1 -1 9 0 18 2 20 4 5 -28 35 -34 32
-3 -2 -4 11 -3 28 l2 32 -19 -24 c-17 -20 -21 -19 -18 5 0 4 -5 11 -13 15 -9
6 -9 9 -1 9 12 0 10 30 -2 50 -4 6 -7 32 -6 58 0 60 -7 84 -22 75 -7 -4 -6 1
2 11 12 14 12 17 0 14 -8 -2 -15 7 -17 21 -2 13 0 21 5 18 6 -4 10 0 10 8 0 8
-3 12 -6 11 -10 -7 -4 88 8 117 16 42 13 75 -9 99 -10 12 -16 26 -13 31 4 6 8
33 9 60 1 27 7 54 13 60 6 6 11 19 11 28 0 10 5 30 12 46 25 61 26 118 4 161
-35 68 -36 77 -10 115 20 30 24 50 26 114 2 82 -7 127 -23 118 -5 -4 -9 0 -9
9 0 15 -16 16 -39 2 -10 -7 -12 -5 -6 5 6 11 5 11 -4 3 -9 -8 -22 -2 -52 28
-21 21 -39 43 -39 49 0 6 -9 9 -19 7 -11 -2 -30 9 -45 25 -20 22 -30 26 -44
18 -10 -5 -24 -6 -32 -1 -8 5 -18 6 -24 3 -5 -3 -7 -2 -3 3 8 13 -15 39 -35
41 -10 0 -22 1 -27 2 -5 0 -14 15 -21 31 -7 17 -17 30 -22 30 -5 0 -7 -4 -4
-8 3 -5 -1 -9 -8 -9 -8 0 -12 6 -9 13 3 8 -2 20 -10 29 -9 8 -13 24 -10 37 5
23 5 23 -10 3 -16 -20 -16 -20 -12 3 3 20 2 21 -17 11 -15 -8 -19 -8 -14 0 4
6 4 11 -1 12 -27 2 -53 10 -79 24 -16 8 -35 15 -42 15 -7 0 -11 3 -9 8 3 4 -1
13 -9 20 -11 10 -14 10 -15 0 0 -7 -4 -4 -8 6 -11 30 -40 30 -35 0 5 -27 1
-29 -26 -14 -11 6 -17 18 -15 29 4 22 -19 46 -35 36 -5 -3 -10 -1 -10 5 0 7
-7 9 -16 6 -15 -6 -15 -4 -3 11 9 11 10 14 2 9 -9 -5 -13 -1 -13 10 0 10 -8
26 -17 37 -17 18 -26 80 -10 70 4 -2 7 1 7 6 0 6 -5 11 -10 11 -7 0 -7 6 0 19
7 14 6 23 -3 33 -8 8 -10 26 -6 48 4 19 7 29 8 21 0 -9 11 -1 26 19 14 19 25
28 25 21 0 -7 4 -10 9 -6 5 3 13 0 16 -5 5 -8 13 -6 26 6 16 14 21 15 36 3 10
-7 15 -10 11 -5 -4 5 -3 17 2 27 7 12 7 20 0 24 -7 4 -7 12 0 24 5 10 7 21 5
25 -3 3 -2 4 2 1 11 -9 12 -35 1 -35 -7 0 -7 -4 -1 -12 6 -7 9 -22 7 -33 -3
-20 -2 -20 11 -1 10 14 12 23 4 32 -7 8 -7 14 1 19 6 3 8 11 4 16 -3 5 -1 16
5 23 8 10 4 21 -19 44 -17 18 -30 37 -30 43 0 7 -9 2 -20 -11 -11 -13 -20 -19
-20 -14 0 5 -5 2 -10 -6 -8 -12 -10 -12 -10 -1 0 7 -15 27 -32 43 -18 17 -26
27 -18 23 13 -6 13 -5 0 7 -9 7 -21 24 -28 38 -7 14 -10 17 -8 7 5 -15 2 -16
-14 -7 -13 7 -21 7 -25 0 -5 -8 -11 -8 -19 -1 -7 6 -15 8 -19 5 -3 -3 -3 5 0
18 3 13 1 19 -4 12 -10 -13 -38 14 -37 36 2 36 5 41 16 34 6 -4 8 -3 5 4 -4 5
-17 8 -30 6 -12 -2 -16 -2 -9 2 18 9 15 24 -5 17 -12 -5 -14 -3 -8 8 5 8 -5 3
-21 -11 -16 -14 -24 -19 -17 -11 6 7 9 21 6 30 -4 12 -3 13 5 3 7 -11 10 -9
14 6 3 11 1 25 -5 31 -6 6 -7 11 -1 11 5 0 3 4 -5 9 -8 5 -16 17 -17 25 -1 9
2 14 7 10 16 -9 10 2 -11 21 -19 17 -19 17 -15 -4 2 -12 0 -19 -6 -16 -5 4 -7
10 -4 15 3 5 -1 15 -9 23 -8 8 -12 18 -8 22 4 5 1 5 -5 1 -8 -4 -13 -2 -13 6
0 10 -2 10 -9 0 -9 -15 -20 -15 -38 -1 -7 7 -14 6 -19 -2 -5 -8 -3 -9 6 -4 9
5 11 4 6 -4 -4 -6 -11 -9 -16 -6 -4 3 -11 -1 -13 -7 -4 -9 -6 -8 -6 2 -1 9 2
20 7 25 4 6 5 9 3 8 -2 -2 -11 3 -20 10 -14 10 -14 10 -4 -3 7 -10 8 -21 3
-30 -5 -8 -6 -18 -3 -24 3 -5 1 -6 -6 -2 -17 11 -41 62 -33 72 4 5 -1 3 -10
-4 -14 -11 -18 -10 -27 5 -6 10 -11 13 -11 6 0 -6 -9 -10 -20 -8 -11 2 -23 -1
-26 -7 -5 -7 -2 -8 6 -3 9 6 11 4 5 -6 -7 -12 -6 -12 7 -1 14 11 18 10 27 -5
8 -14 10 -15 11 -3 0 13 1 13 10 0 9 -13 10 -13 10 0 0 11 3 11 11 -3 8 -14 8
-22 -1 -30 -8 -9 -9 -7 -4 8 7 20 7 20 -15 0 -12 -11 -21 -15 -19 -10 2 6 -1
10 -7 10 -5 0 -9 -4 -7 -10 1 -5 -6 0 -17 12 -10 12 -21 20 -25 18 -3 -3 -4
-2 -1 2 3 3 -1 13 -8 21 -10 13 -9 14 2 8 9 -6 12 -5 9 5 -3 8 3 23 13 35 15
16 16 21 5 21 -8 0 -13 -4 -10 -9 10 -16 -3 -8 -22 14 -12 14 -13 18 -3 10 22
-17 33 -2 11 15 -14 12 -14 14 -1 10 9 -3 16 1 16 8 0 16 -34 7 -41 -12 -3 -8
-10 -11 -16 -8 -13 8 -13 -8 0 -21 8 -8 6 -15 -4 -23 -10 -8 -16 -9 -21 -1 -4
6 -3 9 2 8 4 -2 8 2 8 7 0 6 -4 9 -8 7 -4 -1 -3 7 3 18 6 11 8 20 4 20 -3 0
-1 6 6 14 6 8 17 13 25 10 7 -3 16 -1 20 5 3 7 0 8 -9 5 -17 -7 -16 17 2 38 9
12 9 15 -3 15 -7 0 -13 -5 -12 -10 1 -5 -2 -11 -8 -13 -6 -2 -9 10 -8 28 1 18
2 33 3 33 1 0 3 12 4 28 1 18 -2 26 -11 23 -16 -6 -46 51 -31 60 14 9 27 -14
21 -37 -4 -15 -2 -18 12 -13 9 4 13 10 8 13 -4 3 -9 14 -11 23 -2 15 1 16 22
8 21 -8 28 -4 50 25 14 18 32 39 40 47 7 8 16 23 20 35 6 19 30 33 93 54 14 4
26 2 34 -7 6 -8 15 -11 20 -8 5 3 16 -2 25 -10 17 -18 39 -22 29 -6 -3 6 -1
10 6 10 7 0 9 3 6 7 -4 3 3 13 15 21 19 14 22 13 33 -2 17 -23 56 -30 48 -9
-4 10 -2 14 4 10 6 -4 13 -1 16 5 3 9 11 7 27 -7 15 -13 21 -15 16 -5 -4 8 -1
6 8 -4 8 -10 13 -23 9 -29 -3 -6 -1 -7 5 -3 6 4 8 14 5 24 -8 21 1 14 15 -14
7 -14 7 -25 0 -35 -8 -11 -9 -10 -4 6 5 18 5 18 -6 4 -7 -9 -16 -17 -20 -17
-12 -3 -5 -16 9 -18 7 -1 15 2 19 7 3 5 11 6 17 3 7 -4 9 -4 5 1 -4 4 -2 17 4
28 10 20 11 20 26 1 14 -18 14 -18 9 4 -3 12 -1 20 4 16 5 -3 9 -13 10 -22 0
-14 2 -13 9 3 8 19 9 19 9 -2 1 -27 40 -35 59 -13 12 13 13 13 6 0 -6 -12 -5
-13 7 -3 12 10 18 9 32 -7 17 -21 36 -18 90 12 24 14 49 12 59 -5 8 -13 38
-19 38 -7 0 4 15 7 33 5 42 -3 66 7 100 41 21 21 30 25 39 16 7 -7 15 -12 20
-12 11 0 38 56 31 64 -4 3 0 6 8 6 8 0 20 -10 28 -21 9 -15 15 -18 20 -10 4 6
17 13 30 16 14 2 19 0 15 -7 -5 -7 0 -9 14 -6 12 4 20 3 17 -2 -3 -4 2 -13 10
-20 13 -11 14 -10 9 6 -3 10 4 4 16 -13 27 -41 36 -41 58 -3 10 17 25 30 37
30 28 1 53 22 47 40 -4 13 -3 13 11 2 19 -16 53 -8 61 13 3 8 16 15 30 15 14
0 28 5 31 10 3 6 17 10 31 10 28 0 114 46 114 62 0 5 4 6 10 3 5 -3 22 6 37
22 29 28 53 38 53 22 0 -6 5 -7 12 -3 6 4 8 3 5 -3 -4 -6 0 -16 8 -23 13 -10
18 -5 35 31 11 24 20 50 20 57 0 6 9 29 20 49 11 21 20 44 20 51 0 7 5 10 10
7 15 -9 12 -66 -5 -99 -8 -15 -15 -43 -15 -62 0 -39 10 -38 77 9 42 30 73 31
73 2 0 -22 17 -18 32 8 15 28 17 39 6 54 -11 14 7 27 27 19 8 -3 15 -1 15 4 0
18 22 10 27 -9 6 -22 33 -18 33 5 0 7 14 21 30 29 28 14 31 14 36 0 5 -11 10
-13 19 -5 6 5 16 6 20 2 5 -4 5 -1 1 6 -4 7 -11 10 -16 7 -14 -9 -30 19 -19
35 8 12 9 11 7 -4 -7 -43 93 -11 105 34 6 25 35 36 50 21 9 -10 8 -15 -6 -22
-10 -6 -22 -22 -28 -36 -7 -19 -15 -24 -29 -20 -11 3 -18 1 -14 -4 3 -5 12 -9
20 -9 8 0 13 -4 10 -9 -3 -5 3 -11 14 -14 14 -4 24 2 31 16 6 12 23 34 37 50
24 25 40 63 22 52 -12 -8 -31 21 -25 39 17 55 15 53 31 31 8 -11 12 -25 9 -33z
m-2175 -3657 c0 -8 8 -11 20 -8 11 3 17 10 14 15 -4 6 5 2 20 -7 14 -9 23 -21
20 -26 -3 -5 0 -9 5 -9 6 0 11 -5 11 -11 0 -8 -4 -8 -14 0 -9 7 -17 8 -20 2
-3 -5 -14 -8 -24 -6 -9 2 -21 4 -27 4 -5 1 -4 5 4 10 8 5 22 8 32 6 13 -3 16
1 12 12 -5 12 -7 12 -14 1 -5 -7 -9 -9 -9 -5 0 4 -9 3 -20 -3 -11 -6 -18 -15
-15 -20 3 -5 1 -11 -5 -15 -6 -4 -8 -11 -5 -16 4 -5 2 -9 -4 -9 -6 0 -7 -7 -4
-17 4 -11 3 -14 -5 -9 -8 5 -10 2 -6 -8 3 -9 1 -16 -5 -16 -6 0 -11 -4 -11 -9
0 -15 32 -6 46 14 8 11 14 13 14 6 0 -7 5 -9 10 -6 18 11 40 -16 40 -47 0 -23
4 -29 16 -24 8 3 12 2 9 -4 -11 -19 8 -10 26 12 25 29 25 68 -1 75 -11 3 -20
8 -21 12 0 3 -2 14 -4 23 -3 18 18 41 41 44 8 1 14 -5 14 -14 0 -14 2 -15 9
-2 6 8 7 19 4 25 -4 5 -3 7 2 3 4 -4 16 -3 26 2 11 7 20 7 24 0 3 -5 13 -6 22
-3 12 5 14 3 8 -7 -6 -10 -4 -12 8 -7 11 4 17 1 17 -9 0 -11 -4 -12 -19 -5
-16 9 -17 7 -13 -17 4 -22 6 -23 12 -8 6 18 7 18 25 0 18 -18 18 -18 12 16 -5
25 -4 31 3 20 10 -15 13 -10 12 25 -1 19 0 19 5 1 4 -15 7 -16 13 -5 5 7 20
14 35 15 24 1 24 0 9 -17 -9 -10 -22 -16 -28 -12 -6 4 -3 -2 6 -13 14 -16 15
-23 5 -34 -8 -9 -8 -11 0 -6 6 3 14 2 18 -4 3 -5 -2 -10 -12 -11 -14 0 -14 -2
5 -9 12 -5 22 -12 22 -15 0 -4 -5 -3 -12 1 -7 4 -8 3 -4 -5 4 -6 16 -9 26 -6
11 3 2 -11 -21 -36 -38 -41 -47 -63 -31 -72 4 -2 1 -2 -5 -1 -7 2 -24 -9 -38
-23 -18 -20 -23 -35 -19 -56 2 -16 1 -26 -5 -23 -26 17 -48 -69 -29 -121 6
-18 3 -25 -15 -35 -12 -7 -26 -13 -32 -13 -5 -1 -9 -6 -8 -11 2 -12 -36 -12
-55 -1 -7 5 -11 11 -8 15 2 4 -1 16 -5 27 -9 18 -9 18 -5 -3 3 -17 -3 -26 -23
-37 -25 -13 -30 -12 -51 8 -18 16 -20 17 -9 3 12 -17 12 -19 -1 -14 -8 3 -21
-2 -28 -11 -8 -9 -10 -10 -6 -2 3 7 0 18 -7 23 -11 8 -10 9 4 4 10 -3 17 0 17
8 0 22 -11 26 -34 10 -13 -8 -26 -11 -29 -7 -4 3 -7 2 -7 -3 0 -5 -14 -10 -32
-11 -17 -1 -35 -8 -40 -15 -5 -10 -8 -8 -8 5 0 10 -7 20 -15 23 -8 4 -12 11
-8 18 3 6 2 7 -2 3 -5 -4 -10 -14 -12 -22 -2 -8 -5 -23 -7 -32 -2 -10 3 -25
11 -35 12 -13 12 -17 1 -24 -7 -4 -10 -4 -6 1 12 13 -13 37 -26 26 -8 -7 -12
-3 -13 12 0 12 1 16 4 9 3 -6 9 -9 14 -6 6 3 5 12 -3 22 -8 9 -8 13 -2 9 7 -4
14 -1 17 6 5 14 -37 69 -47 61 -3 -2 -4 -1 -1 3 3 3 0 12 -7 20 -7 9 -8 13 -1
11 6 -2 11 -1 10 2 0 3 6 16 13 30 8 14 14 28 15 32 0 4 7 16 16 26 33 39 38
55 21 69 -15 12 -15 12 3 6 18 -6 18 -5 6 10 -12 15 -12 17 4 11 13 -5 16 -4
11 4 -4 7 -1 12 9 12 9 0 14 4 11 9 -4 5 -1 11 5 13 6 2 12 21 14 42 1 23 -1
32 -6 24 -6 -8 -7 1 -5 22 2 19 4 41 5 48 0 6 5 12 10 12 6 0 8 -9 6 -20 -2
-12 0 -18 6 -15 5 4 7 10 4 15 -3 4 2 13 10 20 8 7 15 20 15 29 0 14 2 14 10
1 8 -13 10 -12 10 3 0 9 5 17 10 17 6 0 9 3 9 8 -4 26 1 34 16 22 8 -7 15 -18
15 -25z m1920 -5026 c0 -15 -5 -31 -10 -34 -6 -4 -8 -11 -5 -16 4 -5 2 -9 -3
-9 -6 0 -8 -8 -5 -18 2 -9 -1 -38 -7 -62 -7 -25 -18 -79 -25 -120 -7 -41 -17
-93 -21 -115 -8 -48 -40 -115 -55 -115 -6 0 -65 -43 -132 -96 -67 -54 -128
-101 -135 -107 -9 -7 -23 -1 -50 20 -20 16 -44 33 -52 37 -8 4 -33 18 -55 31
-53 32 -142 74 -174 82 -14 3 -33 11 -41 18 -8 7 -28 15 -44 19 -16 4 -41 16
-54 27 -14 10 -34 19 -44 19 -11 0 -22 9 -25 20 -3 11 -9 21 -14 21 -5 1 -13
3 -19 4 -5 1 -14 3 -20 4 -24 3 -7 18 18 16 15 -1 30 3 35 9 4 6 6 0 5 -14 -3
-20 1 -24 17 -22 11 2 25 8 30 14 7 8 6 9 -3 4 -6 -4 -3 9 9 28 11 19 19 41
18 48 -1 7 -1 24 0 38 1 19 3 22 10 10 6 -8 7 -19 4 -25 -4 -5 3 -2 14 8 17
14 22 15 31 4 8 -9 8 -18 2 -25 -7 -9 -7 -9 2 -2 7 6 16 6 23 0 7 -6 11 -2 12
12 1 12 10 28 19 37 9 9 14 12 12 6 -3 -5 -2 -19 3 -30 6 -17 8 -16 9 10 1 26
3 27 9 10 5 -11 6 -24 3 -29 -3 -5 -1 -6 5 -3 6 4 9 18 8 32 -2 14 1 23 6 19
5 -3 9 1 10 8 0 10 2 10 6 0 3 -9 9 -7 21 6 10 10 16 16 15 14 0 -2 2 -16 7
-31 5 -18 3 -36 -7 -52 -13 -23 -14 -23 -8 -1 5 16 3 22 -7 20 -7 -2 -12 3
-10 10 1 8 -2 11 -9 6 -8 -5 -9 -3 -4 6 5 9 4 11 -4 6 -8 -6 -9 -12 -2 -20 6
-7 8 -16 4 -20 -4 -3 -8 -14 -9 -22 -1 -9 0 -13 3 -10 4 3 12 1 19 -5 9 -7 16
-4 26 10 8 12 18 18 21 15 3 -4 12 5 18 19 7 15 16 24 20 21 5 -3 6 3 2 13 -6
16 -5 16 10 4 9 -7 17 -10 17 -6 0 4 7 2 15 -5 8 -7 15 -9 15 -4 0 5 4 3 9 -4
7 -11 9 -10 14 3 5 11 3 14 -6 9 -8 -5 -7 -2 2 9 17 22 21 21 16 -3 -2 -11 1
-22 6 -26 5 -3 9 -2 8 3 -3 19 2 34 9 29 5 -3 9 1 9 9 0 8 -4 12 -8 9 -4 -2
-11 0 -14 6 -4 6 -3 10 2 9 4 -1 11 0 16 1 4 1 13 3 20 4 6 1 11 7 10 14 -2 7
2 12 8 12 7 0 4 11 -6 26 -9 15 -12 23 -6 20 6 -4 14 0 18 9 5 16 7 16 15 1 7
-13 12 -13 28 -4 14 9 16 16 8 25 -6 7 -7 13 -3 13 4 0 2 6 -4 13 -8 10 -7 14
3 14 7 0 13 -8 12 -18 -1 -10 4 -19 9 -19 6 0 9 9 9 20 -1 10 4 18 10 17 6 -1
10 5 8 13 -2 8 0 11 5 7 4 -5 8 -13 8 -18 0 -5 5 -8 10 -6 6 1 9 7 7 12 -2 5
0 6 5 2 4 -5 9 -13 9 -18 3 -22 6 -23 14 -4 7 16 9 17 9 3 1 -9 -3 -19 -9 -23
-5 -3 -7 -12 -4 -19 3 -8 0 -17 -7 -22 -9 -5 -10 -2 -6 12 7 18 6 18 -8 -1 -9
-11 -21 -20 -28 -20 -7 0 -12 -12 -13 -27 -1 -22 2 -26 12 -17 11 9 14 8 14 0
0 -7 5 -9 11 -5 8 4 7 9 -2 15 -13 8 -5 13 14 10 5 -1 6 3 3 8 -3 5 1 14 9 21
13 11 15 10 12 -6 -1 -11 -6 -25 -10 -32 -5 -7 -2 -14 7 -18 9 -3 13 -11 9
-17 -4 -6 -1 -7 8 -1 18 11 51 12 66 2 7 -6 16 -1 25 11 8 12 17 19 19 16 12
-12 0 86 -12 102 -13 17 -13 17 5 3 18 -14 19 -13 13 2 -3 10 -2 20 3 23 5 3
7 -9 5 -27 -3 -24 -2 -29 5 -18 5 8 10 22 10 31 0 9 8 23 18 30 15 12 16 12 6
-1 -15 -20 -14 -47 3 -47 9 0 10 4 2 13 -11 14 5 28 31 29 10 0 15 10 15 31 0
18 5 31 13 31 6 0 12 -13 12 -28z m2558 -111 c18 -18 15 -36 -18 -90 -36 -58
-38 -70 -7 -59 85 32 91 32 110 10 10 -12 19 -20 20 -18 1 2 12 18 25 36 12
18 22 41 22 52 0 30 19 35 26 6 8 -34 21 -32 29 5 15 70 43 -4 31 -84 -10 -65
-76 -126 -138 -126 -12 0 -48 -23 -81 -52 -47 -40 -63 -49 -75 -41 -17 10 -48
97 -61 168 -8 40 -14 36 -25 -17 -9 -42 -26 -34 -26 12 0 25 5 43 14 46 8 3
17 19 20 36 4 18 26 50 55 79 53 52 60 56 79 37z m-5761 -685 c86 -36 150
-190 123 -297 -17 -67 -41 -120 -84 -185 -20 -29 -36 -54 -36 -56 0 -7 176
-135 185 -135 3 0 37 -21 77 -46 144 -90 278 -257 278 -344 0 -65 -83 -171
-149 -190 -52 -15 -159 -5 -190 18 -15 10 -36 22 -49 26 -12 4 -22 11 -22 16
0 10 -37 20 -45 12 -3 -3 4 -15 15 -26 56 -56 102 -116 124 -161 30 -61 56
-151 56 -191 0 -17 18 -67 41 -113 98 -201 70 -378 -66 -412 -58 -15 -89 -6
-132 36 -21 21 -41 31 -50 28 -12 -5 -14 0 -9 25 6 23 3 33 -11 41 -10 6 -13
11 -8 11 7 0 7 3 0 8 -5 4 -20 28 -32 55 -13 26 -28 47 -33 47 -6 0 -9 3 -7 8
2 4 -9 19 -24 34 -16 15 -29 25 -29 21 0 -3 -7 0 -15 7 -8 7 -15 10 -15 6 0
-3 -12 -1 -26 4 -18 7 -23 7 -18 -2 5 -7 3 -8 -7 -2 -15 9 -20 11 -45 13 -8 0
-12 5 -9 11 3 5 -7 12 -22 16 -15 3 -32 12 -38 18 -12 15 -77 48 -82 42 -3 -2
27 -46 65 -98 39 -51 92 -136 118 -188 l48 -95 0 -110 c1 -119 -15 -170 -69
-229 -40 -43 -47 -63 -34 -88 7 -12 12 -58 12 -102 1 -110 -21 -156 -119 -250
-95 -91 -115 -96 -230 -61 -19 6 -23 0 -37 -62 -26 -109 -32 -245 -13 -333 21
-97 20 -184 -3 -290 -22 -101 -36 -137 -78 -210 -42 -74 -86 -119 -123 -126
-27 -6 -35 -15 -31 -37 1 -5 -3 -6 -9 -2 -6 3 -8 11 -4 16 5 9 -27 -3 -88 -33
-16 -7 -28 -17 -28 -21 0 -5 6 -5 13 -1 6 4 8 3 4 -1 -11 -13 -38 -15 -31 -3
4 6 -1 6 -13 -1 -11 -6 -23 -7 -27 -3 -4 3 -4 -2 0 -13 7 -18 6 -19 -10 -6
-14 12 -17 12 -14 1 2 -9 -12 -16 -39 -21 -23 -4 -50 -12 -60 -17 -21 -11
-113 -8 -158 6 -31 9 -33 18 -19 74 5 21 0 35 -20 59 -14 17 -28 43 -31 57
-14 65 -28 108 -41 123 -8 9 -17 49 -20 95 -5 61 -13 91 -36 132 -28 51 -28
55 -16 107 7 29 15 52 18 50 3 -2 4 11 2 28 -3 24 4 42 28 72 28 36 30 40 13
46 -10 4 -12 8 -5 8 10 1 10 5 -2 17 -19 19 -21 30 -3 18 7 -5 6 -2 -3 6 -24
22 -12 46 40 80 25 17 41 30 37 30 -4 0 -3 6 3 13 6 6 20 27 31 45 11 18 23
30 28 27 5 -3 12 -1 16 5 4 6 11 7 17 4 8 -5 9 -1 4 11 -5 15 -4 16 8 6 11 -9
16 -9 22 0 4 7 3 9 -3 6 -6 -4 -13 2 -16 14 -4 16 -3 18 9 8 19 -16 18 -4 -2
15 -14 15 -14 16 0 16 20 0 20 18 1 40 -13 14 -13 17 0 17 8 0 12 -4 10 -8 -3
-4 2 -9 10 -13 8 -3 14 -2 14 2 -1 4 0 9 1 12 7 20 7 40 -2 40 -6 0 -7 -7 -4
-16 3 -9 2 -12 -5 -8 -6 3 -9 15 -6 25 3 11 1 17 -4 13 -5 -3 -9 1 -9 9 0 7
-6 14 -12 15 -7 1 -25 3 -39 5 -15 1 -34 9 -43 17 -14 11 -17 11 -14 0 2 -8
-6 -15 -17 -17 -16 -3 -17 -2 -5 6 13 9 13 11 -2 11 -10 0 -18 7 -18 16 0 8
-4 13 -9 10 -5 -4 -12 0 -14 6 -4 10 -8 9 -16 -2 -10 -13 -11 -13 -11 0 0 11
-4 9 -12 -5 -16 -28 -30 -36 -45 -23 -10 8 -13 7 -14 -3 0 -10 -2 -11 -6 -1
-2 6 -8 12 -12 12 -4 0 -8 -6 -9 -12 -4 -52 -22 -74 -49 -63 -29 13 -67 12
-83 -2 -13 -10 -21 -7 -48 18 -29 28 -37 29 -33 5 1 -5 -6 -3 -15 5 -10 8 -15
9 -11 2 4 -7 -4 -15 -22 -21 -23 -8 -31 -7 -35 3 -3 8 -1 17 5 20 5 4 6 11 3
17 -4 7 -2 8 4 4 7 -4 12 -3 12 2 0 10 -29 26 -42 24 -5 -1 -8 3 -8 9 0 5 -4
7 -10 4 -5 -3 -10 -1 -10 5 0 6 -5 8 -12 4 -7 -4 -8 -3 -4 4 4 6 -2 20 -13 31
-11 11 -17 22 -13 25 3 3 1 6 -5 6 -5 0 -10 6 -11 13 -3 38 -15 82 -23 85 -5
2 -9 10 -9 18 0 8 -4 14 -10 14 -5 0 -10 8 -10 17 0 15 -1 15 -13 -2 -11 -14
-16 -15 -22 -5 -5 9 -4 11 3 6 7 -4 12 -1 12 9 0 9 -4 13 -10 10 -5 -3 -10 -1
-10 6 0 8 -5 8 -17 -3 -25 -21 -51 -12 -58 21 -6 29 -42 78 -84 115 -48 41
-71 69 -65 78 3 4 0 7 -8 6 -9 -2 -14 11 -15 42 -2 38 3 51 32 85 19 22 35 43
35 48 0 4 6 5 13 1 7 -5 7 -1 -3 12 -8 10 -10 16 -6 12 12 -10 37 12 29 25 -3
6 -1 7 5 3 9 -5 9 -13 2 -26 -7 -13 -7 -21 0 -25 6 -4 9 -1 8 7 -2 7 2 12 8
11 6 -1 10 8 9 20 -1 12 4 32 12 44 10 14 11 23 3 28 -6 3 -8 11 -5 16 4 5 2
9 -3 9 -11 0 -22 31 -27 75 -2 16 -9 31 -14 33 -6 2 -8 9 -4 15 4 7 0 8 -13 3
-15 -6 -17 -5 -6 5 17 18 15 58 -4 66 -9 3 -20 0 -25 -8 -7 -12 -9 -12 -9 0 0
9 -4 10 -12 3 -9 -7 -17 -5 -28 6 -13 14 -12 15 5 9 20 -7 20 -7 0 8 -11 9
-21 11 -23 6 -2 -5 -15 -3 -30 5 -15 8 -32 14 -38 14 -15 0 -33 40 -36 78 -1
6 -7 12 -14 12 -7 0 -11 -8 -9 -20 2 -11 0 -22 -4 -24 -4 -3 -6 24 -4 60 3 67
15 90 78 160 37 41 45 53 45 69 0 10 5 13 12 9 6 -4 8 -3 5 4 -4 5 -17 9 -30
8 -19 -2 -23 2 -22 25 0 15 3 25 7 23 4 -3 5 12 3 31 -3 23 -1 34 5 30 6 -3 7
1 4 9 -3 9 -1 16 6 16 6 0 8 5 5 11 -5 6 -12 4 -22 -8 -14 -16 -14 -15 -1 7
10 16 12 35 7 52 -4 15 -5 29 -2 32 3 3 -4 3 -16 1 -13 -2 -19 0 -15 6 8 13
-14 39 -42 49 -17 7 -21 15 -17 32 18 79 88 159 207 235 39 25 82 53 96 62 14
10 42 23 62 30 21 7 40 17 43 22 4 5 13 9 22 9 9 0 34 8 57 19 23 10 68 28
101 41 33 12 101 39 150 61 50 22 95 39 100 39 6 1 28 9 50 20 22 11 47 20 55
20 8 0 33 9 55 20 22 11 46 19 54 20 16 0 154 46 180 60 18 9 96 36 151 51 19
5 91 12 160 16 101 5 136 11 180 30 30 13 74 27 97 30 23 3 44 11 47 18 5 14
106 69 106 58 0 -4 12 5 28 19 15 15 49 38 77 52 27 15 56 33 65 40 47 42 214
59 287 29z m103 -3194 c30 -10 65 -19 78 -19 13 0 44 -8 70 -19 26 -10 65 -23
87 -29 22 -5 54 -14 70 -20 17 -6 64 -20 105 -32 41 -12 97 -28 123 -37 27 -8
70 -18 95 -23 110 -19 205 -51 312 -104 207 -104 245 -132 441 -338 207 -216
472 -484 550 -554 59 -54 89 -79 197 -169 128 -106 247 -222 324 -314 6 -8 14
-30 17 -50 5 -27 16 -42 49 -64 23 -16 42 -35 42 -42 0 -35 26 -64 86 -95 35
-18 69 -39 75 -46 6 -8 19 -14 28 -14 20 0 41 -19 41 -37 0 -6 11 -29 25 -50
32 -47 30 -79 -5 -75 -44 4 -50 10 -50 49 0 47 -8 60 -42 68 -15 4 -32 13 -39
21 -6 8 -19 14 -29 14 -9 0 -25 9 -35 20 -10 11 -26 20 -35 20 -9 0 -21 5 -27
11 -8 8 -17 7 -32 -3 -11 -7 -21 -15 -21 -18 0 -3 53 -35 118 -71 90 -50 118
-70 120 -88 2 -13 18 -31 38 -43 19 -11 41 -33 49 -49 17 -33 20 -110 4 -126
-8 -8 1 -34 29 -94 66 -136 85 -247 72 -399 -16 -169 -32 -231 -86 -333 -16
-30 -34 -28 -34 3 0 19 -1 19 -20 3 -11 -10 -20 -23 -20 -30 0 -7 -7 -13 -15
-13 -8 0 -15 -7 -15 -15 0 -21 13 -19 28 5 13 21 42 28 42 10 0 -18 -43 -70
-57 -70 -8 0 -16 7 -19 15 -9 23 -21 18 -32 -14 -10 -28 -77 -91 -121 -114
-13 -7 -30 -25 -39 -41 -41 -71 -102 -102 -102 -52 0 36 -22 48 -87 45 -91 -3
-245 12 -277 27 -15 7 -43 16 -62 20 -19 3 -36 10 -39 14 -2 4 -29 19 -59 34
-30 15 -69 45 -88 67 -18 22 -49 57 -69 77 -52 54 -77 94 -99 159 -11 32 -24
67 -29 78 -22 50 -45 167 -46 235 -2 103 -3 109 -15 90 -5 -8 -10 -27 -10 -42
0 -15 -4 -29 -9 -33 -13 -8 -101 109 -101 135 0 53 49 93 80 65 29 -26 53 -15
70 32 13 39 8 71 -8 47 -15 -24 -48 -25 -69 -2 -28 32 -35 66 -14 71 10 3 9 4
-4 3 -15 -1 -31 -23 -63 -86 -43 -87 -66 -174 -64 -244 2 -38 -45 -162 -56
-151 -10 9 -33 -35 -25 -48 11 -18 13 -38 2 -31 -5 3 -6 10 -3 16 4 7 2 8 -4
4 -7 -4 -12 -13 -12 -21 0 -8 -4 -16 -9 -19 -5 -4 -7 4 -4 16 5 23 5 23 -11 3
-10 -11 -15 -13 -11 -5 4 10 2 9 -8 -2 -8 -10 -17 -15 -20 -11 -4 3 -7 0 -7
-7 0 -7 -8 -19 -17 -27 -10 -8 -12 -11 -4 -7 9 4 12 3 7 -4 -4 -6 -14 -8 -23
-5 -10 4 -14 2 -10 -4 4 -7 0 -10 -10 -9 -18 3 -34 35 -25 50 3 5 0 6 -6 3 -5
-4 -8 -17 -5 -30 4 -17 3 -19 -6 -7 -6 8 -18 15 -28 15 -10 0 -24 4 -31 9 -12
7 -12 4 -2 -15 11 -23 11 -23 -5 -4 -9 11 -19 20 -24 20 -4 0 -15 8 -25 18
-10 9 -13 17 -8 17 5 0 9 7 9 15 0 12 -3 12 -16 2 -12 -9 -13 -9 -7 1 4 7 2
12 -8 12 -8 0 -21 7 -29 15 -8 8 -24 12 -36 10 -11 -2 -23 1 -27 6 -4 6 -12 5
-22 -3 -10 -7 -14 -8 -9 -3 4 5 -6 14 -23 21 -16 7 -30 20 -30 28 0 16 -53 50
-62 40 -8 -7 -102 27 -110 40 -9 14 -116 15 -122 1 -3 -5 -5 2 -5 17 -1 20 -8
29 -31 36 -16 6 -39 9 -50 7 -11 -2 -23 1 -26 7 -4 7 -2 8 4 4 7 -4 12 -1 12
6 0 10 3 9 11 -2 9 -12 9 -11 4 5 -4 11 -8 26 -8 32 0 7 -3 11 -5 8 -3 -3 -12
4 -19 15 -14 20 -39 18 -27 -2 4 -5 -5 -2 -20 7 -20 14 -26 14 -27 4 0 -11 -2
-11 -6 1 -10 24 -29 39 -58 44 -15 3 -33 13 -41 23 -15 20 -19 47 -6 39 7 -4
8 19 3 43 -1 2 -7 -2 -14 -8 -17 -14 -30 -2 -16 15 8 9 5 11 -10 7 -15 -4 -21
-1 -21 11 0 9 6 16 13 16 8 0 8 3 -2 9 -12 8 -12 12 -2 25 7 9 18 13 25 9 6
-3 3 3 -7 14 -15 17 -16 25 -7 42 6 12 13 21 16 21 3 0 2 -5 -2 -12 -5 -7 -3
-8 5 -4 7 5 10 15 7 25 -5 13 -4 13 8 -2 11 -14 15 -15 19 -4 3 9 16 13 31 12
14 -2 26 0 26 4 0 4 15 7 32 7 24 -1 33 4 36 18 2 10 -2 22 -9 27 -7 4 -14 20
-17 36 -2 15 -8 33 -14 40 -6 7 -7 13 -2 13 5 0 2 5 -6 10 -11 7 -15 29 -16
87 0 65 -5 87 -28 132 -15 29 -25 62 -23 72 3 11 1 17 -4 13 -5 -3 -9 0 -9 7
0 8 -6 6 -18 -4 -13 -12 -19 -13 -19 -5 0 7 -4 22 -9 32 -5 14 -4 17 4 12 7
-4 12 -15 13 -24 0 -10 3 -12 6 -5 2 7 -5 25 -18 40 -13 16 -19 20 -16 10 4
-11 3 -16 -3 -12 -6 3 -10 12 -10 19 0 8 -8 20 -17 27 -15 12 -16 12 -8 -1 15
-24 14 -38 -3 -52 -13 -11 -14 -11 -7 2 13 22 15 39 4 46 -6 4 -6 11 1 19 6 7
9 19 8 26 -2 7 2 13 9 14 6 0 15 4 20 9 4 5 3 6 -4 2 -6 -3 -17 2 -23 11 -10
16 -11 16 -6 1 3 -10 1 -20 -4 -23 -5 -3 -7 -13 -4 -23 5 -14 4 -14 -4 -2 -7
9 -7 18 -1 26 7 8 4 17 -6 28 -12 12 -13 16 -3 16 10 0 9 3 -2 10 -8 5 -10 10
-5 10 6 0 17 -6 23 -12 10 -10 17 -10 33 0 12 8 18 9 14 3 -3 -6 -1 -11 5 -11
6 0 8 -5 4 -12 -5 -9 -2 -9 9 1 9 7 17 19 17 25 0 6 -5 4 -10 -4 -7 -12 -9
-10 -7 7 0 12 5 19 10 16 4 -2 14 0 21 6 14 12 15 95 2 108 -4 5 -6 2 -4 -6 6
-25 -19 -22 -36 4 -11 16 -12 25 -5 25 7 0 3 8 -7 18 -22 19 -25 39 -7 50 7 4
16 19 22 32 9 24 9 24 8 -7 -1 -17 -5 -29 -9 -27 -4 3 -5 -2 -2 -10 5 -12 9
-13 19 -3 7 7 9 14 4 15 -5 2 -9 8 -9 13 0 6 5 7 11 4 5 -4 3 9 -5 29 -8 20
-11 36 -5 36 5 0 8 6 6 13 -1 6 4 11 12 9 12 -3 12 -1 0 14 -13 16 -12 16 9 5
12 -7 20 -16 17 -22 -10 -15 1 -10 15 7 11 12 11 15 0 12 -7 -2 -15 3 -18 11
-2 8 0 11 6 7 6 -3 14 -1 18 5 4 7 3 9 -3 6 -17 -11 -8 50 10 68 23 22 21 27
-6 23 -17 -2 -36 10 -68 44 -37 38 -50 45 -77 43 -18 -1 -32 1 -32 5 0 3 -11
13 -25 20 -20 11 -27 11 -40 0 -9 -7 -15 -9 -14 -4 1 5 -3 21 -9 37 -11 26
-48 38 -66 20 -12 -12 -33 -11 -33 2 0 8 9 12 19 10 10 -2 16 0 13 6 -4 5 -11
7 -16 4 -5 -4 -9 0 -9 7 0 7 -9 -2 -20 -19 -22 -37 -27 -40 -27 -18 0 8 4 12
8 10 4 -3 10 2 13 11 5 12 2 15 -9 10 -9 -3 -13 -2 -10 4 6 9 -36 37 -45 29
-3 -2 -8 10 -11 26 -4 17 -7 24 -8 16 0 -8 -4 -11 -7 -8 -4 4 -2 12 3 19 14
18 24 50 14 44 -4 -3 -19 6 -32 21 -13 14 -19 23 -12 19 18 -10 10 50 -10 72
-14 15 -14 19 -2 19 8 0 11 -5 8 -10 -4 -6 -1 -7 7 -2 9 6 11 4 5 -5 -5 -8 -4
-11 2 -7 14 9 37 -19 28 -33 -3 -5 -1 -10 6 -10 7 0 6 -8 -4 -24 -17 -26 -13
-38 9 -29 11 4 14 -1 10 -22 -3 -15 -2 -24 1 -21 12 12 14 54 3 61 -5 3 -10
12 -10 18 0 7 4 6 11 -3 9 -13 10 -13 6 0 -2 8 0 25 4 37 6 16 5 22 -4 20 -7
-1 -11 4 -9 11 1 6 -1 11 -5 11 -5 -1 -11 0 -15 1 -5 1 -12 4 -18 5 -5 1 -11
3 -12 5 -2 1 -11 3 -20 5 -27 5 -32 -14 -11 -38 l18 -22 -23 20 c-14 11 -21
26 -19 37 3 11 1 15 -6 11 -6 -4 -8 0 -4 10 3 9 2 19 -3 22 -15 9 0 -68 18
-90 17 -20 17 -20 -5 -1 -13 11 -23 28 -23 38 0 11 -5 16 -10 13 -6 -4 -7 -11
-4 -17 4 -6 2 -8 -3 -5 -6 4 -10 22 -9 41 1 18 -3 33 -9 32 -19 -3 -35 -17
-30 -26 3 -5 0 -12 -6 -16 -7 -4 -9 -3 -5 4 3 6 2 13 -4 17 -5 3 -10 12 -10
18 0 8 3 8 9 -1 7 -11 9 -11 13 0 4 9 -3 15 -19 16 -17 1 -22 -2 -17 -11 5 -8
2 -7 -9 2 -15 12 -17 11 -14 -5 1 -11 6 -26 11 -34 7 -12 7 -13 -5 -2 -8 7
-15 17 -15 23 -1 5 -2 14 -3 20 0 5 -5 8 -10 5 -5 -3 -14 1 -21 9 -10 12 -16
13 -28 3 -12 -10 -14 -10 -8 -1 4 7 2 21 -4 30 -10 16 -11 16 -6 -2 6 -19 5
-19 -7 -3 -8 10 -16 16 -19 13 -2 -3 -5 2 -5 10 0 10 4 12 10 6 5 -5 21 -6 37
-1 33 9 240 2 255 -10 6 -4 44 -11 85 -14 41 -4 93 -12 115 -18 22 -6 49 -12
60 -14 22 -3 63 -11 115 -21 19 -3 38 -6 43 -5 4 1 7 -3 7 -9 0 -6 5 -7 13 -2
18 11 49 14 43 4 -3 -4 7 -6 22 -4 15 3 39 5 54 6 14 1 24 6 20 11 -3 5 2 7
11 3 9 -3 19 -2 22 4 4 5 10 7 15 4 15 -9 50 33 43 51 -4 11 -2 15 4 11 10 -6
11 12 3 33 -1 3 -2 9 -1 13 1 5 -3 6 -9 2 -6 -3 -8 -11 -5 -16 4 -5 1 -9 -5
-9 -6 0 -8 -5 -4 -12 6 -10 5 -10 -8 -1 -8 7 -19 9 -23 5 -5 -4 -5 -2 -2 4 9
15 -20 27 -29 12 -5 -7 -2 -8 7 -3 8 5 11 5 7 0 -4 -4 -3 -13 2 -20 7 -8 5
-12 -5 -12 -8 0 -13 3 -10 5 3 3 0 11 -6 19 -9 10 -15 10 -25 2 -8 -6 -14 -10
-15 -8 0 2 -1 18 -2 36 -2 33 7 32 16 -2 3 -12 5 -8 4 11 -1 28 -3 30 -36 29
-20 -1 -40 4 -44 9 -5 7 -7 5 -4 -4 2 -8 14 -15 27 -15 14 0 24 -7 26 -18 1
-10 -2 -14 -9 -10 -7 4 -8 0 -4 -11 4 -11 3 -15 -4 -11 -6 4 -8 13 -5 21 3 7
1 16 -4 19 -6 4 -10 0 -10 -7 0 -9 -3 -10 -8 -2 -4 6 -15 10 -25 8 -11 -1 -17
0 -14 3 3 2 1 18 -5 35 -8 22 -13 26 -19 16 -7 -10 -9 -10 -9 2 0 13 -1 13
-10 0 -5 -8 -10 -19 -10 -25 0 -5 5 -3 10 5 6 9 10 10 10 3 0 -6 -4 -14 -9
-18 -6 -3 -8 -15 -6 -27 3 -11 1 -17 -3 -14 -4 4 -7 13 -7 19 0 7 -14 12 -31
11 -25 0 -30 3 -29 20 3 27 -4 38 -16 30 -6 -4 -6 -11 1 -19 8 -10 8 -15 -2
-21 -7 -4 -10 -4 -6 1 4 4 3 14 -3 22 -9 10 -8 18 2 31 11 14 11 15 -1 5 -11
-10 -17 -10 -29 0 -8 7 -12 7 -8 1 3 -6 0 -20 -7 -30 -13 -17 -14 -16 -10 11
4 27 3 28 -5 8 -13 -28 -21 -30 -16 -3 2 11 -1 23 -7 26 -7 4 -8 2 -4 -4 4 -7
2 -12 -4 -12 -6 0 -8 -5 -4 -12 5 -9 2 -9 -9 1 -9 7 -17 19 -17 25 0 6 5 4 11
-4 9 -13 10 -13 6 0 -2 9 -15 15 -35 14 -17 0 -29 3 -26 7 2 4 -1 11 -7 14 -5
4 -8 14 -4 22 4 13 3 13 -8 4 -18 -14 -45 14 -42 45 1 14 -5 20 -19 22 -17 1
-18 -1 -6 -8 10 -6 11 -10 3 -10 -7 0 -17 9 -23 19 -7 13 -18 18 -34 15 -15
-2 -29 4 -42 18 -12 14 -13 18 -3 10 12 -9 16 -9 16 2 0 8 -7 13 -16 11 -9 -1
-25 5 -35 14 -11 9 -16 10 -12 4 4 -7 3 -13 -3 -13 -5 0 -12 6 -15 13 -3 6 -3
-1 0 -18 4 -29 4 -29 -6 -6 -6 14 -20 31 -31 39 -13 9 -19 21 -16 33 3 11 1
17 -3 14 -5 -3 -12 0 -15 5 -5 8 -13 6 -26 -6 -10 -9 -25 -14 -34 -11 -20 8
-19 27 1 27 9 0 36 19 60 43 75 72 84 78 131 83 26 2 49 7 52 10 12 12 208 -8
261 -27z m112 -1281 c-3 -13 -9 -26 -14 -29 -4 -3 -9 -17 -10 -31 -1 -15 -5
-25 -9 -23 -3 3 -5 17 -3 32 4 24 3 25 -5 8 -7 -14 -10 -15 -10 -5 -1 13 -2
13 -11 0 -9 -13 -10 -13 -10 0 0 13 -1 13 -10 0 -9 -13 -11 -13 -21 0 -9 13
-10 13 -6 0 2 -9 15 -15 30 -14 24 1 27 -2 26 -30 0 -17 -3 -25 -6 -18 -2 6
-9 12 -14 12 -4 0 -7 -6 -5 -12 1 -7 1 -10 -1 -5 -3 4 -10 4 -15 1 -6 -4 -8
-2 -4 4 3 5 3 12 -1 15 -5 2 -2 2 5 1 6 -2 12 1 12 5 0 12 -29 23 -41 16 -5
-4 -6 2 -3 12 5 15 4 15 -4 3 -6 -8 -9 -17 -6 -21 2 -4 -3 -12 -10 -18 -10 -8
-16 -9 -21 -1 -3 6 -11 7 -17 4 -7 -4 -8 -2 -4 4 4 7 2 12 -4 12 -6 0 -9 4 -6
9 3 5 -2 15 -11 22 -9 8 -14 9 -10 3 4 -6 -3 -20 -15 -30 -12 -11 -19 -14 -15
-8 3 6 0 22 -8 37 -7 15 -11 28 -7 30 18 11 66 16 155 18 54 2 100 6 103 11 9
15 12 8 6 -14z m11220 -184 c13 -3 28 -6 35 -6 8 -1 9 -7 2 -19 -6 -12 -5 -20
1 -24 8 -5 8 -11 1 -19 -7 -9 -4 -17 10 -29 11 -10 17 -22 14 -27 -3 -6 0 -10
7 -10 9 0 9 -3 -2 -10 -13 -9 -13 -10 0 -10 13 0 13 -1 0 -10 -13 -9 -13 -10
0 -10 13 0 13 -1 0 -10 -13 -9 -13 -10 0 -10 13 0 13 -1 0 -10 -13 -9 -13 -10
0 -10 13 0 13 -1 0 -10 -12 -8 -12 -10 5 -11 l20 0 -20 -9 c-13 -6 -15 -9 -5
-9 13 -1 13 -2 0 -11 -8 -5 -10 -10 -3 -10 6 0 10 -8 8 -17 -1 -10 1 -28 6
-40 5 -13 4 -25 -2 -28 -5 -4 -9 -3 -8 2 1 4 0 11 -1 16 -5 16 -8 28 -9 47 0
11 -6 19 -12 18 -6 -2 -14 4 -16 12 -4 13 -3 13 6 0 6 -8 11 -11 11 -6 0 5 -7
17 -15 26 -9 10 -18 30 -21 46 -3 16 -8 38 -11 49 -4 11 -7 23 -8 27 0 4 -10
16 -22 28 -25 23 -30 35 -10 25 6 -4 4 0 -5 8 -10 8 -14 18 -10 22 4 5 -1 5
-10 2 -10 -3 -20 -2 -23 4 -4 5 -11 6 -17 3 -7 -4 -8 -2 -4 5 6 9 11 9 24 -1
13 -11 15 -10 9 5 -4 11 -3 16 3 12 6 -3 10 -1 10 5 0 6 5 8 10 5 6 -3 10 -1
10 5 0 6 4 8 10 5 5 -3 20 -8 32 -11z m-47 -303 c-3 -5 -1 -12 5 -16 5 -3 10
0 10 7 0 9 2 10 8 1 4 -6 19 -10 34 -10 18 1 23 6 17 13 -5 7 -3 11 6 11 8 0
16 -4 16 -9 2 -12 6 -27 9 -33 3 -7 7 -22 9 -36 0 -5 5 -8 10 -5 4 3 6 -6 3
-20 -3 -18 -7 -22 -13 -13 -4 7 -6 16 -3 20 2 4 0 11 -6 14 -6 4 -9 1 -8 -7 2
-7 -2 -12 -9 -11 -13 3 -12 -22 2 -34 4 -4 5 -3 1 4 -3 6 -2 14 4 18 5 3 10
-1 10 -9 0 -9 6 -16 13 -16 8 0 7 -3 -3 -9 -8 -6 -19 -7 -25 -3 -5 3 -4 -2 4
-11 7 -9 10 -17 5 -17 -5 0 -2 -6 7 -13 12 -9 16 -28 15 -77 -1 -36 -5 -71 -9
-77 -5 -8 -3 -13 5 -14 10 0 10 -2 1 -6 -7 -2 -13 -12 -13 -21 0 -14 2 -14 9
-3 7 10 9 7 8 -12 -2 -20 -5 -23 -16 -14 -12 10 -12 9 -2 -10 13 -26 11 -83
-4 -83 -5 0 -3 -5 5 -10 13 -9 13 -10 0 -10 -13 0 -13 -1 0 -10 8 -5 10 -10 5
-10 -6 0 -10 -12 -9 -27 2 -31 -23 -66 -40 -56 -6 3 1 -7 15 -23 30 -34 33
-70 6 -68 -14 2 -15 -1 -6 -12 6 -8 16 -11 23 -7 6 4 5 -1 -3 -10 -7 -9 -10
-17 -5 -17 5 0 0 -7 -10 -15 -14 -11 -16 -15 -5 -15 12 0 12 -2 -1 -10 -13 -9
-13 -10 0 -10 13 0 13 -1 0 -10 -13 -8 -13 -10 2 -10 13 0 16 -9 15 -44 -1
-24 -5 -42 -9 -39 -5 2 -8 -5 -8 -17 0 -12 -4 -19 -9 -16 -5 4 -8 -2 -6 -11 1
-10 8 -17 15 -15 6 1 9 -2 5 -8 -3 -5 0 -10 7 -11 7 0 4 -4 -7 -9 l-20 -9 20
-1 20 -1 -20 -9 -20 -9 20 -1 20 -1 -20 -9 c-13 -6 -15 -9 -5 -9 13 -1 13 -2
0 -11 -13 -9 -13 -10 0 -10 13 0 13 -1 0 -10 -13 -9 -13 -10 0 -10 13 0 13 -1
0 -10 -13 -9 -13 -10 0 -10 13 0 13 -1 0 -10 -11 -7 -11 -10 -2 -10 8 0 10 -5
6 -12 -4 -6 -7 -31 -5 -55 1 -30 -2 -43 -11 -43 -9 0 -9 -3 2 -10 13 -9 13
-10 0 -10 -13 0 -13 -1 0 -10 9 -6 10 -10 3 -10 -6 0 -10 -9 -8 -20 2 -11 -2
-20 -8 -20 -8 0 -8 -3 -2 -8 15 -11 17 -32 3 -32 -9 0 -8 -4 2 -10 13 -9 13
-10 0 -10 -13 0 -13 -1 0 -10 13 -9 13 -10 0 -10 -13 0 -13 -1 0 -10 11 -7 11
-10 2 -10 -7 0 -11 -4 -7 -9 3 -5 1 -13 -5 -16 -8 -5 -7 -11 1 -21 9 -11 8
-14 -2 -15 -12 0 -12 -1 0 -6 11 -5 11 -7 0 -14 -12 -7 -12 -9 0 -9 11 0 10
-4 -5 -16 -10 -8 -14 -13 -8 -10 7 4 9 -4 6 -22 -4 -21 -6 -23 -11 -8 -4 9
-11 17 -16 16 -12 -1 -26 60 -18 74 4 5 2 6 -3 3 -6 -3 -16 -2 -24 4 -12 7
-11 9 5 10 l20 0 -20 9 -20 9 20 1 20 1 -20 9 c-11 5 -14 9 -7 9 10 1 9 5 -3
17 -13 14 -14 19 -3 25 7 5 9 9 4 9 -6 0 -5 5 2 12 7 7 12 17 12 23 0 5 -5 3
-11 -5 -9 -12 -10 -11 -6 6 2 12 -4 31 -16 45 l-19 24 16 -27 c24 -41 13 -34
-26 14 -18 23 -27 38 -19 33 11 -6 13 -4 8 9 -4 10 -3 15 3 11 9 -6 12 7 13
62 1 12 5 20 9 17 4 -3 8 2 8 10 0 8 -6 14 -12 12 -7 -1 -10 -1 -5 1 4 3 7 12
7 21 0 15 -2 15 -10 2 -8 -12 -10 -10 -10 8 0 13 4 21 8 18 5 -3 9 1 9 9 0 8
-4 12 -8 9 -4 -2 -9 -1 -12 3 -2 5 -2 2 -1 -4 2 -7 -1 -13 -6 -13 -16 0 -11
37 6 44 8 3 13 10 10 15 -9 14 -39 7 -44 -10 -3 -11 -1 -11 8 1 10 12 11 12 5
-5 -4 -11 -8 -26 -8 -32 0 -17 0 -17 -28 14 -22 25 -22 26 -1 9 24 -21 28 -16
11 16 -9 16 -8 19 2 13 9 -6 11 -3 6 8 -4 10 -1 15 6 13 7 -1 9 -1 4 1 -4 3
-4 9 -1 15 4 7 0 6 -13 0 -17 -9 -19 -7 -19 18 1 16 6 33 11 37 6 5 7 4 3 -2
-14 -16 -9 -28 6 -16 12 10 17 8 25 -7 6 -11 7 -23 3 -28 -4 -5 3 -1 15 10 12
10 20 23 17 29 -2 7 9 26 25 43 17 18 27 35 24 38 -4 3 0 6 8 6 12 0 12 2 0 9
-14 9 -7 52 9 48 4 -1 8 1 9 6 3 20 0 27 -10 27 -8 0 -7 -6 2 -17 12 -16 12
-17 -2 -6 -9 7 -20 9 -25 5 -4 -4 -2 1 5 11 7 9 10 17 5 17 -4 0 -3 5 4 12 9
9 9 15 0 25 -9 11 -6 13 16 9 22 -4 25 -2 17 8 -6 7 -9 15 -6 18 3 2 -1 5 -7
6 -7 0 -23 3 -35 6 -13 2 -26 0 -29 -6 -5 -7 -2 -8 6 -3 9 6 11 4 5 -5 -6 -9
-4 -11 5 -5 9 6 11 4 5 -5 -6 -9 -4 -11 4 -5 10 6 11 3 1 -14 -9 -18 -14 -20
-25 -11 -8 7 -13 22 -11 34 2 11 -3 28 -10 37 -12 13 -12 16 1 16 8 0 12 -5 9
-11 -3 -6 3 -2 13 9 10 11 17 18 16 16 -2 -2 5 -10 15 -17 26 -19 44 0 30 32
-10 20 -9 27 3 36 11 8 11 9 -3 4 -10 -3 -18 -1 -18 4 0 6 5 10 10 10 6 0 10
8 9 18 0 12 -2 13 -6 3 -5 -11 -7 -11 -15 0 -6 10 -8 3 -6 -21 1 -19 6 -41 12
-48 6 -9 5 -17 -4 -25 -10 -9 -11 -9 -6 1 4 7 2 19 -4 27 -7 8 -9 15 -6 15 4
0 3 8 -2 18 -13 24 3 63 23 56 16 -7 21 11 5 21 -6 4 -4 19 5 41 8 19 10 32 6
29 -13 -7 -30 18 -28 43 1 19 3 20 17 7 12 -11 17 -12 17 -3 0 7 3 25 6 41 3
16 2 25 -4 22 -5 -4 -9 -1 -9 4 0 6 6 11 13 11 8 0 7 4 -3 10 -13 9 -13 10 0
10 13 0 13 2 1 9 -9 6 -12 18 -8 32 3 13 2 28 -4 35 -6 8 -4 16 8 25 16 13 17
12 5 -2 -10 -14 -10 -18 2 -22 21 -8 25 1 16 35 -8 27 -8 29 8 16 15 -12 16
-11 4 4 -8 9 -11 21 -8 27 11 18 -26 22 -41 4 -13 -16 -13 -16 -3 5 10 20 7
25 -10 24 -11 -1 -3 47 9 62 15 17 26 22 16 7z m-9725 -1063 c16 -99 27 -134
58 -196 30 -62 30 -63 11 -81 -33 -31 -82 -16 -98 30 -14 41 0 321 15 306 3
-3 9 -29 14 -59z m135 -475 c49 -18 67 -32 63 -51 -5 -22 -74 -23 -94 -1 -17
18 -34 17 -34 -2 0 -6 5 -7 10 -4 6 3 10 1 10 -5 0 -6 4 -9 10 -5 5 3 17 -6
26 -20 9 -14 23 -25 30 -25 21 0 17 -38 -5 -45 -11 -3 -28 -2 -38 4 -10 5 -25
12 -33 15 -8 3 -22 10 -30 15 -8 5 -23 12 -32 15 -10 3 -18 15 -18 26 0 20 12
29 47 34 14 3 17 10 15 41 -3 34 -2 37 15 30 10 -4 36 -14 58 -22z m735 -208
c-1 -20 -26 -52 -80 -100 -30 -28 -59 -56 -63 -62 -10 -16 -51 -17 -78 -3 -13
8 -25 7 -40 -1 -17 -9 -25 -7 -43 10 -12 12 -32 21 -44 21 -26 0 -62 37 -62
62 0 21 102 75 108 58 2 -6 12 -10 23 -10 16 0 50 -46 49 -67 0 -23 25 -2 46
37 34 65 33 65 112 65 42 0 72 -4 72 -10z"/>
<path d="M15491 34194 c-14 -10 -31 -13 -44 -9 -12 4 -41 9 -64 11 -34 4 -42
2 -47 -14 -4 -10 -12 -19 -19 -19 -26 -1 -213 -36 -234 -44 -13 -5 -23 -12
-23 -17 0 -4 -17 -26 -38 -47 -40 -43 -59 -76 -40 -72 6 1 23 -18 36 -42 l25
-44 70 6 c75 7 127 0 127 -15 0 -6 -34 -42 -76 -81 -105 -98 -127 -135 -118
-195 11 -67 11 -66 12 -80 2 -10 11 -12 33 -7 l31 7 -7 -41 c-6 -34 -3 -46 17
-70 12 -17 36 -50 51 -75 31 -50 88 -89 152 -105 22 -5 58 -16 80 -25 22 -8
60 -15 86 -16 25 0 50 -5 56 -11 8 -8 24 -3 60 17 26 16 51 29 55 29 3 0 10 4
15 9 4 5 3 6 -4 2 -6 -3 -14 -2 -18 4 -3 5 0 10 7 10 8 0 6 5 -4 11 -10 5 -18
16 -18 23 0 8 -7 19 -15 26 -12 10 -12 16 -1 39 7 14 11 31 9 38 -6 16 15 27
30 15 13 -11 47 7 47 26 0 11 34 26 70 31 19 2 10 30 -20 64 -35 41 -36 48
-10 72 16 14 23 16 32 7 16 -16 43 -15 57 2 16 19 -51 49 -144 65 -64 11 -105
32 -105 52 0 5 18 14 41 20 39 12 40 13 17 25 -13 7 -40 16 -60 19 -62 11 -45
59 38 107 16 10 36 21 44 26 36 22 89 34 145 32 40 0 67 4 80 14 27 21 35 20
35 -4 0 -23 35 -28 43 -6 9 23 0 51 -14 48 -8 -2 -11 0 -7 4 4 4 2 14 -5 23
-10 14 -10 14 5 3 9 -7 18 -9 20 -5 3 4 3 2 2 -5 -3 -9 1 -10 16 -2 17 9 18
14 8 35 -6 14 -15 26 -20 26 -4 1 -13 2 -20 3 -7 0 -18 12 -25 26 -9 19 -19
24 -38 22 -16 -2 -35 4 -46 14 -17 15 -24 16 -39 6 -27 -16 -65 -15 -80 3 -15
18 -50 19 -85 3 -19 -9 -28 -9 -37 0 -7 7 -24 12 -38 12 -14 0 -35 7 -46 15
-18 12 -24 12 -43 -1z"/>
<path d="M15317 32823 c4 -10 45 -56 92 -103 46 -47 99 -106 117 -132 17 -26
34 -45 36 -42 3 2 5 -2 5 -8 0 -7 5 -31 10 -53 5 -22 8 -60 7 -84 -3 -56 11
-96 51 -146 17 -22 42 -58 55 -79 27 -44 75 -92 103 -101 9 -4 26 -23 36 -44
11 -20 27 -43 35 -50 12 -10 13 -18 5 -32 -12 -24 -4 -39 22 -39 10 0 19 -7
19 -15 0 -8 -5 -15 -11 -15 -5 0 -7 6 -3 13 6 8 3 8 -9 -2 -15 -12 -18 -10
-27 14 -5 14 -14 24 -19 20 -12 -7 -61 15 -61 27 0 5 -4 6 -10 3 -5 -3 -10 1
-10 10 0 9 -4 13 -10 10 -6 -4 -5 -13 3 -26 10 -18 9 -23 -12 -40 -19 -16 -22
-22 -12 -29 20 -12 27 -151 11 -190 -7 -17 -26 -38 -41 -46 -34 -17 -38 -40
-9 -49 21 -7 50 -53 50 -80 0 -8 8 -15 17 -15 9 0 31 -14 48 -30 17 -17 42
-33 56 -36 13 -3 35 -7 48 -10 14 -3 28 -7 33 -10 4 -3 8 0 8 5 0 6 7 11 16
11 9 0 12 -5 8 -12 -4 -7 11 7 34 32 23 25 42 52 42 60 0 8 12 33 25 55 32 52
33 77 3 73 -18 -2 -24 -11 -26 -35 -2 -17 -10 -37 -18 -43 -8 -7 -14 -20 -14
-29 -1 -32 -30 21 -30 54 0 17 -4 35 -9 40 -5 6 -18 36 -29 67 -17 47 -18 58
-6 62 22 8 16 34 -8 38 -21 3 -23 9 -23 58 0 30 -3 60 -7 65 -4 6 -3 17 2 25
8 12 12 12 27 -2 10 -9 39 -36 66 -59 26 -23 47 -50 47 -60 0 -10 5 -21 10
-24 6 -3 10 -21 10 -40 0 -42 15 -53 41 -29 16 14 19 26 14 49 -6 31 -23 166
-24 198 -1 12 -5 16 -13 11 -10 -6 -10 -4 -2 7 15 19 10 47 -13 66 -10 8 -12
12 -5 8 17 -9 15 5 -5 28 -10 11 -12 17 -5 13 20 -12 -2 26 -25 45 -15 11 -15
9 2 -11 l20 -25 -22 18 c-13 11 -19 25 -16 35 4 10 2 13 -5 8 -7 -4 -10 1 -7
13 2 11 -6 33 -18 48 -14 19 -16 23 -4 14 22 -17 22 -8 1 14 -10 9 -18 27 -19
39 -3 25 -32 86 -41 86 -3 0 -2 -5 2 -12 5 -7 3 -8 -5 -4 -7 5 -10 10 -7 13 7
7 -41 100 -56 109 -8 5 -7 0 2 -12 14 -17 14 -18 -2 -6 -9 8 -14 20 -12 27 4
8 -6 20 -23 29 -16 8 -36 23 -44 32 -11 14 -11 16 -1 10 11 -7 12 -4 3 13 -7
11 -14 21 -17 21 -3 0 -2 -6 2 -12 4 -7 -4 -4 -17 8 -35 30 -54 41 -44 23 5
-8 -7 -2 -27 14 -20 15 -42 27 -48 27 -6 0 -9 4 -6 9 3 5 -12 16 -34 25 -22 9
-40 21 -40 28 0 6 -3 8 -7 5 -3 -4 -12 1 -20 11 -10 11 -12 12 -8 2 4 -10 2
-9 -8 2 -8 10 -17 15 -20 11 -4 -3 -7 -1 -7 6 0 8 -6 11 -16 7 -8 -3 -13 -2
-10 3 6 8 -14 20 -78 46 -51 20 -67 19 -59 -2z"/>
<path d="M14986 32500 c-45 -4 -62 -11 -77 -29 -10 -13 -19 -27 -19 -31 0 -10
76 -24 88 -16 19 12 130 17 169 8 32 -7 47 -6 62 5 28 19 27 50 -1 59 -28 9
-143 11 -222 4z"/>
<path d="M11683 26731 c-7 -11 -20 -18 -30 -16 -19 3 -43 -12 -43 -27 0 -5 6
-6 13 -2 8 5 8 2 -2 -9 -14 -18 -26 -23 -16 -8 3 5 2 12 -3 15 -5 3 -9 0 -9
-7 0 -7 -3 -25 -6 -40 -8 -36 24 -71 59 -64 13 2 21 0 18 -4 -5 -8 17 -14 39
-10 4 0 7 -3 7 -7 0 -5 14 -9 31 -10 26 -1 30 3 27 21 -2 12 -9 21 -16 20 -17
-4 -15 2 5 18 14 12 16 12 8 0 -5 -9 -4 -12 3 -7 11 7 10 26 -4 60 -5 12 -4
17 3 13 5 -3 10 0 10 8 0 8 -3 14 -6 13 -23 -2 -32 4 -27 18 4 10 2 13 -6 8
-8 -5 -9 -2 -5 10 4 10 3 15 -3 11 -6 -3 -10 -1 -10 4 0 18 -24 12 -37 -8z"/>
<path d="M11016 26108 c-9 -5 -26 -8 -36 -5 -11 3 -28 -3 -40 -13 -11 -9 -38
-20 -59 -24 -21 -3 -44 -13 -51 -21 -7 -8 -29 -15 -49 -15 -20 0 -47 -7 -61
-15 -35 -20 -38 -21 -107 -41 -34 -10 -60 -20 -58 -24 2 -3 -12 -5 -31 -4 -19
2 -34 -1 -34 -8 0 -5 -8 -8 -18 -6 -11 3 -30 -1 -43 -8 -13 -7 -20 -13 -15
-14 22 0 -42 -42 -81 -53 -46 -12 -55 -31 -25 -53 25 -20 59 -17 137 12 39 14
90 31 115 38 25 7 54 18 65 24 23 14 90 38 158 57 26 7 53 18 60 23 7 6 30 13
52 17 22 4 51 13 65 20 14 7 70 25 125 41 105 29 125 39 125 59 0 8 -25 13
-82 14 -45 1 -84 4 -88 6 -3 2 -14 -1 -24 -7z"/>
<path d="M11115 25459 c-16 -6 -50 -14 -75 -19 -25 -5 -106 -29 -180 -54 -194
-65 -256 -84 -340 -108 -93 -26 -102 -34 -71 -59 27 -22 68 -25 96 -5 11 7 42
16 68 19 27 4 61 13 75 21 35 19 112 44 187 61 61 14 161 43 225 65 31 11 75
27 165 60 23 9 26 13 15 20 -19 12 -126 11 -165 -1z"/>
<path d="M10978 24747 c-60 -11 -60 -11 -85 -25 -12 -7 -32 -12 -45 -12 -13 0
-34 -7 -46 -16 -12 -8 -22 -13 -22 -10 0 16 -113 -37 -143 -68 -20 -20 -45
-36 -55 -36 -46 0 -189 -87 -171 -104 2 -2 77 0 167 4 122 6 168 12 187 24 13
9 29 16 36 16 6 0 48 18 92 39 45 22 94 43 109 46 15 4 32 13 39 21 6 8 18 14
26 14 7 0 36 11 63 25 27 14 55 25 63 25 16 0 63 47 55 56 -9 9 -222 10 -270
1z"/>
<path d="M14435 21592 c-22 -2 -45 -8 -52 -13 -6 -6 -24 -12 -40 -15 -71 -12
-85 -18 -123 -54 -22 -21 -40 -41 -40 -45 0 -3 -30 -35 -66 -70 -36 -36 -62
-65 -57 -65 4 0 -5 -11 -20 -25 -21 -21 -25 -30 -17 -44 5 -10 8 -20 5 -22 -2
-2 6 -5 18 -6 82 -9 105 -16 110 -34 7 -27 24 -24 44 9 10 15 26 34 36 42 18
15 17 16 -7 39 -14 14 -26 31 -26 39 0 9 -7 23 -16 33 -22 24 -11 81 14 72 28
-11 89 -78 96 -107 7 -28 30 -35 39 -12 3 8 27 18 52 22 44 6 47 8 40 33 -21
85 -18 134 12 145 25 10 32 -4 42 -83 5 -40 12 -75 15 -78 6 -6 57 -14 106
-16 33 -2 35 0 40 33 7 52 41 94 68 86 12 -4 22 -15 22 -25 0 -17 -29 -80 -52
-113 -10 -14 -8 -20 15 -38 15 -12 33 -27 40 -34 6 -7 24 -20 39 -30 17 -11
30 -30 34 -52 3 -19 10 -37 15 -40 5 -3 9 -14 9 -26 0 -11 8 -30 18 -43 l18
-22 26 26 c15 15 31 44 37 66 5 22 12 49 15 60 4 11 2 26 -3 34 -7 12 -17 9
-53 -12 -40 -23 -47 -25 -66 -12 -27 20 -19 45 25 73 42 27 100 30 106 5 3
-10 5 2 6 27 1 58 -28 103 -107 164 -80 61 -139 92 -192 101 -25 4 -52 11 -61
16 -19 10 -109 16 -164 11z"/>
<path d="M14408 21282 c-53 -14 -181 -99 -186 -124 -2 -11 15 -25 55 -43 32
-15 68 -32 81 -38 30 -14 45 -42 37 -68 -5 -16 -12 -19 -28 -14 -12 4 -34 9
-49 12 -15 3 -33 11 -39 19 -6 8 -24 14 -40 14 -15 0 -31 5 -34 10 -16 26 -24
-7 -19 -78 6 -89 10 -105 23 -98 5 3 7 -2 4 -13 -7 -27 17 -38 34 -16 12 17
13 17 13 2 0 -9 -4 -17 -10 -17 -18 0 -10 -24 19 -58 20 -24 36 -33 52 -30 34
5 34 25 -1 31 -44 9 -50 35 -14 64 16 12 34 23 40 23 6 0 17 6 23 14 10 12 5
17 -28 27 -40 12 -55 39 -30 54 12 8 66 -12 92 -33 9 -8 19 -13 22 -10 8 8 27
100 29 138 2 42 28 52 57 21 15 -16 19 -35 19 -99 0 -66 3 -82 20 -97 11 -10
20 -26 20 -36 0 -10 5 -30 10 -45 10 -26 11 -26 25 -8 14 18 14 17 5 -9 -5
-16 -10 -45 -10 -65 l0 -36 20 22 c24 25 29 72 6 53 -12 -10 -13 -8 -9 9 6 21
43 49 43 31 0 -5 -8 -12 -17 -14 -17 -4 -17 -5 0 -6 12 -1 16 -6 11 -13 -4 -7
2 -4 14 6 23 20 30 32 12 21 -5 -3 -10 1 -10 10 0 9 5 13 10 10 6 -3 10 -1 10
6 0 8 5 8 18 -2 9 -7 14 -10 10 -5 -13 15 20 63 52 76 36 15 44 39 38 124 -3
56 -9 72 -52 135 -50 75 -92 113 -104 94 -15 -24 -46 -18 -61 12 -8 17 -19 33
-25 38 -10 7 -129 6 -158 -1z"/>
<path d="M14781 20729 c-21 -8 -22 -13 -16 -47 4 -20 13 -44 20 -52 7 -8 15
-31 17 -50 2 -29 7 -34 23 -32 11 2 32 18 47 35 22 27 24 34 14 47 -7 8 -16
27 -20 42 -9 38 -54 68 -85 57z"/>
<path d="M14188 20710 c-7 -11 -24 -20 -38 -20 -30 -1 -60 -22 -60 -42 0 -21
67 -87 104 -104 17 -8 46 -23 64 -34 l32 -20 0 28 c0 16 7 37 15 48 16 21 19
34 7 34 -4 0 -16 -13 -25 -30 -12 -20 -26 -30 -42 -30 -37 0 -37 13 -5 76 31
58 33 84 6 84 -8 0 -21 7 -30 15 -14 14 -17 14 -28 -5z"/>
<path d="M14625 20630 c-13 -25 -20 -29 -43 -24 l-27 5 0 -85 c0 -84 1 -86 24
-86 46 0 156 40 191 70 33 28 34 29 11 30 -23 0 -121 89 -121 110 0 20 -20 9
-35 -20z"/>
<path d="M14447 20616 c-9 -13 -30 -27 -46 -31 -52 -11 -104 -125 -58 -125 8
0 27 -6 43 -14 29 -15 137 -16 151 -3 4 4 -2 14 -14 22 -16 11 -22 30 -27 84
-8 81 -25 104 -49 67z"/>
</g>
</svg>
