<?xml version="1.0" standalone="no"?>
<!DOCTYPE svg PUBLIC "-//W3C//DTD SVG 20010904//EN"
 "http://www.w3.org/TR/2001/REC-SVG-20010904/DTD/svg10.dtd">
<svg version="1.0" xmlns="http://www.w3.org/2000/svg"
 width="3024.000000pt" height="4032.000000pt" viewBox="0 0 3024.000000 4032.000000"
 preserveAspectRatio="xMidYMid meet">
<metadata>
Created by potrace 1.16, written by Peter Selinger 2001-2019
</metadata>
<g transform="translate(0.000000,4032.000000) scale(0.100000,-0.100000)"
fill="#000000" stroke="none">
<path d="M14980 28899 l25 -7 -27 -1 c-15 -1 -30 -6 -33 -11 -4 -6 -10 -8 -14
-6 -12 8 -94 -14 -111 -29 -8 -8 -29 -13 -46 -13 -32 1 -89 -15 -132 -38 -15
-8 -32 -14 -37 -14 -6 0 -16 -9 -23 -20 -8 -14 -23 -20 -47 -20 -21 0 -38 -6
-41 -14 -3 -8 -17 -13 -34 -12 -17 1 -26 -2 -23 -8 4 -5 -1 -7 -10 -3 -9 3
-16 3 -16 -1 4 -25 -3 -34 -21 -29 -13 3 -18 1 -13 -6 4 -6 0 -8 -10 -4 -11 4
-14 2 -11 -7 3 -7 -5 -20 -18 -28 -13 -9 -39 -30 -58 -48 -75 -68 -122 -104
-143 -106 -12 -1 -26 -3 -30 -3 -5 -1 -6 -5 -3 -10 8 -12 -19 -33 -29 -23 -5
4 -5 1 -1 -6 5 -8 -5 -26 -23 -48 -17 -19 -31 -41 -31 -49 0 -16 -66 -59 -79
-51 -5 4 -13 1 -17 -5 -4 -8 -3 -9 4 -5 24 15 11 -14 -23 -49 -22 -24 -40 -35
-50 -31 -9 3 -13 2 -10 -4 3 -5 -4 -14 -16 -20 -13 -7 -19 -8 -15 -2 10 16
-56 -18 -77 -40 -10 -10 -23 -16 -28 -12 -5 3 -28 -10 -49 -30 -22 -20 -37
-36 -33 -36 5 0 -7 -14 -26 -30 -18 -17 -30 -30 -25 -30 5 0 2 -5 -6 -10 -13
-9 -13 -10 0 -10 13 0 13 -1 0 -10 -12 -8 -12 -10 -1 -10 11 0 11 -3 0 -17 -8
-9 -9 -14 -4 -11 12 7 14 -161 2 -179 -5 -8 -3 -13 5 -13 10 0 10 -2 0 -9 -8
-4 -14 -12 -14 -16 0 -4 6 -12 14 -16 7 -5 8 -9 2 -9 -6 0 -11 -7 -11 -15 0
-8 4 -15 8 -15 4 0 6 -8 4 -17 -1 -10 3 -24 9 -32 9 -12 8 -13 -2 -7 -11 7
-12 4 -3 -13 7 -11 8 -21 4 -21 -4 0 -1 -5 7 -10 11 -7 11 -10 2 -10 -9 0 -10
-5 -4 -16 6 -10 6 -32 1 -53 -5 -20 -11 -248 -14 -507 -3 -286 -9 -482 -15
-499 -6 -15 -8 -30 -5 -35 6 -9 -54 -70 -69 -70 -10 0 -72 -51 -68 -57 1 -2
-4 -14 -13 -26 -12 -19 -15 -56 -13 -193 1 -100 7 -187 14 -214 7 -25 15 -70
18 -102 3 -31 10 -76 15 -100 6 -23 12 -61 15 -83 2 -22 8 -60 14 -85 51 -216
51 -220 28 -330 -9 -40 31 -143 83 -212 53 -71 77 -117 85 -168 3 -19 15 -66
26 -105 12 -38 22 -76 23 -83 2 -7 9 -18 15 -24 7 -7 12 -17 12 -23 0 -5 6
-21 13 -35 7 -14 21 -47 31 -75 20 -54 52 -111 74 -134 21 -21 55 -80 77 -131
31 -72 124 -192 261 -334 6 -6 41 -38 78 -70 65 -59 67 -61 65 -105 -1 -26 3
-56 9 -67 6 -12 9 -24 5 -27 -3 -4 0 -13 6 -21 9 -11 9 -16 0 -22 -7 -4 -9 -3
-5 4 3 6 2 13 -3 16 -5 3 -12 -1 -15 -9 -3 -8 -9 -14 -13 -13 -16 6 -101 -58
-124 -92 -13 -19 -28 -38 -32 -41 -5 -3 -9 -10 -9 -15 -2 -24 -61 -94 -80 -94
-4 0 -8 -7 -8 -15 0 -8 -4 -15 -9 -15 -6 0 -22 -11 -37 -25 -15 -14 -31 -25
-36 -25 -6 0 -21 -9 -35 -20 -14 -11 -34 -20 -43 -20 -10 0 -23 -7 -30 -15 -7
-8 -20 -15 -29 -15 -10 0 -32 -11 -51 -25 -19 -14 -40 -25 -48 -25 -8 0 -25
-9 -39 -20 -14 -11 -35 -20 -45 -20 -11 0 -31 -9 -45 -20 -14 -11 -36 -20 -48
-20 -12 0 -28 -7 -35 -15 -7 -8 -27 -17 -46 -21 -18 -3 -38 -12 -44 -19 -6 -8
-24 -17 -40 -20 -16 -3 -34 -13 -41 -21 -6 -8 -20 -14 -30 -14 -24 0 -89 -57
-89 -79 0 -9 -6 -23 -12 -30 -11 -11 -10 -12 2 -6 13 8 13 7 1 -8 -8 -10 -16
-15 -19 -13 -2 3 -12 -5 -22 -16 -12 -15 -29 -22 -54 -22 -19 0 -31 -3 -25 -7
7 -4 4 -9 -8 -14 -27 -12 -28 -12 -105 -14 -51 -1 -69 -4 -58 -11 13 -8 12
-10 -2 -10 -10 0 -18 -3 -18 -7 0 -5 -34 -9 -77 -11 -56 -2 -79 -7 -88 -18 -7
-10 -32 -18 -70 -21 -36 -3 -63 -10 -70 -19 -6 -9 -30 -18 -54 -21 -24 -3 -52
-14 -62 -24 -13 -13 -31 -17 -67 -16 -28 1 -48 -1 -45 -5 2 -5 -1 -8 -7 -8 -6
0 -8 -5 -5 -10 4 -6 3 -10 -2 -9 -25 4 -45 -4 -68 -28 -14 -16 -31 -28 -38
-28 -6 0 -12 -4 -12 -10 0 -19 -16 -35 -28 -29 -7 4 -9 4 -5 -1 4 -4 -3 -16
-15 -27 -12 -11 -15 -17 -7 -13 10 4 9 2 -2 -8 -10 -8 -18 -22 -18 -31 0 -8
-9 -21 -19 -28 -10 -6 -17 -18 -14 -25 3 -7 -2 -13 -12 -13 -9 0 -13 -4 -10
-10 3 -5 1 -10 -4 -10 -6 0 -10 -3 -9 -8 2 -4 -9 -21 -24 -37 -16 -16 -29 -35
-29 -42 -1 -7 -3 -17 -4 -23 -1 -5 -3 -15 -4 -21 0 -5 -5 -7 -11 -4 -5 3 -10
0 -10 -8 0 -8 -11 -35 -25 -61 -14 -26 -19 -44 -13 -41 7 4 5 0 -4 -8 -10 -8
-19 -26 -20 -41 -1 -14 -6 -26 -11 -26 -4 0 -5 -4 -2 -10 3 -5 3 -10 -2 -10
-9 0 -44 -103 -46 -137 -1 -13 -5 -23 -10 -23 -4 0 -6 -4 -3 -9 4 -5 2 -11 -4
-13 -5 -1 -10 -18 -12 -35 -1 -18 -5 -33 -9 -33 -8 0 -20 -61 -21 -108 -1 -25
-4 -30 -14 -21 -11 9 -11 5 -5 -18 5 -18 5 -37 -1 -47 -5 -10 -7 -28 -4 -42 4
-13 2 -24 -3 -24 -6 0 -8 -7 -5 -15 4 -8 1 -15 -4 -15 -13 0 -22 -27 -27 -81
-3 -23 -8 -46 -12 -53 -5 -6 -6 -94 -3 -194 3 -101 1 -186 -3 -189 -5 -3 -7
-16 -4 -29 2 -13 0 -24 -4 -24 -5 0 -6 -7 -3 -15 4 -8 1 -15 -4 -15 -6 0 -14
-17 -18 -37 -4 -21 -11 -47 -17 -58 -6 -11 -11 -31 -12 -45 -9 -109 -18 -170
-26 -170 -5 0 -9 -44 -8 -97 1 -57 5 -90 9 -78 6 16 9 10 14 -25 4 -25 8 -68
9 -97 1 -28 5 -46 9 -40 15 25 20 -80 16 -395 -2 -250 -6 -339 -16 -350 -9
-11 -12 -75 -14 -232 0 -122 -5 -216 -10 -216 -5 0 -7 4 -3 9 3 5 1 12 -4 15
-9 6 -10 -36 0 -44 6 -4 18 -442 20 -695 1 -62 3 -72 9 -45 6 31 8 32 9 8 0
-14 4 -34 8 -44 4 -12 3 -15 -5 -10 -8 5 -12 -3 -12 -24 0 -20 -4 -29 -11 -24
-8 4 -9 -3 -4 -26 6 -28 5 -32 -9 -27 -10 4 -16 2 -15 -6 3 -24 -1 -37 -12
-35 -17 5 -41 -73 -45 -146 -2 -38 -10 -79 -18 -91 -7 -11 -14 -40 -14 -63 -1
-57 -11 -89 -23 -71 -5 8 -8 -36 -8 -111 1 -69 4 -114 8 -100 6 21 9 16 19
-30 6 -30 9 -66 6 -80 -6 -23 -5 -24 8 -7 13 17 14 17 15 -5 2 -37 -7 -69 -17
-63 -6 4 -10 -20 -10 -61 0 -54 -5 -76 -25 -111 -14 -23 -33 -43 -42 -43 -9 0
-13 -3 -10 -6 12 -12 -14 -46 -30 -40 -9 4 -13 1 -10 -6 6 -18 -12 -50 -24
-42 -6 3 -10 0 -8 -7 3 -27 -1 -40 -11 -34 -6 4 -7 -1 -3 -11 4 -11 2 -15 -4
-11 -6 4 -11 -5 -11 -21 -1 -15 -4 -66 -8 -114 -4 -55 -2 -88 4 -88 5 0 8 -14
6 -31 -2 -16 0 -28 5 -25 12 8 34 -21 27 -33 -4 -6 2 -8 13 -6 15 3 19 -1 16
-16 -2 -11 0 -17 5 -14 5 3 11 1 15 -5 4 -6 11 -7 17 -4 6 4 8 2 4 -4 -3 -6 1
-15 10 -20 11 -6 14 -16 9 -31 -3 -12 -11 -18 -17 -15 -7 5 -9 1 -5 -9 4 -10
2 -17 -4 -17 -6 0 -9 -7 -5 -15 3 -8 1 -15 -5 -15 -6 0 -7 -4 -4 -10 3 -5 0
-10 -8 -10 -10 0 -13 -7 -10 -20 3 -11 -3 -32 -13 -47 -10 -16 -17 -32 -16
-37 4 -13 -19 -67 -27 -62 -14 9 -17 -126 -10 -582 2 -149 1 -272 -3 -272 -4
0 -4 -17 -1 -37 5 -29 3 -35 -8 -31 -12 5 -14 -17 -13 -126 1 -72 -2 -122 -6
-111 -4 11 -5 -13 -2 -54 4 -54 2 -72 -7 -67 -8 5 -11 -39 -11 -168 0 -122 3
-176 11 -176 6 0 8 -7 5 -16 -3 -8 -2 -13 3 -10 5 3 9 -13 9 -36 1 -24 5 -44
11 -46 15 -5 -6 -52 -39 -87 -40 -43 -69 -95 -62 -113 4 -11 2 -13 -8 -7 -9 6
-11 4 -5 -5 4 -7 2 -15 -4 -20 -8 -4 -12 -41 -13 -106 0 -69 -3 -91 -9 -74 -6
16 -7 2 -3 -40 3 -36 8 -119 10 -184 3 -74 9 -125 17 -134 19 -24 20 -689 1
-719 -8 -13 -15 -45 -15 -73 -1 -27 -5 -47 -10 -44 -5 3 -6 -1 -3 -9 3 -8 1
-18 -5 -22 -6 -3 -11 -18 -11 -33 0 -35 -11 -73 -19 -68 -3 2 -7 -15 -9 -38
-5 -71 -7 -81 -19 -94 -7 -7 -13 -26 -13 -42 0 -33 -9 -62 -19 -56 -3 2 -6 -6
-7 -17 -3 -57 -9 -97 -15 -97 -3 0 -11 -15 -16 -32 -5 -18 -15 -32 -22 -30 -7
1 -10 -2 -7 -7 10 -15 -13 -63 -26 -55 -7 4 -8 3 -4 -4 4 -6 2 -21 -5 -33 -9
-18 -13 -19 -21 -8 -8 11 -9 10 -4 -4 7 -22 -15 -72 -25 -56 -4 7 -7 -4 -7
-24 0 -38 -9 -60 -20 -53 -4 2 -8 -13 -8 -34 -2 -56 -14 -97 -23 -81 -5 7 -8
-104 -8 -248 0 -143 4 -258 8 -255 10 6 22 -36 23 -78 1 -15 4 -28 8 -28 3 0
12 -17 19 -37 19 -60 75 -164 83 -156 4 5 6 3 4 -2 -4 -13 44 -115 54 -115 5
0 8 -6 8 -14 0 -17 101 -220 112 -224 4 -2 8 -14 8 -26 0 -12 5 -27 11 -33 12
-12 23 -30 63 -108 34 -64 49 -89 65 -109 7 -9 11 -25 8 -36 -3 -11 -1 -17 4
-14 5 3 16 -10 24 -28 18 -40 37 -71 48 -79 5 -3 8 -10 8 -15 -1 -5 19 -49 44
-99 24 -49 46 -101 47 -115 2 -14 9 -30 17 -36 7 -6 14 -24 14 -41 1 -17 4
-30 8 -27 10 6 30 -46 23 -58 -4 -6 -2 -8 4 -4 13 8 21 -5 24 -38 1 -14 5 -26
9 -26 9 0 31 -62 24 -68 -2 -3 1 -10 8 -16 8 -6 21 -30 30 -53 9 -24 24 -60
32 -80 8 -21 16 -57 17 -80 2 -24 8 -43 14 -43 6 0 12 -23 14 -53 5 -97 7
-112 18 -110 5 1 9 -3 9 -10 -1 -48 5 -88 16 -99 7 -7 14 -31 15 -53 2 -22 10
-59 19 -82 8 -23 13 -47 10 -55 -2 -7 4 -30 14 -50 11 -21 19 -47 19 -58 0
-12 7 -35 16 -52 9 -17 14 -41 11 -54 -2 -13 -1 -21 3 -19 4 3 13 -10 20 -28
6 -17 18 -47 26 -65 8 -18 14 -41 14 -50 0 -10 7 -28 16 -40 9 -13 14 -34 11
-48 -3 -16 0 -24 10 -24 8 0 11 -4 8 -10 -3 -6 -2 -10 2 -10 5 0 10 -12 11
-27 2 -30 53 -169 79 -216 8 -16 12 -40 9 -55 -3 -15 -3 -22 0 -15 4 10 8 10
19 0 7 -7 11 -15 9 -19 -5 -7 35 -108 45 -118 4 -3 8 -14 9 -25 2 -11 13 -40
24 -64 11 -24 17 -52 15 -62 -3 -11 -1 -17 4 -14 4 3 11 -7 15 -22 3 -15 13
-38 21 -51 7 -12 15 -36 16 -51 1 -16 5 -27 9 -25 10 6 28 -64 21 -84 -4 -14
-3 -14 5 -3 8 11 13 5 21 -27 7 -23 16 -44 21 -47 6 -3 10 -15 10 -25 0 -10 7
-25 15 -34 8 -8 15 -26 15 -40 0 -14 4 -27 10 -31 5 -3 7 -12 3 -20 -3 -8 -1
-15 4 -15 8 0 13 -36 17 -137 1 -11 4 -19 8 -17 7 4 13 -25 21 -96 2 -19 9
-55 15 -80 22 -93 36 -177 38 -230 1 -30 10 -83 19 -118 8 -35 15 -82 14 -105
-1 -23 6 -80 16 -126 11 -56 16 -112 13 -168 -2 -46 -1 -78 3 -71 15 23 26
-35 27 -135 1 -54 5 -103 9 -110 4 -7 8 -23 9 -37 9 -137 17 -205 29 -262 8
-37 12 -92 10 -123 -4 -42 -1 -61 10 -71 14 -14 18 -49 17 -134 -1 -19 6 -50
15 -69 9 -19 16 -64 17 -105 0 -41 6 -77 14 -84 6 -7 13 -30 13 -50 3 -78 5
-88 16 -108 7 -12 14 -46 15 -75 2 -30 8 -60 15 -67 12 -12 17 -44 16 -97 0
-11 6 -25 13 -32 6 -7 15 -31 19 -53 4 -22 10 -40 14 -40 8 0 14 -53 15 -122
0 -21 3 -33 7 -27 10 17 19 -46 19 -135 0 -52 4 -76 9 -67 16 25 21 -39 25
-288 2 -128 8 -236 13 -240 5 -3 10 -64 12 -136 2 -127 14 -196 47 -273 8 -18
14 -37 14 -42 0 -11 71 -163 79 -170 3 -3 7 -13 9 -24 2 -10 16 -44 32 -75 15
-31 42 -87 60 -126 17 -38 38 -82 46 -97 8 -14 14 -33 14 -41 0 -8 7 -20 15
-27 8 -7 15 -21 15 -30 0 -10 6 -31 14 -47 8 -15 22 -46 32 -68 9 -22 23 -53
31 -68 8 -15 12 -35 9 -43 -3 -8 -2 -13 3 -10 10 7 37 -52 28 -61 -4 -3 1 -11
10 -18 8 -6 16 -26 17 -42 0 -17 4 -29 7 -27 9 5 52 -95 52 -122 0 -13 3 -21
8 -18 5 3 12 -3 15 -13 4 -10 22 -50 40 -90 19 -39 34 -74 34 -78 0 -4 6 -12
13 -19 7 -7 12 -36 12 -64 0 -27 3 -48 7 -46 11 7 17 -26 19 -106 2 -41 7 -81
13 -88 5 -8 13 -41 17 -74 4 -33 11 -63 16 -67 12 -9 18 -88 18 -241 0 -233
-9 -444 -19 -458 -5 -8 -9 -166 -9 -395 0 -470 0 -476 13 -457 8 12 10 9 10
-12 l0 -28 2865 0 2865 0 -6 113 c-3 61 -8 119 -12 127 -6 16 -11 112 -10 225
0 162 -15 506 -22 495 -14 -23 -17 19 -18 218 -1 154 -4 196 -16 207 -9 10
-14 36 -15 75 0 41 -5 65 -15 76 -12 11 -15 31 -12 74 2 33 0 58 -4 55 -9 -6
-30 40 -30 65 0 11 -5 20 -11 20 -5 0 -7 5 -4 10 3 6 2 10 -3 10 -6 0 -9 18
-8 40 0 22 -2 40 -6 40 -11 0 -27 67 -21 90 4 14 1 20 -7 18 -15 -4 -31 47
-27 82 2 14 2 19 -1 11 -2 -9 -10 -2 -19 19 -14 35 -9 115 6 105 5 -2 11 24
14 58 7 70 17 104 26 88 6 -9 16 237 15 364 -3 396 -7 564 -14 560 -11 -7 -20
58 -23 171 -1 56 -6 90 -12 88 -6 -2 -11 17 -12 43 -1 27 -8 82 -14 123 -10
64 -9 86 6 154 12 54 20 74 27 65 5 -9 6 3 2 32 -6 50 13 170 25 150 4 -6 7
25 6 69 -1 44 2 80 6 80 4 0 5 10 1 22 -3 14 -2 19 6 14 8 -5 12 6 13 36 1
100 8 157 19 179 7 13 13 36 12 51 0 16 3 26 9 23 5 -3 6 1 3 9 -3 9 -1 16 5
16 6 0 11 10 11 22 0 43 42 170 91 273 16 33 29 66 29 72 0 6 6 24 14 40 38
78 67 158 74 203 2 19 11 44 18 55 8 11 14 32 14 46 0 41 11 64 21 47 5 -8 9
13 9 53 0 37 7 86 15 109 8 23 15 57 15 74 0 17 3 42 7 55 6 23 7 23 14 5 3
-10 7 30 7 89 1 118 11 194 21 164 4 -10 7 25 8 77 1 52 4 105 9 118 7 22 7
22 14 3 4 -12 7 1 7 35 0 67 11 109 23 89 6 -8 9 2 8 27 0 52 10 86 24 78 7
-5 9 2 6 21 -7 34 9 98 23 90 5 -4 9 9 9 29 0 41 9 68 20 61 5 -3 8 15 8 40 0
50 8 69 24 59 7 -5 9 0 5 15 -7 27 10 91 25 91 6 0 8 9 5 20 -8 29 14 105 25
88 6 -9 8 -4 7 17 -2 55 1 73 17 89 9 10 13 24 9 36 -8 24 12 90 27 90 5 0 7
12 3 29 -4 18 0 43 11 67 9 22 18 57 19 79 1 22 10 57 19 77 10 20 15 42 12
47 -10 15 5 62 17 54 6 -3 7 -1 3 5 -4 7 -4 18 1 25 4 6 8 30 9 53 1 22 7 51
15 65 7 13 12 32 10 42 -1 10 4 39 13 65 8 26 18 65 21 86 5 27 9 35 15 26 8
-12 12 35 11 108 -1 13 6 39 14 58 8 19 16 57 17 85 2 27 6 49 10 49 8 0 16
43 20 105 2 22 6 43 10 46 5 3 12 43 16 90 5 47 14 94 20 105 7 13 8 32 3 50
-9 32 -14 33 -99 15 -29 -6 -72 -8 -97 -4 -41 5 -47 3 -72 -27 -66 -76 -207
-132 -340 -134 -75 -1 -85 1 -125 29 -23 17 -49 45 -57 63 -17 38 -32 40 -86
11 -36 -19 -49 -21 -130 -14 -49 4 -103 7 -120 6 -46 -2 -128 33 -145 62 -13
23 -13 28 4 46 11 12 25 21 33 21 7 0 16 7 20 16 3 9 26 34 50 56 45 42 57 83
28 94 -20 8 -45 -13 -45 -39 0 -25 -38 -87 -54 -87 -7 0 -22 -13 -34 -30 -13
-16 -31 -30 -41 -30 -10 0 -29 -8 -42 -19 -37 -29 -112 -58 -167 -66 -68 -9
-118 7 -158 51 -33 36 -34 39 -34 125 0 92 -14 127 -25 62 -11 -63 -23 -92
-67 -162 -47 -75 -105 -139 -160 -178 -34 -23 -49 -26 -114 -26 -56 0 -79 4
-91 16 -22 22 -29 129 -13 182 46 152 72 287 75 390 2 89 8 125 30 185 15 41
33 96 41 123 8 26 21 71 30 100 30 99 76 272 84 317 9 48 59 206 81 255 20 45
95 140 152 193 28 26 59 55 68 64 10 9 67 56 126 104 59 47 142 119 184 159
88 84 106 93 141 66 13 -11 38 -23 54 -27 16 -3 83 -24 148 -45 66 -22 129
-39 141 -39 12 0 48 -9 80 -20 32 -11 79 -20 104 -20 25 0 69 0 96 -1 54 0 75
-15 75 -56 0 -28 4 -28 38 -4 26 18 29 18 97 1 48 -13 88 -17 128 -13 50 5 61
3 80 -15 13 -12 37 -25 55 -28 18 -4 35 -11 38 -15 3 -5 18 -9 35 -9 62 0 110
-23 130 -63 11 -20 22 -37 25 -37 3 0 10 13 15 30 8 21 17 30 33 30 39 0 57
-22 59 -70 2 -38 5 -45 25 -48 12 -2 22 1 22 6 0 10 62 40 96 46 25 5 100 -36
97 -52 -2 -7 -4 -17 -5 -24 -5 -24 28 -13 60 19 35 35 78 44 88 18 4 -9 -12
-52 -35 -98 -22 -45 -41 -87 -41 -92 0 -6 -8 -18 -17 -27 -57 -55 -57 -55 -40
-90 9 -19 17 -60 17 -93 2 -75 17 -125 36 -125 11 0 14 -6 9 -22 -5 -18 -2
-16 13 7 28 43 57 67 86 69 13 0 22 3 20 5 -9 10 20 31 43 31 13 0 22 4 19 9
-10 15 23 34 56 33 19 0 27 2 20 7 -19 12 10 32 47 33 17 1 28 5 24 11 -7 12
16 27 43 27 13 0 24 8 27 20 4 15 14 20 37 20 17 0 29 4 26 9 -8 12 21 34 34
26 5 -3 10 -1 10 5 0 6 5 8 12 4 6 -4 8 -3 5 3 -9 15 17 35 40 31 9 -2 18 3
19 10 1 6 2 17 3 23 0 5 6 7 11 4 6 -3 15 6 20 20 5 14 14 24 19 20 5 -3 11 5
13 17 2 13 9 22 16 21 15 -4 16 71 1 137 -5 25 -12 63 -15 85 -3 22 -12 56
-19 77 -8 20 -15 63 -17 96 -2 33 -6 58 -10 56 -8 -5 -21 56 -17 82 2 11 -5
43 -15 71 -9 29 -15 62 -11 73 3 11 2 20 -3 20 -6 0 -8 10 -5 23 4 18 3 19 -6
7 -6 -8 -11 -10 -12 -5 0 6 -2 30 -4 55 -2 25 -6 79 -10 122 -4 52 -3 78 5 83
6 4 9 13 6 21 -8 20 5 49 14 33 5 -7 8 4 8 25 0 20 10 55 22 77 11 23 19 48
16 56 -3 8 -2 11 3 8 13 -7 22 26 22 77 0 57 8 85 19 68 5 -8 8 5 8 33 0 65
12 114 23 96 6 -10 9 -3 9 21 0 32 3 71 9 110 2 11 5 10 11 -5 9 -20 9 -16 10
90 0 39 11 70 20 56 4 -8 8 6 8 36 0 27 3 65 7 84 7 29 9 31 15 14 4 -11 8 14
8 59 1 44 4 100 8 125 6 39 9 42 14 21 3 -14 5 26 3 88 -3 124 4 202 18 180 6
-8 9 6 9 37 2 79 7 117 18 124 6 3 13 23 16 44 3 20 8 53 12 72 3 20 9 33 15
30 5 -4 9 25 9 72 0 86 7 126 21 117 5 -3 9 21 8 53 -1 74 10 140 22 121 5 -7
8 18 7 62 -1 83 9 143 23 135 5 -3 8 24 7 62 -1 75 9 133 23 133 5 0 8 30 7
68 -1 85 10 154 24 145 8 -4 9 11 5 49 -3 33 1 83 11 129 12 56 15 123 13 279
-2 230 11 429 29 440 7 4 11 26 10 51 -4 67 -1 91 10 84 6 -3 7 1 4 10 -4 8
-1 22 6 30 7 8 10 21 7 29 -7 18 11 86 22 86 5 0 9 10 9 23 0 30 32 118 41
112 4 -2 8 1 9 8 0 7 3 21 6 32 2 11 5 24 5 28 1 5 5 6 10 2 6 -3 9 3 9 12 -1
10 2 36 6 57 6 29 10 36 17 25 6 -9 9 16 10 71 3 120 0 143 -18 157 -9 7 -14
16 -10 19 4 4 -2 14 -13 21 -15 10 -19 21 -15 36 5 16 4 18 -3 8 -8 -10 -13
-8 -25 10 -9 12 -14 26 -11 31 3 5 0 7 -8 6 -7 -2 -13 5 -13 14 0 9 -4 20 -9
25 -5 5 -6 2 -1 -7 8 -13 6 -13 -7 -2 -9 8 -15 19 -12 27 3 7 0 16 -7 21 -8 5
-10 3 -4 -7 6 -11 5 -11 -5 -3 -13 13 -4 58 11 49 5 -3 6 1 3 9 -6 16 42 106
58 106 5 0 7 4 3 10 -3 5 3 18 15 30 11 11 19 23 19 27 -3 20 2 34 11 28 6 -3
11 4 11 17 1 13 2 34 3 48 1 14 4 50 6 80 l3 55 7 -40 c5 -30 7 -17 7 50 1 54
-2 78 -6 60 -6 -26 -8 -23 -14 27 -4 31 -4 64 -1 72 3 9 1 23 -6 31 -6 8 -9
24 -5 37 4 16 4 19 -3 9 -8 -11 -11 -10 -16 6 -4 11 -4 28 0 37 3 9 1 23 -6
31 -10 12 -10 30 0 90 7 40 10 81 6 91 -8 22 4 90 14 74 4 -6 7 57 7 140 1
102 -3 148 -9 139 -7 -10 -8 -8 -5 9 3 12 2 22 -1 22 -4 0 -8 35 -10 78 -2 81
-9 115 -20 108 -4 -2 -8 17 -9 43 -3 64 -11 93 -25 85 -6 -4 -8 -3 -4 4 11 17
-5 96 -16 80 -7 -9 -8 -4 -3 15 3 16 2 26 -2 24 -4 -3 -9 14 -9 36 -3 86 -28
301 -40 342 -27 94 -57 356 -34 310 7 -15 8 -11 4 18 -4 25 -2 37 6 37 8 0 11
19 8 65 -1 36 1 65 6 65 8 0 0 172 -11 217 -3 13 -10 20 -16 16 -5 -3 -7 -1
-4 4 10 16 -13 74 -26 66 -6 -4 -8 0 -4 10 3 10 2 17 -4 17 -6 0 -7 5 -4 10 4
6 3 34 -1 63 -5 41 -9 48 -15 32 -7 -17 -8 -15 -7 10 3 84 -2 146 -13 139 -9
-5 -10 1 -5 20 4 15 3 25 -2 22 -5 -3 -10 37 -11 88 -1 51 -7 109 -13 127 -6
19 -14 59 -18 89 -6 52 -17 111 -42 240 -5 30 -14 78 -18 105 -10 75 -30 174
-45 230 -29 105 -45 195 -45 246 0 30 -7 130 -15 222 -12 139 -18 174 -36 198
-16 23 -25 28 -45 23 -24 -6 -29 3 -25 48 1 9 -2 19 -8 22 -5 3 -7 15 -4 26 3
11 1 20 -3 20 -5 0 -10 28 -12 62 -2 34 -10 75 -19 91 -8 16 -15 49 -15 73 0
24 -4 46 -9 49 -5 4 -6 -2 -2 -12 3 -10 3 -15 -1 -12 -4 4 -9 22 -11 40 -2 19
-15 57 -30 84 -14 28 -24 42 -21 32 3 -10 2 -16 -3 -13 -5 4 -7 25 -5 49 3 29
2 36 -4 22 -14 -32 -30 66 -25 150 3 48 1 65 -6 56 -12 -18 -25 40 -25 109 0
25 -4 48 -10 51 -5 4 -15 35 -22 70 -7 35 -19 92 -26 127 -7 34 -16 62 -21 62
-4 0 -5 5 -2 10 3 6 2 10 -2 10 -5 0 -8 20 -9 44 0 38 2 42 12 28 10 -13 10
-4 -1 37 -8 30 -19 59 -24 64 -6 6 -11 21 -11 34 0 12 -6 37 -14 55 -21 51
-46 134 -46 152 0 9 -13 44 -29 79 -16 34 -48 103 -71 152 -81 174 -142 289
-169 320 -9 12 -36 45 -59 74 -24 30 -62 67 -86 83 -24 16 -50 35 -56 43 -7 8
-18 15 -25 15 -7 0 -16 7 -19 15 -3 9 -19 21 -36 26 -16 6 -30 15 -30 19 0 4
-19 16 -42 26 -24 10 -51 22 -60 26 -10 4 -18 3 -18 -2 0 -6 8 -10 19 -10 10
0 24 -6 30 -14 10 -12 6 -12 -35 0 -26 8 -50 17 -53 21 -3 3 2 3 12 0 9 -4 17
-2 17 4 0 7 -17 9 -47 6 -52 -5 -143 7 -183 25 -14 6 -66 12 -116 13 -97 2
-176 21 -153 36 9 6 -4 8 -36 8 -54 -2 -85 4 -112 21 -15 8 -12 9 12 4 17 -3
37 -8 47 -10 9 -3 19 -1 22 4 3 5 0 9 -7 10 -7 0 -22 3 -33 5 -12 3 -38 8 -59
11 -20 3 -44 10 -53 15 -9 5 -41 12 -71 16 -64 8 -76 11 -116 24 -50 16 -146
41 -220 57 -83 17 -78 16 -71 5 5 -8 -86 11 -124 26 -8 3 -23 7 -32 8 -10 1
-21 5 -25 10 -5 4 1 5 11 1 16 -5 17 -4 6 9 -7 8 -22 15 -34 15 -11 0 -41 9
-65 20 -24 11 -55 20 -70 20 -14 0 -46 9 -70 20 -24 11 -49 20 -56 20 -8 0
-26 5 -42 11 -15 6 -30 10 -32 9 -2 -1 -7 3 -10 8 -3 5 -27 12 -54 15 -26 3
-53 9 -60 14 -18 11 -47 17 -94 17 -22 1 -39 5 -36 10 3 4 -4 5 -15 2 -12 -4
-23 -2 -28 5 -4 8 -3 9 4 5 7 -4 12 -3 12 3 0 11 -55 25 -68 17 -5 -3 -18 1
-28 10 -18 14 -17 14 6 4 l25 -11 -24 20 c-13 12 -29 21 -36 21 -7 0 -21 3
-31 7 -12 5 -15 3 -9 -6 6 -11 3 -11 -16 -1 -30 16 -39 25 -16 17 9 -4 17 -2
17 3 0 5 -17 12 -37 15 -21 4 -54 13 -73 21 -19 7 -63 18 -97 23 -34 5 -70 14
-80 19 -10 5 -38 13 -63 17 -25 4 -50 11 -56 16 -6 5 -28 15 -50 23 -21 7 -61
27 -89 43 -27 16 -78 40 -113 53 -42 17 -77 39 -102 66 -22 23 -49 50 -62 60
-13 11 -41 42 -63 69 -21 28 -48 60 -59 71 -53 54 -84 91 -102 119 -10 17 -23
35 -27 40 -8 10 -121 177 -175 261 -15 23 -41 52 -59 65 -56 42 -71 71 -88
173 -19 122 -20 246 0 292 16 39 15 33 15 78 0 26 9 42 37 70 21 20 42 36 48
36 5 0 25 13 44 29 46 38 70 116 81 271 5 69 16 175 24 235 49 358 50 572 2
703 -8 23 -12 42 -8 42 4 0 2 4 -3 8 -14 9 -49 64 -51 79 -3 17 -41 71 -75
108 -26 28 -28 34 -21 80 9 59 8 95 -7 193 -9 60 -8 85 4 140 16 67 15 111 -6
270 -5 40 -9 103 -10 140 -1 46 -3 59 -8 42 -4 -14 -7 15 -7 70 1 125 -28 314
-55 364 -7 12 -7 16 0 12 5 -4 -1 14 -15 39 -31 55 -49 68 -42 32 5 -23 3 -25
-15 -16 -14 8 -18 8 -13 0 20 -32 -84 10 -118 48 -23 25 -14 51 18 51 16 0 26
7 30 23 11 41 6 72 -14 90 -11 9 -20 24 -20 32 0 8 -9 15 -20 15 -22 0 -27 16
-7 23 6 2 20 -3 30 -11 27 -24 41 4 15 30 -10 10 -16 24 -12 31 4 7 4 9 0 5
-5 -4 -26 3 -47 14 -28 14 -39 27 -39 42 0 28 -26 53 -60 58 -21 2 -26 9 -28
40 -2 26 -10 41 -29 53 -24 16 -26 16 -35 0 -9 -15 -12 -13 -29 14 -10 17 -31
37 -46 43 -16 7 -37 20 -49 30 -11 10 -33 19 -48 20 -15 1 -34 10 -43 20 -9
10 -27 18 -41 18 -27 0 -112 80 -112 105 0 7 -13 16 -30 20 -16 4 -30 11 -30
16 0 17 -53 32 -72 20 -18 -11 -44 9 -30 24 4 5 1 5 -5 1 -7 -4 -13 -3 -13 3
0 5 -8 10 -17 10 -10 0 -40 1 -66 1 -26 0 -60 6 -75 12 -49 19 -142 36 -148
26 -9 -14 -47 2 -71 31 -11 14 -19 29 -17 32 2 4 -3 10 -12 13 -10 4 -25 -3
-40 -19 -26 -28 -39 -32 -30 -10 3 8 2 14 -2 13 -4 -1 -23 1 -42 5 -49 9 -430
15 -400 6z m324 -736 c21 -24 26 -26 50 -15 21 9 26 9 26 -3 0 -21 17 -27 40
-15 15 8 27 7 47 -3 34 -16 70 -15 102 2 17 9 21 10 16 1 -6 -9 -3 -9 11 -2
13 7 31 6 60 -4 38 -13 46 -12 85 5 31 14 48 17 61 10 10 -5 18 -6 18 -2 1 4
11 -5 24 -21 23 -28 29 -29 116 -32 50 -2 95 -6 100 -9 22 -13 50 -13 50 0 0
14 28 14 65 0 27 -11 158 -118 206 -169 21 -23 52 -66 68 -96 27 -51 87 -210
115 -305 26 -90 2 -281 -40 -316 -12 -10 -14 -24 -8 -67 4 -34 3 -53 -3 -49
-5 3 -10 0 -10 -8 0 -8 4 -12 8 -10 4 3 9 -2 13 -10 3 -10 -5 -20 -24 -30 -17
-9 -30 -19 -30 -23 0 -24 25 -88 46 -119 13 -20 24 -44 24 -53 0 -10 9 -29 20
-43 11 -14 20 -38 20 -53 0 -15 9 -57 19 -93 11 -36 25 -93 31 -126 12 -63 47
-234 55 -272 8 -33 22 -28 30 10 4 17 17 43 29 57 13 14 39 49 60 78 63 87 89
97 161 61 32 -16 51 -37 79 -83 20 -35 36 -75 36 -89 0 -15 4 -27 9 -27 4 0
14 -28 21 -62 10 -49 14 -59 21 -43 5 12 8 -14 8 -71 1 -65 -3 -96 -14 -110
-9 -12 -15 -45 -15 -94 -3 -149 -31 -351 -54 -379 -7 -9 -11 -60 -11 -135 l0
-121 -33 -36 c-18 -20 -39 -45 -47 -55 -10 -15 -26 -19 -74 -18 l-61 1 0 -34
c0 -21 -6 -36 -15 -39 -8 -4 -13 -10 -10 -14 3 -5 1 -11 -5 -15 -5 -3 -10 -17
-10 -30 0 -18 -11 -28 -45 -45 -46 -22 -57 -43 -29 -54 8 -3 12 -10 9 -16 -4
-6 -11 -8 -16 -4 -6 3 -17 -12 -26 -34 -11 -30 -22 -41 -42 -45 -32 -6 -38 -2
-21 18 7 8 9 15 5 15 -5 0 0 9 10 20 11 12 15 26 10 37 -7 17 -8 17 -15 -2 -4
-11 -6 -23 -3 -27 2 -4 -2 -5 -9 -3 -8 3 -22 21 -32 40 -11 19 -22 35 -26 35
-11 0 -20 -83 -13 -124 4 -28 2 -36 -10 -36 -22 0 -59 -54 -50 -76 4 -10 0
-21 -10 -29 -21 -15 -37 -58 -37 -96 0 -22 -6 -32 -24 -39 -13 -5 -27 -19 -31
-31 -7 -20 -8 -20 -17 -5 -5 9 -8 28 -6 43 2 14 -2 28 -8 30 -14 5 -34 -48
-34 -88 0 -15 -4 -30 -9 -33 -5 -3 -12 -22 -15 -41 -6 -28 -11 -35 -31 -35
-13 0 -27 -4 -30 -10 -3 -5 -19 -7 -35 -4 -24 5 -31 2 -43 -22 -8 -16 -12 -40
-10 -54 9 -61 -10 -100 -48 -100 -10 0 -21 -5 -24 -11 -18 -28 -48 -25 -80 7
-31 30 -45 34 -45 12 0 -5 5 -6 12 -2 7 4 8 3 4 -5 -4 -6 -11 -9 -16 -6 -5 3
-11 1 -15 -5 -3 -5 -1 -10 4 -10 16 0 13 -46 -4 -60 -12 -10 -16 -8 -24 12
-10 27 -56 62 -70 54 -5 -3 -11 -19 -14 -35 -6 -28 -8 -29 -39 -20 -25 7 -34
6 -41 -6 -12 -21 -34 -19 -40 5 -6 23 -27 27 -27 6 0 -8 -14 -19 -30 -25 -17
-5 -33 -17 -36 -25 -9 -24 -69 -55 -86 -45 -11 6 -18 4 -22 -7 -4 -10 -14 -14
-26 -11 -11 3 -33 -5 -52 -20 -25 -18 -41 -23 -65 -18 -17 3 -34 1 -38 -5 -3
-5 -19 -10 -36 -10 -16 0 -38 -9 -48 -19 -14 -14 -31 -18 -69 -16 -27 1 -55 5
-61 9 -6 4 -21 1 -33 -5 -13 -7 -38 -12 -57 -10 -19 1 -41 -5 -51 -14 -15 -13
-22 -13 -63 -1 -34 10 -58 11 -88 5 -36 -8 -45 -7 -63 10 -12 11 -34 23 -51
27 -16 4 -41 15 -54 25 -13 10 -28 16 -33 13 -5 -3 -27 8 -48 25 -25 20 -50
31 -70 31 -39 0 -138 48 -152 73 -7 14 -7 17 1 13 6 -4 11 -3 11 3 0 6 -17 9
-37 8 -28 -1 -38 2 -39 13 -3 32 -6 34 -14 13 -5 -13 -16 -23 -24 -23 -23 0
-83 43 -95 67 -9 20 -32 25 -47 10 -4 -4 -14 2 -21 13 -8 11 -18 18 -23 15
-14 -8 -57 33 -65 62 -3 16 -14 36 -22 45 -9 10 -13 26 -10 37 3 11 -2 28 -10
38 -8 10 -12 13 -9 7 3 -7 -1 -14 -9 -18 -11 -4 -15 2 -15 20 0 13 -7 27 -15
31 -19 7 -42 51 -79 148 -15 39 -34 82 -42 97 -8 14 -14 44 -14 66 0 22 -7 59
-16 83 -9 24 -20 64 -25 89 -4 25 -16 77 -27 115 -11 39 -23 104 -27 145 -4
41 -11 83 -17 93 -5 10 -12 49 -14 85 -6 99 -14 140 -24 122 -17 -30 18 -429
40 -455 7 -8 10 -22 6 -30 -5 -13 -10 -14 -27 -5 -24 13 -59 47 -59 57 0 3 -8
15 -17 26 -25 27 -25 136 -1 161 27 27 32 63 14 92 -22 33 -56 139 -56 175 0
15 -4 30 -9 33 -5 4 -12 30 -16 59 -4 28 -13 77 -21 108 -8 31 -14 80 -14 108
0 31 -7 62 -16 76 -14 21 -15 47 -9 182 8 183 16 216 63 243 46 28 69 25 91
-10 l18 -31 7 32 c3 17 6 86 6 153 0 111 18 256 49 386 14 62 13 108 -4 155
-17 48 -20 220 -4 297 6 29 18 87 26 128 23 116 60 227 105 315 79 155 197
282 278 300 19 4 41 12 48 18 8 6 23 12 33 14 11 2 32 11 46 20 15 10 27 17
28 16 0 -1 12 -6 26 -12 21 -7 33 -5 58 10 18 11 29 14 25 7 -6 -10 -5 -10 7
-2 8 6 23 9 34 7 28 -7 75 -7 105 0 64 15 74 15 99 3 16 -8 36 -10 52 -6 15 4
50 11 79 14 29 4 57 9 62 12 5 3 14 1 21 -5 7 -5 26 -12 42 -15 17 -4 43 -8
58 -11 19 -4 38 1 55 14 22 15 32 17 47 8 25 -14 45 -18 45 -7 0 15 40 4 55
-15 14 -19 16 -19 29 -2 9 12 15 14 18 6 5 -14 68 -3 68 12 0 5 11 9 25 9 18
0 26 7 31 25 8 31 10 31 38 -2z m1500 -3605 c3 -13 7 -66 10 -118 3 -52 9
-132 12 -176 11 -136 -30 -227 -247 -552 -71 -106 -129 -195 -129 -197 0 -6
-103 -159 -111 -165 -3 -3 -21 -30 -40 -60 -18 -30 -37 -59 -42 -65 -39 -48
-253 -345 -282 -393 -5 -9 -13 -21 -18 -26 -89 -122 -184 -255 -192 -268 -27
-45 -205 -302 -252 -363 -65 -86 -104 -164 -138 -275 -42 -139 -47 -145 -180
-235 -67 -45 -127 -79 -134 -77 -7 2 -27 17 -44 33 -46 42 -148 119 -158 119
-11 0 -104 63 -135 91 -11 11 -25 19 -31 19 -6 0 -16 7 -23 15 -7 9 -41 32
-76 51 -101 57 -109 71 -119 210 -9 146 -9 137 -2 259 10 158 17 210 32 234 3
5 7 67 10 138 2 70 7 191 11 269 6 145 7 137 -42 374 -24 111 -44 179 -68 230
-11 25 -22 48 -24 52 -2 5 5 8 16 8 14 0 32 -17 53 -49 20 -31 43 -54 63 -61
17 -6 38 -16 46 -21 8 -5 24 -13 35 -18 12 -5 27 -16 34 -25 15 -18 67 -46 96
-52 11 -2 36 -10 55 -18 19 -7 69 -21 110 -31 41 -10 96 -24 122 -32 35 -11
77 -14 165 -10 111 5 171 17 268 54 22 8 60 17 85 20 25 3 68 16 95 30 28 14
70 35 95 47 25 11 68 39 95 61 28 23 68 49 90 59 99 46 126 62 146 89 11 16
39 37 61 47 22 10 52 30 67 44 14 14 60 55 101 91 102 89 97 84 147 135 127
127 154 157 159 174 6 18 13 29 41 60 25 29 83 158 83 186 0 21 11 45 33 70
37 46 45 48 51 18z m626 -2602 c0 -28 -13 -47 -41 -62 -37 -18 -38 -52 -3 -84
l25 -24 35 37 c19 20 39 37 44 37 5 0 15 3 24 6 36 14 7 -82 -42 -135 -39 -43
-113 -67 -153 -51 -25 11 -32 10 -48 -4 -9 -9 -27 -16 -39 -16 -21 0 -21 4
-18 90 2 83 5 92 27 107 13 10 37 30 52 46 50 53 137 87 137 53z"/>
<path d="M15505 26775 c-27 -8 -65 -14 -83 -15 -18 0 -43 -5 -55 -11 -32 -16
-77 -61 -77 -75 0 -7 -9 -16 -20 -19 -24 -8 -25 -18 -3 -53 23 -35 32 -41 58
-36 21 4 119 6 160 3 25 -1 73 9 94 20 49 26 311 32 358 8 25 -13 99 -33 113
-30 3 0 29 4 58 7 30 4 61 10 70 15 10 5 21 10 25 11 12 3 67 -51 62 -59 -2
-4 6 -8 17 -8 27 -2 32 -9 24 -29 -5 -13 -9 -14 -21 -4 -8 7 -15 11 -16 9 -6
-33 -6 -38 4 -32 6 4 8 0 4 -10 -3 -9 -1 -19 5 -23 7 -4 8 -3 4 4 -4 7 -2 12
3 12 6 0 17 16 25 35 8 19 18 35 21 35 3 0 3 -6 0 -12 -4 -7 0 -5 9 5 19 25
12 44 -35 88 -22 20 -39 46 -39 57 0 17 -9 22 -52 28 -29 5 -57 9 -63 9 -14 1
-57 26 -73 42 -18 18 -52 16 -67 -4 -11 -14 -16 -14 -43 -2 -18 8 -32 16 -32
19 0 3 -11 6 -25 6 -14 0 -25 -3 -25 -6 0 -4 -8 -7 -17 -8 -51 -5 -76 -2 -119
13 -66 22 -187 27 -249 10z"/>
<path d="M14426 26753 c-3 -3 -40 -5 -82 -4 -56 1 -89 -4 -118 -17 -56 -26
-138 -44 -159 -36 -10 3 -28 -1 -42 -10 -22 -14 -26 -15 -31 -2 -7 18 -27 15
-52 -7 -10 -9 -24 -17 -31 -17 -6 0 -30 -9 -53 -21 -22 -11 -51 -19 -64 -16
-13 2 -24 1 -24 -3 0 -4 -9 -18 -20 -30 -15 -17 -19 -32 -15 -51 4 -15 -1 -43
-9 -64 -21 -50 -20 -95 3 -124 20 -26 52 -37 48 -18 -1 7 4 11 11 9 10 -2 10
2 1 20 -11 21 -11 22 5 9 9 -8 16 -10 15 -5 -1 5 -1 20 1 34 1 23 2 23 10 5 5
-11 9 -14 9 -7 1 8 6 10 14 6 7 -5 6 0 -3 11 -9 11 -10 16 -2 11 7 -4 12 -2
12 7 0 21 56 69 76 65 11 -1 35 7 54 19 80 48 280 72 420 49 25 -4 81 -9 125
-11 44 -2 103 -7 131 -10 57 -8 71 5 55 48 -13 32 -99 112 -146 135 -38 19
-129 35 -139 25z"/>
<path d="M15480 26487 c0 -4 -4 -5 -10 -2 -5 3 -10 1 -10 -4 0 -6 -6 -11 -13
-11 -8 0 -34 -13 -58 -29 -24 -16 -47 -27 -51 -25 -4 3 -8 -2 -8 -11 0 -9 5
-13 10 -10 6 3 10 2 10 -3 0 -5 11 -8 24 -7 45 5 52 -11 18 -41 -18 -16 -32
-37 -32 -48 0 -18 1 -18 19 -2 12 11 27 15 40 11 13 -4 23 0 29 11 8 14 99 53
127 54 12 0 42 -55 47 -85 3 -18 11 -20 103 -20 l100 0 20 32 c23 37 40 41 54
15 10 -19 113 -62 147 -62 21 1 106 39 87 40 -20 0 -47 50 -48 88 0 24 -6 38
-20 46 -10 6 -25 16 -31 22 -7 6 -25 10 -41 8 -15 -1 -34 -2 -40 -3 -23 -2
-14 -16 17 -28 17 -6 30 -18 30 -27 0 -9 12 -18 28 -22 48 -10 48 -14 2 -10
-25 2 -63 8 -85 14 -116 30 -204 44 -296 48 -57 2 -105 6 -107 9 -8 8 10 25
27 25 10 0 24 6 30 14 10 12 5 16 -31 20 -52 8 -88 5 -88 -7z"/>
<path d="M14447 26442 c-17 -3 -17 -5 -2 -22 16 -18 15 -19 -22 -29 -21 -6
-57 -11 -80 -11 -23 0 -62 -6 -85 -14 -24 -8 -60 -17 -80 -20 -20 -4 -50 -13
-65 -21 -35 -19 -63 -18 -87 0 -16 12 -23 12 -56 -5 -32 -16 -39 -26 -43 -57
-9 -66 -4 -97 19 -108 12 -6 30 -17 40 -25 18 -14 18 -14 4 4 -8 11 -10 17 -3
13 16 -10 82 36 110 78 12 18 32 36 43 40 22 7 60 -2 60 -14 0 -4 12 -21 26
-39 25 -29 29 -31 82 -27 66 6 83 20 117 93 19 42 29 53 42 49 66 -21 98 -37
101 -51 4 -19 64 -37 74 -23 7 12 0 36 -18 57 -23 27 23 62 52 39 7 -5 11 -3
11 6 0 8 -4 12 -9 9 -5 -4 -8 2 -6 12 2 15 -3 19 -25 17 -19 -1 -26 2 -21 10
4 7 4 9 -1 5 -4 -4 -14 -3 -22 3 -7 7 -33 13 -57 14 -24 2 -52 7 -62 12 -11 5
-27 8 -37 5z"/>
<path d="M15089 25618 c-7 -13 -18 -29 -26 -36 -25 -25 -15 -34 32 -29 24 3
52 10 62 15 20 11 82 21 131 22 36 0 55 26 31 41 -8 5 -60 9 -116 9 -96 0
-103 -1 -114 -22z"/>
<path d="M14683 25599 c-28 -7 -44 -17 -48 -30 -11 -34 11 -47 83 -48 37 -1
81 -3 99 -5 42 -5 47 13 14 53 -30 37 -77 47 -148 30z"/>
<path d="M15628 25143 c3 -14 11 -27 18 -30 8 -3 14 -18 14 -34 0 -16 5 -29
10 -29 20 0 9 -29 -21 -54 -32 -27 -67 -33 -98 -16 -41 21 -118 28 -168 15
l-28 -8 30 -12 c21 -9 36 -10 49 -3 12 7 16 7 12 0 -3 -5 1 -12 9 -16 8 -3 15
0 16 7 0 7 4 2 9 -10 7 -17 18 -23 42 -24 170 -4 165 -3 192 -31 45 -50 105
-25 76 31 -5 12 -15 31 -21 42 -15 29 4 48 25 26 9 -9 16 -20 16 -25 0 -15 45
-41 58 -33 10 6 35 61 32 71 -1 3 -7 4 -15 2 -14 -3 -28 24 -20 38 3 4 -3 7
-13 6 -11 -1 -17 6 -17 21 -1 27 -45 63 -77 63 -13 0 -29 5 -36 12 -7 7 -32
13 -55 14 -42 2 -44 0 -39 -23z"/>
<path d="M14406 25130 c-59 -34 -121 -93 -137 -131 -13 -34 -24 -36 -39 -9
-10 19 -30 18 -57 -2 -22 -17 -3 -39 29 -34 23 3 28 1 24 -10 -6 -15 19 -31
44 -29 8 1 20 -3 27 -8 12 -9 22 5 55 76 9 20 20 37 23 37 3 0 3 -6 -1 -12 -5
-10 -4 -10 6 -1 11 10 17 10 29 0 12 -9 13 -9 7 1 -4 6 -3 12 3 12 6 0 13 16
17 35 3 19 15 46 25 59 15 18 16 26 6 34 -8 7 -26 2 -61 -18z"/>
<path d="M14702 24962 c-18 -2 -30 -8 -27 -13 4 -5 1 -9 -5 -9 -6 0 -9 -3 -7
-7 3 -5 -18 -8 -46 -8 -29 0 -58 -4 -66 -10 -10 -7 -13 -7 -8 1 7 12 -19 12
-70 0 -20 -4 -40 -3 -54 5 -20 10 -26 8 -61 -29 -43 -47 -48 -74 -16 -96 30
-21 33 -20 61 10 19 20 35 26 83 29 46 3 63 8 79 27 22 24 34 29 71 32 12 1
29 8 39 16 22 19 33 20 145 25 52 2 105 4 118 4 12 1 22 5 22 10 0 6 -9 8 -20
6 -11 -2 -20 0 -20 5 0 5 -12 5 -27 1 -16 -5 -37 -6 -48 -5 -34 6 -108 9 -143
6z"/>
</g>
</svg>
